<svg xmlns="http://www.w3.org/2000/svg" viewBox="0 0 320 160"><title>ferguevara-ilus</title><g style="isolation:isolate"><g style="mix-blend-mode:darken"><path d="M115.32,143.33c-3.61-2.36-21.86-1.35-24.72,2.9-3.12,4.65,18.68,4,19.7,4,5.49,0,15,1.46,19.6-2.52C126.86,143.62,120.55,145.55,115.32,143.33Z" style="fill:#af7b9a"/></g><g style="mix-blend-mode:darken"><path d="M232.32,143.33c-3.61-2.36-21.86-1.35-24.72,2.9-3.12,4.65,18.68,4,19.7,4,5.49,0,15,1.46,19.6-2.52C243.86,143.62,237.55,145.55,232.32,143.33Z" style="fill:#af7b9a"/></g><path d="M101.82,30.86c-.91-1.13-1.77-2.3-2.64-3.46a1.14,1.14,0,1,0-1.8,1.39c1,1.2,2,2.37,3,3.48.91.94,2.18-.43,1.4-1.41Z" style="fill:#843d65"/><path d="M73.1,47.51,61.5,50.08s-4,6.19,0,11.36l13,2.06S69.71,57.32,73.1,47.51Z" style="fill:#dd9aba;stroke:#843d65;stroke-miterlimit:10"/><line x1="61" y1="52" x2="69.5" y2="51" style="fill:none;stroke:#843d65;stroke-miterlimit:10"/><line x1="60" y1="55" x2="69.5" y2="55" style="fill:none;stroke:#843d65;stroke-miterlimit:10"/><line x1="60" y1="58" x2="69.5" y2="58" style="fill:none;stroke:#843d65;stroke-miterlimit:10"/><line x1="60.5" y1="60" x2="69.5" y2="61" style="fill:none;stroke:#843d65;stroke-miterlimit:10"/><path d="M151.94,93.47C179.5,95,198.05,67.08,210.5,55c3-2.88,2,2,2,4-5.86,6.81-21.25,22.33-26,26,0,0-17,14-32,15-.41,0-1-1.35-2-2C151,97,152.1,94.48,151.94,93.47Z" style="fill:#dd9aba"/><path d="M151.94,94.45c22.47.93,38.47-16.17,52.32-31.53,1.51-1.68,3-3.35,4.58-5,1.23-1.28,3.22-3.89,2.8-.57-.48,3.77-6.49,8.16-9.07,10.81-5.84,6-11.69,12.21-18.35,17.26A88.62,88.62,0,0,1,171,93.76a53.1,53.1,0,0,1-10.09,4c-4.86,1.32-8,1.24-8-4.28a1,1,0,0,0-2,0c-.29,3.68.47,8,5.17,7.5,6.59-.65,13.15-3.78,18.86-7A97.79,97.79,0,0,0,195.69,78c4.74-4.65,9.39-9.41,13.88-14.29,2.16-2.35,5.86-5.65,3.77-9.38-1.81-3.22-5.43,2-6.76,3.39-4.05,4.3-7.91,8.79-12,13-11.56,11.82-25.25,22.3-42.6,21.7C150.68,92.44,150.68,94.4,151.94,94.45Z" style="fill:#843d65"/><path d="M213.5,66.71c-5.78,7.34-13.4,16.06-21,21.29-10.3,7.09-10,8-32.72,24.42,4.48,4.88,25.72-14,30.63-17.61,4.35-3.17,27.65-21.45,23.74-26.15" style="fill:#dd9aba"/><path d="M213,66.22c-5.68,6.21-10.91,12.8-17.45,18.16-3.5,2.87-7.37,5.29-11,8-8.41,6.42-16.79,12.85-25.37,19a1.14,1.14,0,0,0-.23,1.76c4.14,3.69,11.78-2.27,15.14-4.55,6-4.09,11.54-8.87,17.33-13.29a164.56,164.56,0,0,0,16.6-14.16c2.5-2.49,9.83-8.89,7.06-13.13-.79-1.21-2.75-.06-1.94,1.14,2.27,3.37-7.71,11.52-9.76,13.42-4.28,3.93-8.79,7.59-13.4,11.11-4.36,3.32-8.53,6.87-12.93,10.13-2.58,1.91-13.07,10.8-16.51,7.74l-.23,1.76c8.81-6.41,17.38-13.1,26.05-19.69,10.42-7.92,20.18-15.66,27.69-26.65.44-.64-.55-1.4-1.08-.83Z" style="fill:#843d65"/><path d="M257.73,132.42c4.17-5.76,4.87-12,6-18.78.57-3.32-.59-8.29-1.85-11.42-1.5-3.71-4.21-6.59-6.76-9.65-9.12-11-23.22-14-37-12.15-4.43.59-6.55,2.53-10.06,4.88s-6.17,4.11-8.52,7.65c-3.24,4.86-5.94,10.57-6,16.55,0,4.31,1.44,8.94,2.22,13.19.57,3.12,3.23,5.88,5.11,8.37,3.66,4.83,7.53,9.94,13.17,12.34,13.73,5.86,29.65,2.43,40.47-7.47a25.09,25.09,0,0,0,3.12-3.83" style="fill:#dd9aba"/><path d="M258.47,132.86a37.12,37.12,0,0,0,6.61-22c-.25-7.68-4.14-13.63-9-19.22-9.45-10.84-25.77-15.65-39.8-12.14-5.86,1.46-12.88,6.64-16.65,11.31-4.48,5.55-7.66,13.08-7.22,20.29s2.36,14,6.8,19.73,8.86,11.69,16,14.37c14.71,5.54,34.6,1,43.37-12.63.6-.94-.85-2.1-1.57-1.21-10.05,12.45-30.63,18.36-44.91,9.49-6.3-3.91-13.59-13-15.37-20.13-2.41-9.68-2.2-17.92,3.49-26.52,4.43-6.69,13-12.25,21-12.9s16.27.45,23.37,4.27c7.28,3.93,14.61,11.55,17.08,19.58,2.59,8.46-.21,19.42-4.67,26.81-.59,1,.84,1.74,1.48.87Z" style="fill:#843d65"/><path d="M253.61,129.58c3.57-4.94,4.17-10.27,5.17-16.09.49-2.84-.51-7.1-1.59-9.78-1.28-3.18-3.6-5.64-5.78-8.27-7.81-9.37-19.89-12-31.7-10.39-3.8.5-5.62,2.16-8.62,4.18s-5.28,3.51-7.29,6.54c-2.78,4.17-5.09,9.06-5.12,14.17,0,3.7,1.24,7.66,1.9,11.3.49,2.67,2.77,5,4.38,7.17,3.13,4.14,6.45,8.51,11.28,10.57,11.75,5,25.38,2.08,34.65-6.4a20.14,20.14,0,0,0,2.67-3.28" style="fill:#dd9aba"/><path d="M254.35,130a27.31,27.31,0,0,0-.95-34.16A35.54,35.54,0,0,0,218.63,84c-5.11,1.09-10.9,5.29-14.33,9.16-4.11,4.63-7.05,11.33-6.84,17.57.4,12,8.18,25.74,19.85,30.06,12.59,4.66,29.72.76,37.11-11,.6-.94-.83-2.1-1.57-1.21-8.64,10.51-25.79,15.52-38,8.19-5.69-3.41-11.72-11.09-13.36-17.45-2.13-8.31-1.7-15.75,3.38-23,8.43-11.92,25.57-13.28,37.73-6.57,6.17,3.41,12.35,10,14.34,16.83,2,7.07-.4,16.3-4.05,22.5-.57,1,.84,1.73,1.49.87Z" style="fill:#843d65"/><path d="M118.55,145.25c7-1.13,11.94-4.93,17.59-8.81,2.76-1.9,5.47-6.11,6.8-9.12,1.58-3.58,1.73-7.4,2.11-11.24,1.37-13.75-6.4-25.42-17.39-33.56-3.54-2.61-6.41-2.72-10.54-3.49s-7.26-1.37-11.42-.54c-5.74,1.14-11.69,3.24-16,7.33-3.08,3-5.34,7.13-7.81,10.58-1.82,2.53-1.9,6.25-2.35,9.24-.86,5.82-1.77,12,.49,17.46,5.49,13.37,19.11,21.85,33.75,22.4a24.73,24.73,0,0,0,4.91-.51" style="fill:#dd9aba"/><path d="M118.78,146.08c7-1,13.93-5,19.22-9.62,5.53-4.86,7.49-11.7,8.16-18.74,1.4-14.6-5.61-27.21-17.28-35.8-5.37-3.94-14-5.42-20.62-5-6.8.47-14.43,3.18-19.4,8s-9.22,11.29-10.17,18c-1.15,8.06-2.41,15.9,1.47,23.42C87.08,139.8,103.92,149.26,119,146c1.08-.23.87-2.08-.27-2-15.36,1.62-33.29-7.38-38-22.9-2.4-7.89-.44-20,4.1-26.76,5.39-8,11.52-13,21.18-14.67,17.06-3,33.35,10.16,37.1,26.52,1.78,7.74,1.09,17.44-3.22,24.24s-13.85,12.12-21.58,14c-1.1.27-.61,1.81.46,1.66Z" style="fill:#843d65"/><path d="M117.67,140.49c6-1,10.22-4.22,15.06-7.55,2.37-1.62,4.69-5.23,5.83-7.81,1.35-3.06,1.48-6.34,1.81-9.62,1.17-11.77-5.49-21.77-14.9-28.74-3-2.24-5.48-2.33-9-3s-6.21-1.17-9.78-.46c-4.91,1-10,2.77-13.66,6.27-2.64,2.53-4.57,6.11-6.69,9.07-1.55,2.16-1.62,5.34-2,7.91-.74,5-1.51,10.24.42,15,4.7,11.45,16.36,18.71,28.9,19.18a21.34,21.34,0,0,0,4.21-.44" style="fill:#dd9aba"/><path d="M117.9,141.31a27.13,27.13,0,0,0,23.58-24.16,33.81,33.81,0,0,0-16-31.85c-4.53-2.86-12-3.91-17.21-3.42-6,.54-12.46,3-16.66,7.39-8.45,8.76-12.77,24.22-6.77,35.47s20.43,19.43,33.29,16.49c1.08-.25.87-2.08-.26-2-12.91,1.24-27.19-5.83-31.91-18.39-2.46-6.53-1.27-17,2.36-22.89,4.18-6.81,9.26-11.44,17.23-13.17,14.6-3.17,28.55,6.86,32.64,20.82,1.92,6.55,1.53,15.3-1.88,21.28-3.62,6.35-11.93,11-18.84,12.75-1.1.28-.6,1.81.46,1.65Z" style="fill:#843d65"/><path d="M181.48,32.87c3.24-.31,7.11-2.47,10.44-1.76,4.87,1,3.75,4.75-.48,6.34-1.84.69-7.46,2.39-9.52,1.95C177.77,38.51,178.34,34.89,181.48,32.87Z" style="fill:#dd9aba"/><path d="M181.48,33.74c3.36-.26,6.78-2.27,10.16-1.62,1.37.26,3.06,1,2.07,2.58-.69,1.1-2.15,1.62-3.31,2a21.66,21.66,0,0,1-7.26,1.56c-1.09,0-2.8-.38-2.87-1.73s1.42-2.26,2-3.25a.88.88,0,0,0-1-1.28c-3.73.55-4.84,6-1.53,7.9s8.32-.18,11.56-1.33c2.52-.9,6.67-3.77,4.12-6.81-3.45-4.12-10.1-.5-14.15.24A.88.88,0,0,0,181.48,33.74Z" style="fill:#843d65"/><path d="M196,34.54c5.53-2.13,3.23,9.73,6,12.07,3.06,2.58,9,.85,11.78-1.35,3.9-3.12,3.32-7.24,2.82-11.7-.46-4.25-1.12-9.34-5.33-11.5a1.45,1.45,0,0,0-1.46,2.5c3.84,2.36,3.75,8.18,4.12,12.17.26,2.76-.23,5.09-2.68,6.69-2.61,1.7-7.05,2.6-8.13-1-.86-2.84,0-5.57-2-8.16-1.62-2.11-3.49-2.47-5.77-1.28-.83.43-.25,1.87.64,1.52Z" style="fill:#843d65"/><path d="M201.46,15.49c-7.71,5.57,6.74,10.61,9.65,6.09C209.34,19.08,205.72,17.11,201.46,15.49Z" style="fill:#dd9aba"/><path d="M201,14.7c-1.5,1.09-3,2.57-2.8,4.58a5.46,5.46,0,0,0,3.19,3.95c3.24,1.68,8.43,2.36,10.85-1a1.25,1.25,0,0,0,0-1.33c-2.37-3.23-6.72-6.16-10.78-6.33a.92.92,0,0,0-.64,1.56c2.84,2.37,6.79,3.05,9.15,6.1V20.91c-1.35,1.95-5.11,1.15-6.89.42-.93-.38-2.3-1-2.69-2-.5-1.32.8-2.41,1.72-3.14S201.85,14.1,201,14.7Z" style="fill:#843d65"/><path d="M180.75,32.82c-2.3.62-3.25,3.38-2.43,5.49a3.71,3.71,0,0,0,6,1.41c1.52-1.55.94-4.2-.09-5.85a3.39,3.39,0,0,0-2-1.71,1.68,1.68,0,0,0-2,1.17.73.73,0,0,0,1.07.82c.14-.1.13-.06,0-.08s.24.17.37.29a4.09,4.09,0,0,1,.71,1c.32.64.76,1.81.23,2.46a1.27,1.27,0,0,1-2.11-.49,2.4,2.4,0,0,1,.8-3.18A.73.73,0,0,0,180.75,32.82Z" style="fill:#843d65"/><path d="M207.65,46.88a22.29,22.29,0,0,0,.85,3c.48.91,1.85,1.84,2.92.79.75-.74,0-2.55-.51-3.43C210.24,46,209.9,45.57,207.65,46.88Z" style="fill:#dd9aba"/><path d="M207,47.07c.45,1.61.42,3.45,2,4.47a2.29,2.29,0,0,0,3.61-1.71,6.27,6.27,0,0,0-1.55-4c-1.15-1.25-2.59-.3-3.73.41a.71.71,0,0,0,.71,1.23,3.76,3.76,0,0,1,1.61-.57c.12,0,.08,0,.18.11a4.93,4.93,0,0,1,1,2.27c.08.4.14.85-.37.94a1.35,1.35,0,0,1-1.06-.52c-.68-.77-.71-2.09-1-3A.71.71,0,0,0,207,47.07Z" style="fill:#843d65"/><path d="M207.17,50.62c0,1.67-.27,2.27,1.63,2.29,1.23,0,4-.5,4.53-1.75C215,47.32,208.78,49.62,207.17,50.62Z" style="fill:#dd9aba"/><path d="M206.3,50.62c-.06.9-.26,2,.47,2.68a3.59,3.59,0,0,0,2.71.59c2.13-.18,4.65-1,5.07-3.35.75-4.28-6.19-1.83-7.82-.66a.86.86,0,0,0,.87,1.49,19.37,19.37,0,0,1,2.73-1.08c.34-.1,2-.67,2.32-.26.17.22-.27.83-.42,1a4.74,4.74,0,0,1-2.2.78,6.59,6.59,0,0,1-1.83.11c-.24-.1-.26-.07-.06.1a1.55,1.55,0,0,1-.06-.31,5.42,5.42,0,0,0-.05-1.06A.87.87,0,0,0,206.3,50.62Z" style="fill:#843d65"/><path d="M209,52.74c.92,2,1.27,4.59,1.92,6.73.76,2.54,2.11,4.86,2.76,7.44,1,3.9,1.63,7.72,2.53,11.61a153,153,0,0,0,7.41,23.91c1,2.33,1.94,4.59,3,6.88.6,1.33,2.41,5.33,4.24,2.45.8-1.25-.25-1.84-.79-2.78a13.48,13.48,0,0,1-1.13-3.31c-.61-2.23-1.39-4.41-2-6.64-1-3.55-3-6.76-4-10.32s-2.15-7.22-3-10.89c-1.19-5.1-2.74-10-4.4-14.93A78.34,78.34,0,0,1,213.35,55C213,53.15,212.54,49.76,209,52.74Z" style="fill:#dd9aba"/><path d="M208.21,53C213.12,67,215.17,81.89,220,96c1.2,3.48,2.53,6.92,4,10.32.83,2,1.57,4.61,3.07,6.25,1.86,2,5.05,1.51,5.21-1.72,0-.68-.34-1-.56-1.66-.63-1.87-1.48-3.6-2.06-5.54a94.64,94.64,0,0,0-3.38-9.72c-3.12-7.51-4.68-15.37-6.93-23.16-1.1-3.82-2.47-7.55-3.51-11.37-.61-2.24-.68-5-1.77-7.08-1.49-2.82-4.09-2.41-5.77,0-.4.58.26,1.29.87,1.14,2.8-.7,2.7,1.34,3.2,3.5.57,2.4,1.26,4.75,2,7.09,1.73,5.27,3.24,10.55,4.63,15.92a146.71,146.71,0,0,0,5.48,16.4c.91,2.34,1.62,4.74,2.36,7.13.29.94,2.43,5.53,2.35,6.52-.13,1.78-2.07-2.28-2.41-3-1.47-3.25-2.9-6.52-4.13-9.87a152,152,0,0,1-4.9-16.3c-2.36-9.57-4.13-19.43-8.14-28.49C209.27,51.56,207.92,52.12,208.21,53Z" style="fill:#843d65"/><path d="M231.27,108.45c-1.34-2.43-9.44,1.34-5.7,5.54C231.15,120.25,235,109.41,231.27,108.45Z" style="fill:#dd9aba"/><path d="M231.92,108.08c-.77-1.65-3.07-1.4-4.5-1a5.76,5.76,0,0,0-4,4.15c-.45,2.48,1.8,5,4,5.82a4.42,4.42,0,0,0,5.11-1.51,7.24,7.24,0,0,0,1.49-5,4,4,0,0,0-.85-2.31c-.58-.68-1.74-1.22-2.4-.3a1.16,1.16,0,0,0,0,1.22c.19.36.55.55.64.7a2.29,2.29,0,0,1,.14,1.67,4.77,4.77,0,0,1-.84,1.93,2.41,2.41,0,0,1-1.51,1c-1.42.15-4-2.12-3-3.83.65-1,3.48-3,4.59-1.68C231.32,109.68,232.24,108.79,231.92,108.08Z" style="fill:#843d65"/><path d="M140.65,66.53c1.25,3.59,1.66,7.65,2.44,11.35.82,3.9,2.14,7.81,3.2,11.66a109.87,109.87,0,0,0,3.83,10.66c1.23,3.12,2.07,9,6.21,8.18.14-1.38-.66-2.88-.94-4.25-.34-1.72-.42-3.49-.84-5.22-.81-3.35-3.2-7.56-4.05-10.91-1.36-5.36-2.82-9.43-3.81-14.77-.48-2.6-1.28-6.1-3-8.2A12.76,12.76,0,0,0,140.65,66.53Z" style="fill:#dd9aba"/><path d="M139.85,66.75c1.46,4.82,1.92,9.85,3.19,14.71A158.47,158.47,0,0,0,147.78,97c1.55,4.14,2.63,12.88,8.55,12.5a1.1,1.1,0,0,0,1.09-1.09c-.66-7.76-4.09-14.19-6.15-21.53-1.13-4-2.33-8.07-3.22-12.16-.78-3.61-1.36-7.06-3.44-10.18a1.06,1.06,0,0,0-1.17-.48A11.12,11.12,0,0,0,140.06,66c-.63.5.06,1.69.81,1.38,2.37-1,2.74-1.2,3.79,1.89a39.29,39.29,0,0,1,1,4.29c.87,4.12,2,8.13,3.15,12.19,2.09,7.62,5.72,14.68,6.42,22.68l1.09-1.1c-3.65.24-4.59-5.69-5.57-8.22-1.46-3.8-2.87-7.52-4-11.42-2.12-7-3.05-14.37-5.27-21.33C141.13,65.3,139.54,65.73,139.85,66.75Z" style="fill:#843d65"/><path d="M139.13,64.58c-.42,3.67,3.8,5,5.87,2C147.51,62.87,141.59,63.22,139.13,64.58Z" style="fill:#dd9aba"/><path d="M138.66,64.45A3.48,3.48,0,0,0,141.35,69a4.73,4.73,0,0,0,5.05-3.14c.75-2-.94-3-2.67-3.12-1.37-.11-4.7,0-5.07,1.75a.49.49,0,0,0,.34.6c1,.41,2.27-.33,3.3-.44.55-.06,2.08-.25,2.33.47.18.51-.56,1.33-.88,1.62a2.5,2.5,0,0,1-1.85.69c-1.59-.1-2.09-1.6-2.3-2.94C139.52,63.93,138.79,64,138.66,64.45Z" style="fill:#843d65"/><path d="M111.55,110.41c2.75-2.54,3.94-5.84,6.29-8.66,2.13-2.55,4.32-5,6.34-7.63,3.75-4.88,7.08-10.51,11.2-15.17,2.08-2.36,4.1-5,6.31-7.34,4.06,2.86.09,4.24-1.8,6.75s-4.49,5-6.39,7.64C129,92.41,124,98.07,119,104.23,118.17,105.29,113,113.81,111.55,110.41Z" style="fill:#dd9aba"/><path d="M112.28,111.14c2.89-3,4.74-6.72,7.33-10s5.07-6.09,7.38-9.32c2.62-3.68,5.11-7.42,8-10.9,1.39-1.67,2.81-3.32,4.2-5,.69-.84,1.39-1.67,2.09-2.5.83,1.13.7,2-.39,2.54-2,3.34-5.74,6.14-8.14,9.25-2.54,3.3-5,6.63-7.7,9.84-2.43,2.93-5,5.79-7.26,8.86-.48.64-4.8,6.74-5.35,5.93a1,1,0,0,0-1.79,1.05c1.46,2.54,3.82.77,5.33-.78,3.71-3.82,6.8-8.61,10.13-12.75,4.9-6.06,9.28-12.54,14.44-18.37,2.6-2.93,5.56-4.78,1.77-8a.91.91,0,0,0-1.26,0c-5.65,5.6-10.07,12.11-14.64,18.57-2.55,3.59-5.36,6.89-8.21,10.23-2.69,3.14-4.53,6.93-7.4,9.89C109.88,110.63,111.35,112.11,112.28,111.14Z" style="fill:#843d65"/><path d="M110.15,116.31c-.54-3.71-2.59-6.56-3.58-10.09-.9-3.2-1.69-6.39-2.71-9.54-1.9-5.86-4.66-11.79-6.18-17.82-.76-3-1.84-6.24-2.48-9.35,4.65-1.74,3.54,2.32,4.55,5.3s1.54,6.5,2.69,9.59c2.73,7.35,4.56,14.69,6.84,22.24C109.68,108,113.76,117.06,110.15,116.31Z" style="fill:#dd9aba"/><path d="M111.15,116c-.84-4.06-2.86-7.72-4.07-11.67-1.35-4.45-2.62-8.85-4.25-13.21-1.55-4.16-3-8.29-4.15-12.56-.48-1.72-1.87-4.45-1.77-6.21-1-1.8-.54-2.12,1.27-1,.1.59.19,1.19.27,1.79,1.62,3.38,1.81,7.89,3,11.49,1.28,4,2.62,7.9,3.76,11.92,1.07,3.76,2,7.56,3.31,11.25.21.61,2.79,7.42,1.67,7.42a1,1,0,0,0,0,2.08c2.92.23,2.69-2.87,2.27-4.93-1.18-5.77-3.59-11.66-5.3-17.28-2.23-7.32-5.17-14.48-6.8-22-.78-3.53-1.22-5.71-5.36-4.52a.91.91,0,0,0-.62,1.09c1.55,8.52,4.89,16.41,7.72,24.54,1.31,3.76,2.25,7.58,3.32,11.41s3,7.09,3.76,10.9C109.41,117.9,111.42,117.34,111.15,116Z" style="fill:#843d65"/><path d="M114.27,111.71c7.8.73,15.63-.43,23.5,0,5.84.32,12.16,0,18.12-.22,1.47-.06,3-.4,4.4.17,1.76.73,2.53,2.43.5,3.3-1.65.7-4.68-.34-6.38-.44-2.28-.13-4.56-.21-6.85-.2-6.34,0-12.64-.49-19-.22-3.26.14-6.4-.62-9.67-.65C117.74,113.44,110.64,113.63,114.27,111.71Z" style="fill:#dd9aba"/><path d="M114.27,112.41c8.87,1.09,18.12.14,27.06.33,3.65.07,7.3,0,10.94-.17l3.62-.15c1.58-.6,2-.1,1.3,1.5-.45.2-2.33-.4-2.78-.45-7.8-.83-16.08-.59-23.92-.49-3.91.06-7.68-.41-11.57-.53-.78,0-3.88-.47-4.16-.24.66-.54-.18-1.42-.85-1.11-5.15,2.42,3.61,3.3,5,3.35,13,.47,26.12,1,39.13,1.68,1.85.11,5.23-.12,4.9-2.87-.39-3.24-4.92-2.8-7.06-2.7-13.79.64-27.83.8-41.62.45C113.34,111,113.4,112.31,114.27,112.41Z" style="fill:#843d65"/><path d="M138.26,54.81c1,3.31,1.53,6.65,2.42,10,4.06.89,3.14-2.22,2.6-4.65C142.83,58.12,142.56,52.18,138.26,54.81Z" style="fill:#dd9aba"/><path d="M137.49,55c.89,3.3,1.43,6.69,2.26,10a1,1,0,0,0,.67.67c1.72.32,3.71.26,4.28-1.74.46-1.61-.28-3.45-.58-5-.69-3.58-2.2-7-6.27-4.82-.9.5-.08,1.91.82,1.39,2.67-1.53,3.07,1.79,3.38,3.68.14.85.33,1.69.49,2.54.28,1.56.34,2.47-1.61,2.13l.67.67c-.88-3.31-1.51-6.66-2.56-9.93A.8.8,0,0,0,137.49,55Z" style="fill:#843d65"/><path d="M118.28,105.63c-.2-3.52-6.24-2.53-8.37-2.15-4.34.76-6.48,5.34-7.06,9.47-1.23,8.76,12.93,11.91,15.92,4C120.05,113.53,120.46,107.46,118.28,105.63Z" style="fill:#dd9aba"/><path d="M119.23,105.63c-.55-5.51-9.84-4.1-12.93-1.83-4.5,3.29-6.85,11.4-2.71,15.78,3.42,3.61,9.86,4.49,13.85,1.34,4.15-3.27,5.2-12.1,1.51-16-.84-.89-2.2.46-1.34,1.34,2.64,2.71.82,10.62-2,12.64-2.53,1.82-6.39,1.42-8.86-.29-3.61-2.51-3-7.33-1-10.72,1.43-2.41,3.49-3.26,6.13-3.58,1.75-.21,4.9-.76,5.42,1.53C117.59,106.91,119.34,106.71,119.23,105.63Z" style="fill:#843d65"/><path d="M160.5,106.15c-2.67,1.91-4,3-4.78,6.26-1.15,4.63-1.15,9.79,3.69,12.21,3.69,1.83,9,2.19,11.61-1.45,2.29-3.13,2.87-9.89.34-13C168.18,106.22,162.7,106.09,160.5,106.15Z" style="fill:#dd9aba"/><path d="M160.2,105.64a12.55,12.55,0,0,0-5.89,14.44c1.52,5.56,8.71,8.41,13.95,6.53,5.48-2,7-9.48,5.43-14.52-1.82-5.87-7.86-6.81-13.19-6.53a.59.59,0,0,0,0,1.18c3.55.07,8.25,1.49,10.26,4.71,2.37,3.8,1.09,11.2-3.29,12.88-5,1.91-10.88-1.44-11.21-6.78-.29-4.59,1.39-8,4.66-11C161.43,106.1,160.78,105.31,160.2,105.64Z" style="fill:#843d65"/><path d="M165.84,112.36c-3-3.73-9,3-5,6.94C166.19,124.51,170.89,112.9,165.84,112.36Z" style="fill:#dd9aba"/><path d="M166.55,112c-1.36-2.31-4.28-1.9-6.12-.42a6,6,0,0,0-1.59,7.46c1.33,2.32,4.18,3.72,6.7,2.52a7.25,7.25,0,0,0,3.67-5.15c.46-2.45-.51-5-3.37-4.82a.82.82,0,0,0-.21,1.61c.66.25.79.66,1,1.34a3.72,3.72,0,0,1-.12,1.9c-.36,1.23-1.38,3-2.88,2.9-2-.15-3.13-2.59-2.54-4.32.64-1.9,2.37-3.49,4.21-2C166,113.49,167.06,112.81,166.55,112Z" style="fill:#843d65"/><path d="M121,111.53c-.52-5.27,11.61-4.62,15.26-4.79,7.09-.33,14.1-.62,21.18-1,4-.19,8.64-1.64,12.3.88,1.07.74,3.83,4.19,2.48,5.7-.67.75-5.5-.29-6.59-.37-7.41-.6-14.44-.45-21.85-.46S129.21,112,121,111.53Z" style="fill:#dd9aba"/><path d="M121.94,111.53c.24-5.11,14.75-3.73,18.2-3.88,5.13-.22,10.26-.4,15.39-.67,4.24-.23,12.75-2.6,15.09,2.33,1.61,3.37-1.28,2-3.25,1.71-1.2-.15-2.34-.3-3.56-.39-4.83-.34-9.68-.36-14.51-.31-9.43.1-18.86.12-28.28.29a.92.92,0,0,0,0,1.84c14.15,1.49,28.58-.48,42.79.62,2.14.16,7.44,1.9,9.29.14,2.11-2-.73-5.82-2.29-7.1-4-3.3-9.67-1.65-14.32-1.38-7.05.41-14.12.75-21.18,1-4.24.13-15.28-.74-15.22,5.82A.93.93,0,0,0,121.94,111.53Z" style="fill:#843d65"/><path d="M133.48,50.46c-3.41-1.31-7.51,2.19-3.74,4.95a9.51,9.51,0,0,0,5.91,2.23c3-.08,4.12-1.75,6.62-2.84,2.27-1,9.49-.2,10.55-2.63,2-4.53-6.92-3.23-8.86-3.06C139.9,49.47,136,49.56,133.48,50.46Z" style="fill:#dd9aba"/><path d="M133.7,49.67c-5.7-1.77-8.62,4.16-3.44,7.43a9.07,9.07,0,0,0,9,.75c2.07-1,3.38-2.05,5.73-2.4,1.6-.24,3.24-.19,4.83-.51,3.3-.65,6.84-4.79,2.26-6.72-2.14-.9-4.93-.45-7.16-.28-3.92.3-8.2.12-11.83,1.81-.92.44-.2,1.61.63,1.5,3.83-.51,7.67-.85,11.52-1.19,1.52-.14,9.12-.48,5.52,2.25-1.9,1.44-5.88.51-8.17,1.17a18,18,0,0,0-3,1.52c-1.67.82-3.11,1.56-5,1.34a3.71,3.71,0,0,1-2.14-.66c-2.15-.62-1.86-2.09.87-4.43A.82.82,0,0,0,133.7,49.67Z" style="fill:#843d65"/><path d="M113.94,110.19c-1.77-2.28-5.81-.06-4.9,2.71C110.31,116.77,116.46,114.06,113.94,110.19Z" style="fill:#dd9aba"/><path d="M114.52,109.85a3.57,3.57,0,0,0-5.34-.38,3.68,3.68,0,0,0,0,5.62,4,4,0,0,0,5.14-.4c1.38-1.32,1.8-4,0-5.19-.64-.44-1.26.29-1.17.9.14,1,.83,1.95-.15,2.79a1.91,1.91,0,0,1-2.19.28c-2.37-1.43.72-4.75,2.63-2.8C114,111.19,115,110.48,114.52,109.85Z" style="fill:#843d65"/><path d="M73.71,44.92c-4.78,3-4.83,11.4-3.92,16.21,1.33,7,6.79,5.26,12.69,5.61,6.64.39,13.17.66,19.9.66,5.31,0,7.69-1.25,12.93-.4,1.46-5.31.58-8.62,2.19-14,1.41-4.7,1-7.71-3-8-3.29-.24-10.09-.23-13.42-.4C92.37,44.15,83.52,44.6,73.71,44.92Z" style="fill:#dd9aba"/><path d="M73.25,44.14c-5.71,4.17-8.21,19.87-.19,23,2.17.86,4.65.63,6.93.66,3.84,0,7.67.36,11.51.51,4.15.15,8.39.39,12.55.17,3.83-.2,7.4-.86,11.26-.38a1.14,1.14,0,0,0,1.11-.84,85.64,85.64,0,0,0,1.27-9.46c.36-2.87,1.66-5.68,1.64-8.59,0-3.21-1.71-4.88-4.83-5.3-5.48-.75-11.38-.39-16.92-.55-7.84-.21-16.08-.34-23.87.62a.91.91,0,0,0,0,1.81c10.58.57,21.41-.26,32,0,2,0,4,0,6,.13.9,0,2.73-.2,3.53.27,2,1.18,1.68,4.06,1.27,5.83-.63,2.68-.86,12.64-2.92,13.62-1.29.61-4.53.07-6.08.23a63.54,63.54,0,0,1-7,.37c-5.73,0-11.45-.34-17.17-.61-4.78-.23-11.17,1.29-12.58-4.78-1.12-4.8-.89-11.92,3.37-15.14C75.08,45,74.2,43.45,73.25,44.14Z" style="fill:#843d65"/><path d="M91.24,69c3.6,0,7.25-.26,10.83-.1-4.26-1.23-4.08-4.51-4.32-8.25-1.29-.45-3.29-.08-4.67,0-1.09,0-2.82-.27-3.85,0C86.76,61.31,90,67.65,91.24,69Z" style="fill:#dd9aba"/><path d="M91.24,69.87c3.59.22,7.23-.07,10.83,0a.92.92,0,0,0,.25-1.79c-3.51-1.09-3.5-4.26-3.81-7.37A.81.81,0,0,0,98,60c-2.38-.44-5.08-.12-7.5-.09-1.18,0-2.24.2-2.73,1.36-1,2.32,1.2,6.85,2.93,8.4.68.61,1.83-.17,1.31-1-1.06-1.71-2.57-3.7-2.77-5.77s1.37-1.53,3-1.49c1.81.06,3.61-.44,5.38.07L97,60.68c.08,4.19.5,7.55,4.84,9.13l.24-1.79a83.31,83.31,0,0,0-10.83.18A.84.84,0,0,0,91.24,69.87Z" style="fill:#843d65"/><path d="M93.9,63.12c-2.45-.76-3.68,3.31-1.21,4a2.14,2.14,0,0,0,2.61-1.44c.39-1-.07-2.79-1.45-2.71a.76.76,0,0,0-.65,1.14c.14.27.37.44.5.68s.11.17.07.37a.4.4,0,0,1-.56.31c-.1,0,0,0-.13-.09s0-.12,0-.07a.47.47,0,0,1,0-.35c.08-.23.32-.65.69-.68A.61.61,0,0,0,93.9,63.12Z" style="fill:#843d65"/><path d="M116.19,66.73c4.17-3,5.73-22.71-2-21.13-3.67.75-2.94,11.06-2.91,13.65C111.34,62.43,112.18,67.43,116.19,66.73Z" style="fill:#dd9aba"/><path d="M116.79,67.34c4.66-3.71,7-22.86-1.71-23-5.34,0-5,8.18-5,11.74,0,4.67-.17,11.85,6.12,11.46,1.09-.07,1.1-1.78,0-1.71-4.34.27-3.79-7.26-3.81-10.17,0-2.17.16-12,4.4-8.27,3.75,3.29,2.28,15.63-1.19,18.69C114.75,66.87,116,68,116.79,67.34Z" style="fill:#843d65"/><path d="M91.17,44.83c-4.14,3.9-4.91,10.09-3,15.31.37,1,2,.62,1.67-.46-1.61-5.1-1-9.84,2.28-14.14.42-.54-.46-1.14-.92-.71Z" style="fill:#843d65"/><path d="M92.56,49.5a1,1,0,0,0,0-2,1,1,0,0,0,0,2Z" style="fill:#843d65"/><path d="M86.56,49.5a1,1,0,0,0,0-2,1,1,0,0,0,0,2Z" style="fill:#843d65"/><path d="M91.91,53.08a1,1,0,0,0,0-2,1,1,0,0,0,0,2Z" style="fill:#843d65"/><path d="M85.91,54.08a1,1,0,0,0,0-2,1,1,0,0,0,0,2Z" style="fill:#843d65"/><path d="M91.91,57.32a1,1,0,0,0,0-2,1,1,0,0,0,0,2Z" style="fill:#843d65"/><path d="M86,59a1,1,0,0,0,0-2,1,1,0,0,0,0,2Z" style="fill:#843d65"/><path d="M125.88,75.79c2.88.94,4.31,3.23,5.46,5.71,3.42-1.4,6.24-7.27,9.66-9.56a15.82,15.82,0,0,0-4.51-4.16c-2.39-.86-1.24-.78-3.42.76A34.7,34.7,0,0,0,125.88,75.79Z" style="fill:#dd9aba"/><path d="M125.67,76.54c2.56,1,3.82,3,4.94,5.39a.86.86,0,0,0,1.16.3c4.19-2,6-6.82,9.68-9.53a.92.92,0,0,0,.32-1.21c-1.2-1.88-4.45-5.56-7.07-5.13-1.25.2-2.51,1.69-3.47,2.47-2.23,1.8-4.82,3.94-6,6.57a.78.78,0,0,0,1.22.94c2.65-2.21,4.61-6.29,7.94-7.68.76-.32.22-.39,1.13-.27a5,5,0,0,1,2,1.22,13.22,13.22,0,0,1,2.72,2.77l.32-1.21c-3.66,2.66-5.54,7.56-9.63,9.6l1.16.3c-1.38-2.79-3-4.91-6-6C125.14,74.68,124.75,76.18,125.67,76.54Z" style="fill:#843d65"/><path d="M116.86,60.38c3,1.06,4.69,3.42,7.16,5.21s5.22,2.27,7.56,4c.9.65,2-.8,1.18-1.53-2.43-2.21-5.82-2.53-8.39-4.52-2.36-1.83-4.14-3.75-7.07-4.71-1-.34-1.43,1.24-.44,1.59Z" style="fill:#843d65"/><path d="M114.42,62.85c5.17,2.36,7.53,8.92,13.46,9.81,1.31.19,1.92-1.73.56-2-5.61-1.29-8.14-7.26-13.43-9.17-.81-.29-1.38,1-.59,1.4Z" style="fill:#843d65"/><path d="M96.62,45.27c-.37-4.17,5.54-8.06,7.56-3.51,1.22,2.77,1.24,3.93-1.84,4.47C101.09,46.45,97.69,47,96.62,45.27Z" style="fill:#dd9aba"/><path d="M97.52,45.27A4.61,4.61,0,0,1,100,41c1.75-.92,2.88.1,3.49,1.75.15.41.59,1.32.34,1.77s-1.48.59-2,.66c-1.27.2-3.64.5-4.58-.58-.67-.77-2,.23-1.41,1.09,1.53,2.42,4.71,2,7.2,1.46a3.63,3.63,0,0,0,2.79-1.84,4.37,4.37,0,0,0-.43-3.38c-1-2.49-3.15-3.91-5.83-2.77a6.44,6.44,0,0,0-3.86,6.07C95.79,46.42,97.58,46.43,97.52,45.27Z" style="fill:#843d65"/><path d="M97.5,20c1.39,2.29,3.89,5.52,2.13,8.32a5.89,5.89,0,0,1-5.84,2.08C91.92,29.72,90,28,90.5,27,94.5,18,95.5,21,97.5,20Z" style="fill:#dd9aba"/><path d="M97,20.29c1.39,2.74,4.47,7.31,0,9a4.18,4.18,0,0,1-4.25-.69c-1.21-.9-1.25-1-.65-2.37.3-.67.61-1.33,1-2,.6-1.12,1.28-2.68,2.59-3.07a8.73,8.73,0,0,0,2.14-.63c.56-.31.19-1.28-.44-1.06s-1.21-.08-1.81,0a3.72,3.72,0,0,0-2,.78,11,11,0,0,0-2.77,3.68c-.89,1.61-2.15,3.23-1,5,2.11,3.28,6.53,3.35,9.39,1.14,3.76-2.91,1-7.38-1.15-10.29A.58.58,0,0,0,97,20.29Z" style="fill:#843d65"/><path d="M100.88,33.85c-.17,2.3-.79,4.55-1.07,6.84-.15,1.24,1.85,1.26,2,0,.22-2.29.77-4.54.88-6.84.06-1.16-1.69-1.14-1.78,0Z" style="fill:#843d65"/><path d="M95.18,19.5c-1.85,1.17-7.91,5.41-5.6,8.05C93.36,31.85,102.64,20.18,95.18,19.5Z" style="fill:#dd9aba"/><path d="M94.86,19c-2.43,1.45-6.28,3.79-6.72,6.87s3,4.23,5.34,3.32a9.41,9.41,0,0,0,5.38-5.87c.74-2.67-1-5-3.85-4.38a.64.64,0,0,0-.15,1.16c1.49.71,2.49,1.35,1.83,3.09a7.56,7.56,0,0,1-3.67,4c-1.61.75-3.68,0-2.68-2.07s3.28-3.72,5.16-5C96.17,19.59,95.57,18.53,94.86,19Z" style="fill:#843d65"/><path d="M94,23.42a12.86,12.86,0,0,0-2.6-2.61" style="fill:#dd9aba"/><path d="M94.73,23a11.2,11.2,0,0,0-2.87-3c-1-.63-2.09.83-1.23,1.59a22.19,22.19,0,0,1,2.69,2.53c.65.77,2-.25,1.41-1.09Z" style="fill:#843d65"/><path d="M89.4,18c-2,1.39-1.58,3.54,1.16,2.93s1.4-2.84-.84-3A.63.63,0,0,0,89.28,19c1.46,1.22.36.39.75.09C90.66,18.6,90.08,17.53,89.4,18Z" style="fill:#843d65"/><path d="M103.08,31.57c-1.16-.46-3.12.55-2.25,2,1,1.59,3.9-.34,1.92-2" style="fill:#dd9aba"/><path d="M103.29,30.77a3,3,0,0,0-3.32,1A2.23,2.23,0,0,0,101.12,35a2.57,2.57,0,0,0,2.93-1A2.12,2.12,0,0,0,103,30.75.86.86,0,0,0,102,32a3,3,0,0,0,.26.5l.11.19c.08.16,0-.11,0,0s0-.21,0,0,0,.07,0,0c0,.08,0,.1,0,0,0,0-.05.11-.08.15.13-.19-.18.16-.1.09s-.26.14-.15.09-.39.08-.12,0h-.18c.16,0,0,0,0,0h0s-.12-.14-.08-.08-.08-.16-.05-.07c0-.09,0-.15,0-.09a.51.51,0,0,1,.09-.18,1.13,1.13,0,0,1,1.18-.3.84.84,0,0,0,1-.58.85.85,0,0,0-.58-1Z" style="fill:#843d65"/><path d="M62.48,48.51c-3.93-5.31-9.58-8.8-13.92-13.72a1.35,1.35,0,0,0-2.29,1c.24,2.92.81,5.73.53,8.67l1.34-1.34c-3.6.4-5.58-3.44-8.2-5.36-1-.73-2.25.47-2,1.52.49,1.87.72,3.78,1.16,5.66l1.32-1.72c-6.87.07-14,1.12-20.77,2a1.4,1.4,0,0,0,0,2.8c6.87.51,13.94-1.52,20.77-2.06a1.38,1.38,0,0,0,1.31-1.72c-.5-1.87-.71-3.78-1.2-5.66l-2,1.52c3.3,2.42,4.94,6.24,9.56,5.72a1.39,1.39,0,0,0,1.35-1.34c.28-3-.3-5.73-.53-8.67l-2.3.95c4.19,4.74,9.77,8.05,13.61,13.12,1,1.29,3.2,0,2.21-1.3Z" style="fill:#843d65"/><path d="M64,60.56c-7.08-.49-12.23,7.57-17.72,10.8l2.13.86c-.71-2.42.22-4.55.68-6.86.2-1-.67-2.19-1.8-1.8a40.79,40.79,0,0,0-6.81,3l2.14,1.65A42.86,42.86,0,0,1,46,61.17a1.47,1.47,0,0,0-2-2,130.83,130.83,0,0,0-11.77,7.43L34.08,69a51.89,51.89,0,0,0,4.19-6.1,1.53,1.53,0,0,0-.9-2.21c-6.19-1.39-12.52,1.27-18.61-.53a1.47,1.47,0,0,0-1.13,2.67c5.63,3.25,12.85-.63,18.94.76l-.9-2.21a50.65,50.65,0,0,1-4,5.8c-.91,1.19.87,2.88,2.05,2A120.89,120.89,0,0,1,45.5,61.69l-2-2a47.53,47.53,0,0,0-3.71,7.79c-.48,1.24,1.11,2.22,2.14,1.65A36.38,36.38,0,0,1,48,66.39l-1.8-1.8C45.65,67.52,44.7,70,45.6,73a1.46,1.46,0,0,0,2.13.86C53.3,70.53,57.5,63.4,64.24,62.48c1.15-.16.77-1.85-.26-1.92Z" style="fill:#843d65"/><path d="M15.76,53.22c4.56.06,9.13.06,13.69.08a.88.88,0,0,0,0-1.76c-4.56,0-9.13,0-13.69.07a.81.81,0,0,0,0,1.61Z" style="fill:#843d65"/><path d="M7.29,58.31a37.59,37.59,0,0,1,7.64.62.68.68,0,0,0,.52-1.23c-2.27-1.4-5.63-.8-8.16-.75a.68.68,0,0,0,0,1.36Z" style="fill:#843d65"/><g style="mix-blend-mode:darken"><path d="M98.19,60.89c-2.81,8.7,9.74,7.7,15,5.88-.59-1.33-.23-3.58-1.1-4.76-1.29-1.73-2.38-.91-4.66-.8C104.58,61.35,101.09,61.59,98.19,60.89Z" style="fill:#af7b9a"/></g><g style="mix-blend-mode:darken"><path d="M133.37,50.79c-3.06.29-3.4,3.54-1,5.15,3.36,2.23,6.72.1,9-2.19C137.83,54.57,135.17,54.51,133.37,50.79Z" style="fill:#af7b9a"/></g><g style="mix-blend-mode:darken"><path d="M184.81,38.47a44.91,44.91,0,0,0,9.12-2.93c1.22-.6.36-2.61-.93-2.2-2.94.93-5.83,2.08-8.76,3a1.08,1.08,0,0,0,.57,2.08Z" style="fill:#af7b9a"/></g><g style="mix-blend-mode:darken"><path d="M199.67,18.21a4.14,4.14,0,0,0,2.49,3.92,8.77,8.77,0,0,0,5.09.88.93.93,0,0,0,0-1.78c-1.08-.41-2.42-.23-3.56-.56s-2.32-1-2.38-2.46a.82.82,0,0,0-1.64,0Z" style="fill:#af7b9a"/></g><g style="mix-blend-mode:darken"><path d="M92.64,21.46c-1,1.23-2,3.29-1,4.83a1.83,1.83,0,0,0,2,.84,3.89,3.89,0,0,0,2.16-1.95c.71-1.14-1-2.5-1.89-1.46a3.41,3.41,0,0,1-2.8,1.4l1.2,1.2a12.93,12.93,0,0,0-.09-1.65,1.25,1.25,0,0,0-1.17-.89h0a1.18,1.18,0,0,0-1,.6l0,.06a1.2,1.2,0,1,0,2.21.93l0-.05-1.16.88h0l-1.16-.89c-.1-.38,0,.19,0,.34s0,.44,0,.66a1.24,1.24,0,0,0,1.2,1.2,5.79,5.79,0,0,0,4.5-2.1L93.73,24s-.74,1.06-.79.95.56,0,.53.06,0,0,0,0-.07,0,0-.15,0-.68,0-1a3.87,3.87,0,0,1,.61-1.28c.6-.87-.77-1.93-1.46-1.13Z" style="fill:#af7b9a"/></g><g style="mix-blend-mode:darken"><path d="M69.47,57.8c-1.56,3.75,4.12,7,7,7.42,2.28.35,4.49.42,6.76.85a8.78,8.78,0,0,0,4.85-.26c-.33-2.1,0-4.61-.59-6.65-1.38.29-3.28-.21-4.69-.25-1.71,0-3.42-.19-5.13-.31C75,58.4,72.29,58.16,69.47,57.8Z" style="fill:#af7b9a"/></g></g></svg>