<svg xmlns="http://www.w3.org/2000/svg" viewBox="0 0 320 160"><title>ferguevara-ilus</title><path d="M115.46,81.12c1-4-2-8.25-5.66-9.78-4.51-1.86-7.67-.69-11.87,1.18-3.71,1.66-6.64,1.6-10.53.56-2.16-.57-10-4.55-11.17-2.16-2,4.12,10.08,8.55,12.43,9.45-3,.71-4.84-.6-7.61-1.1-3.31,4.87,8.07,9.42,11.26,10.11-5.79.33-1.5,4.54,1.83,5s5.67-1.38,8.64-1.9c-1.52,2.61,1.23,5.28,3.88,5.43,3,.16,4.79-2.53,7.15-3.53" style="fill:#62bfe1"/><path d="M117,81.54c1.45-7.16-4.74-13.07-11.81-13-5.11.06-9.2,3.69-14.4,3.15-3.47-.37-6.46-2.15-9.83-2.94-3.69-.86-8.52.51-6.16,5.25,2.26,4.5,9,6.6,13.36,8.27l.52-3.89c-2.53.31-4.66-.46-7.09-1a2,2,0,0,0-2.22.9c-3.65,7.1,7.08,11.74,12.43,13V87.47C88.14,88,86.1,90.75,89,93.82c4.11,4.38,9.54,1.7,14.33.48l-2.39-2.39a5.75,5.75,0,0,0,3.68,7.46c4.07,1.54,7-1.51,10.21-3.35,2.19-1.25.25-4.53-2-3.38A10.13,10.13,0,0,0,110.56,94c-1.7,1.7-3.67,1.35-5.9-1.08a2,2,0,0,0-2.39-2.39c-1.68.39-3.26,1.09-4.92,1.47a6.62,6.62,0,0,1-3.62.22c-.8,0-1.27-.29-1.42-.89,2-.26,2.86-3.27.52-3.88-2.18-.56-11.92-3.8-10.08-7.21l-2.22.9c2.85.72,5.16,1.56,8.13,1.19a2,2,0,0,0,.53-3.88A41.09,41.09,0,0,1,80,74.14c-1.89-1.33-3.07-2.54-.07-1.73,1.83.49,3.53,1.36,5.3,2A17.88,17.88,0,0,0,96.91,75c2.77-.9,5.24-2.72,8.26-2.79,5-.11,9.21,3.82,8.71,8.87-.17,1.76,2.75,2.16,3.1.42Z" style="fill:#44606f"/><path d="M110.23,81.67c-.68,1.48-2.69,1.62-2.52-.48-1.8,1-3,.44-4.34-.21-.33-.15-1.05.22-1.53,0s-.17-.95-.45-1.1A18.73,18.73,0,0,1,99,78.65" style="fill:#62bfe1"/><path d="M109.23,81.09l-.16.1a1.37,1.37,0,0,0-1.72-1.31c-1.38.54-2.1.14-3.42-.23a2.07,2.07,0,0,0-.78-.14c-.89.1-.3-.23-.17.68-.24-1.75-2-2-3.29-2.8-1.6-1-3,1.52-1.47,2.51a12.36,12.36,0,0,1,1.84,1c0-.3.07-.31.08,0a1.11,1.11,0,0,0,.17.54,2.44,2.44,0,0,0,2.07,1.14c2.3.25,3.72,1,6-.15l-2.05-1.17c.07,3.11,3.48,3.86,4.89,1.07a1.16,1.16,0,0,0-2-1.17Z" style="fill:#44606f"/><path d="M123.07,85.21c0,16.82,7.41,36.36,23.59,44.71s40.55,5.17,51.48-9.25c13.89-18.32,15.38-32.1,5.52-53.2-6.95-14.89-25.52-23.92-42.28-23.68C138,44.11,126.65,67.05,123.07,85.21Z" style="fill:#62bfe1"/><path d="M122.16,85.21c0,18.75,7.91,39,26.16,46.93,15.74,6.88,38,4.46,49.64-9,6.4-7.37,11.72-16.94,13.07-26.71,1.42-10.22-1.65-20.58-6.11-29.7C196.52,49.52,174.26,39.6,155.63,43c-19.18,3.46-31.32,23.83-33.78,41.91-.22,1.56,2,2.3,2.44.68,4-14.48,9.58-30.26,24.06-37.36,16-7.84,38.45-.25,49.45,12.84,6.08,7.25,9.89,18,10.66,27.37s-2.5,18.12-7.54,25.92c-5.24,8.11-11.75,13.91-21,16.88a45.1,45.1,0,0,1-25,.47c-20.26-5.42-30.5-26.77-30.89-46.46A.91.91,0,0,0,122.16,85.21Z" style="fill:#44606f"/><path d="M171.37,40.36c5.47-11.69,21.22-8.19,28.9-1.24,5.76,5.23,9.16,11.36,7.52,19.57-.93,4.67-2.41,3.53-5.88,2.17s-7.11-2-10.48-3.76C183.91,53.27,177.1,47.32,171.37,40.36Z" style="fill:#62bfe1"/><path d="M171.84,40.64c9.72-13.67,30.77-4.39,34.51,10a15.3,15.3,0,0,1,.17,7.72c-.81,2.59-1,2.2-3.21,1.8A48.77,48.77,0,0,1,192.06,56a52.63,52.63,0,0,1-11.69-8.1c-2.86-2.55-5.27-6.41-8.72-8a.56.56,0,0,0-.82.63c1.39,5.05,7.78,9.5,11.82,12.53a52.31,52.31,0,0,0,15.92,8c2.44.79,6.61,3.52,9,1.34,2.84-2.59,2.21-9.16,1.39-12.44C206.7,41,198.32,34.7,189.74,32.47c-7.4-1.91-16.12-.15-18.91,7.74C170.61,40.85,171.5,41.12,171.84,40.64Z" style="fill:#44606f"/><path d="M117.61,54.7c6.21.22,11.85-3.06,17.33-5.53,4.36-2,13.88-5.44,15.5-10.12-4.88-3-14.28,1.16-19.14,3-3.14,1.16-6,2.09-8.32,4.42C121.93,47.47,116.87,52.72,117.61,54.7Z" style="fill:#44606f"/><path d="M117,55c-3.8-2.05-2.44-9.71-.73-12.64,2.51-4.28,6.52-6.31,10.83-8.53,7.21-3.73,21.4-6.41,24.08,4.85C139.4,38.24,126.05,48,117,55Z" style="fill:#62bfe1"/><path d="M117.43,54.21c-4.55-3.35-.78-11.5,2.22-14.35a32.88,32.88,0,0,1,11.17-6.42c7.14-2.6,16.44-3,19.18,5.58l1.14-1.5c-6.43,0-12.33,2.17-18,5.14-5.81,3.06-12.37,6.85-16.87,11.7a.94.94,0,0,0,1.13,1.47c11.2-5.88,20-16.2,33.71-15.95a1.19,1.19,0,0,0,1.14-1.49c-2.8-11-15.87-9.91-24.15-6.29-5.15,2.25-10.92,5.36-13.31,10.76-1.79,4-2.35,10.13,1.67,13C117.48,56.54,118.39,54.92,117.43,54.21Z" style="fill:#44606f"/><path d="M174.19,135c.1,1.77,2.21,3.92,3,5.46.61,1.11,1.43,1.85,2,2.9s.95,2.43,2,2.61c3.83.65-.28-8.11-1-9.34a11.78,11.78,0,0,1-1-1.87c-.17-.5-.11-1.54-.63-1.86C177.9,132.37,174.87,133.57,174.19,135Z" style="fill:#62bfe1"/><path d="M173.45,135c0,2.3,1.69,4.14,2.87,6,.78,1.24,1.64,2.4,2.34,3.7a4.92,4.92,0,0,0,1.54,2.06c3,1.8,4.08-1.67,3.7-3.9-.58-3.37-2.55-6.27-3.71-9.39s-6-1.35-6.72,1.33a.75.75,0,0,0,1.24.73c.64-.51,2.54-2,3.36-1.47.17.11,1,2.83,1.19,3.16a31.44,31.44,0,0,1,1.79,4.38c.21.66.82,2,.62,2.64-.16.53.34,1.05-.65.13a8,8,0,0,1-.81-1.57c-1.58-2.68-4.3-5-5.31-8A.74.74,0,0,0,173.45,135Z" style="fill:#44606f"/><path d="M184.18,144.51c.27-1.31-4.58-.63-4,2.17a2.75,2.75,0,0,0,3.34,1.85C184.75,148.13,185.15,145.86,184.18,144.51Z" style="fill:#62bfe1"/><path d="M184.81,144.68c.21-1.54-1.51-1.87-2.69-1.66-1.72.29-3.3,1.46-3.23,3.35a3.91,3.91,0,0,0,5.43,3.21c2-1,2.54-5.27,0-5.71a.66.66,0,0,0-.8.46c-.1.41.24-.39,0,0a1.47,1.47,0,0,0-.25.69,6.27,6.27,0,0,0,.12,1c0,.36,0,1-.29,1.26-.56.45-1.71-.39-1.78-1a.82.82,0,0,1,.21-.68,2.18,2.18,0,0,1,.8-.62,4.57,4.57,0,0,1,.82-.24,2.58,2.58,0,0,0,.49,0c-.1.05.05,0,0,0l-.07,0a.36.36,0,0,1-.11-.37C183.43,145.16,184.7,145.52,184.81,144.68Z" style="fill:#44606f"/><path d="M129.5,131.34c-1,.56-1.48,2.27-1.93,3.24s-1.27,2.07-1.27,3.2c0,2.09,2.37.47,3.11-.1,1.24-1,3.2-2.31,3.82-3.82S131.8,131.54,129.5,131.34Z" style="fill:#62bfe1"/><path d="M129.25,130.9c-1.17.59-1.57,1.78-2.1,2.89-.6,1.27-1.67,2.4-1.81,3.86-.25,2.6,2.33,2.39,3.9,1.39,1.81-1.15,4.57-3,5.06-5.2.61-2.73-3-3.56-4.93-3a.51.51,0,0,0-.12.93,11.92,11.92,0,0,0,2,.86c.83.28,1.29.49.74,1.34a12.21,12.21,0,0,1-3.4,3,3.35,3.35,0,0,1-1.29.71l-.16.05q.38.19.12-.42a11.17,11.17,0,0,1,.59-1.62c.57-1.33.88-3.07,2-4C130.31,131.3,129.74,130.65,129.25,130.9Z" style="fill:#44606f"/><path d="M126.57,137.53c-1.47-1.3-2.83,2-1,2.85,1,.5,2.58.25,2.45-1.14S126.46,137.33,126.57,137.53Z" style="fill:#62bfe1"/><path d="M127.08,137.23a1.77,1.77,0,0,0-2.74-.17,2.8,2.8,0,0,0-.36,3.36,3.23,3.23,0,0,0,3.69,1.21,2.47,2.47,0,0,0,.85-3.91,2.7,2.7,0,0,0-1.58-.8c-.5-.09-1.3.27-.88.91a.6.6,0,0,0,1.1-.3v0l-.18.42h0l-.42.18a1.94,1.94,0,0,1-.25-.07l.08.09a1.43,1.43,0,0,1,.19.27,5.82,5.82,0,0,1,.36,1c0,.09-.11.17,0,0s0-.08,0-.08l.06-.05-.14.08c-.19.07.27-.08-.08,0a1.12,1.12,0,0,1-.67,0,.51.51,0,0,1-.21-.13c-.15-.14,0,0,0-.06s-.12-.25,0-.05a.49.49,0,0,1,0-.2c0,.23,0,0,0-.06a2.09,2.09,0,0,1,0-.25c0,.23,0-.11,0-.15s.07-.41,0-.15c0-.08.06-.11,0,0a1.58,1.58,0,0,0,.21-.38c0,.09,0,0,0,0s-.06.07-.09.05.2,0,.3.08C126.74,138.26,127.46,137.75,127.08,137.23Z" style="fill:#44606f"/><path d="M108.81,89.78c0,17.16,7.56,37.11,24.08,45.63s41.39,5.27,52.54-9.45c14.17-18.69,15.69-32.75,5.63-54.29-7.1-15.19-26-24.4-43.15-24.17C124.07,47.84,112.47,71.25,108.81,89.78Z" style="fill:#62bfe1"/><path d="M107.91,89.78c.06,19.23,8.18,39.93,26.94,48,16.26,7,39,4.26,50.81-9.8,6.43-7.68,11.77-17.37,13-27.42,1.24-10.2-1.89-20.52-6.33-29.61-8.54-17.53-31.2-27.61-50.16-24.26-19.63,3.48-32,24.3-34.57,42.77-.21,1.56,2,2.3,2.44.67,4-14.69,9.7-30.63,24.27-38,16.22-8.19,39.14-.61,50.52,12.62C191.13,72.08,195,83,196,92.53S193.69,111,188.63,119c-5.17,8.19-11.49,14.16-20.72,17.39a45.92,45.92,0,0,1-26.22,1c-20.94-5.4-31.57-27.26-32-47.56A.91.91,0,0,0,107.91,89.78Z" style="fill:#44606f"/><path d="M114,90.19c0,15.29,6.73,33.05,21.44,40.64s36.85,4.69,46.79-8.42c12.62-16.64,14-29.16,5-48.34-6.32-13.53-23.19-21.73-38.43-21.52C127.59,52.84,117.26,73.69,114,90.19Z" style="fill:#62bfe1"/><path d="M113.09,90.19c.06,17.18,7.23,35.64,24,42.85,14.73,6.33,35.22,3.74,45.73-9.12,5.58-6.82,10.2-15.23,11.3-24.08,1.16-9.32-1.77-18.87-5.94-27.12-7.73-15.31-27.87-24-44.5-21.06-17.69,3.13-28.8,21.87-31,38.53-.18,1.45,2.11,1.67,2.49.34,3.72-13.08,8.6-27.33,21.71-33.82,14.48-7.18,34.84-.29,44.85,11.56,5.58,6.59,9,16.41,9.71,25,.68,8.28-2.19,16-6.57,22.91-9.09,14.35-25.34,20.57-41.87,16.19-18.43-4.89-27.75-24.25-28.14-42.15A.91.91,0,0,0,113.09,90.19Z" style="fill:#44606f"/><path d="M152.8,124.74A23.42,23.42,0,0,1,153,128" style="fill:#62bfe1"/><path d="M151.87,124.74c0,1.09-.1,2.17-.11,3.26a1.2,1.2,0,0,0,2.4,0,12.16,12.16,0,0,0-.47-3.5.93.93,0,0,0-1.82.24Z" style="fill:#44606f"/><path d="M203.94,83c-1.23-4.77,2.33-9.77,6.71-11.58,5.34-2.2,9.09-.82,14.06,1.4,4.38,2,7.85,1.89,12.47.66,2.55-.68,11.83-5.39,13.22-2.56,2.4,4.88-11.93,10.13-14.72,11.19,3.56.84,5.73-.71,9-1.31,3.92,5.77-9.55,11.16-13.33,12,6.86.39,1.77,5.39-2.16,5.87S222.47,97,219,96.43c1.8,3.09-1.45,6.25-4.59,6.43-3.49.19-5.67-3-8.47-4.18" style="fill:#62bfe1"/><path d="M205.52,83c-.64-5.48,3.31-9.82,8.7-10.62,4.14-.62,7.05,1.26,10.77,2.65a20.33,20.33,0,0,0,14.76-.37c2-.76,4-1.68,6-2.27.56-.16,2.7-1.07,3,0,.22.7-2,2.22-2.52,2.57-3.32,2.37-7.34,3.86-11.13,5.29-1.59.6-2.14,3.5,0,3.81,3.68.53,6.5-.46,10.06-1.32L243,81.83c2.44,4.39-9.27,8.36-12.15,9.08-2.31.58-1.56,3.64.52,3.88,1.5.17,0,.9-.4,1.26-1.2,1-3.2.69-4.58.47-2.35-.38-4.57-1.45-6.91-2-1.33-.3-2.93.92-2.39,2.39,2,5.4-4.76,3.31-6.7,2.28-1.22-.65-2.24-1.6-3.49-2.23-2.24-1.11-4.21,2.18-2,3.38,3.67,2,6.74,5.51,11.32,4.12,3.88-1.17,6-4.8,4.6-8.58l-2.39,2.39c5.59,1.36,12,4.61,16.73-.59,3.42-3.75.11-6.36-3.81-6.87l.53,3.88c6-1.4,18.82-6.81,14.5-14.87a2,2,0,0,0-2.22-.9c-2.67.6-5.14,1.69-8,1.3v3.81c5.06-1.94,12.2-4.18,15.26-9,3.5-5.52-2.23-7.39-6.69-6.29-3.36.82-6.42,2.54-9.8,3.24-6.65,1.35-11.33-2.88-17.65-3.43-8.46-.74-16.69,6.06-14.9,14.87.35,1.72,3.31,1.36,3.1-.42Z" style="fill:#44606f"/><path d="M210.13,83.69c.81,1.75,3.2,1.91,3-.57,2.14,1.14,3.53.52,5.15-.24.38-.19,1.24.26,1.8,0s.21-1.12.53-1.29a20.87,20.87,0,0,0,2.89-1.48" style="fill:#62bfe1"/><path d="M209.13,84.28c1.58,3,5.27,2.32,5.35-1.16l-2,1.17c2.63,1.28,4.33.41,7,.12a2.59,2.59,0,0,0,2.21-1.21c.18-.21.17-.6.3-.71a21.06,21.06,0,0,1,2.28-1.13c1.58-1,.12-3.5-1.47-2.51-.9.56-2.31.87-3,1.59-.31.3-.52,1.36-.73,1.5.84-.59-.83-.53-1.11-.47-1.84.38-2.41,1.14-4.4.34-.84-.34-1.7.51-1.72,1.31h-.62a1.16,1.16,0,0,0-2,1.17Z" style="fill:#44606f"/><path d="M165.61,38.41c-.24,1.29-.74,2.5-1,3.8a11,11,0,0,1-1,3.69" style="fill:#62bfe1"/><path d="M164.89,38.21c-.39,1.37-.9,2.7-1.19,4.1a8.83,8.83,0,0,1-.93,3.07c-.71,1.12,1.14,2.2,1.77,1a8.82,8.82,0,0,0,.84-3.11c.21-1.59.72-3.12,1-4.71.13-.91-1.16-1.34-1.44-.39Z" style="fill:#44606f"/><path d="M165.83,38.73c-.81,0-1.43-.59-2.17-.82-.93-.27-1.89-.26-2.83-.62-1.68-.63-1.83-2.14-.87-3.61,1.28-2,2.81-.88,4.6-.24A43.51,43.51,0,0,0,170,35.23c1.26.27,3.24.25,3.1,1.78-.11,1.22-1.35,2.15-1.4,3.44-1-.24-2-.75-3-1A27,27,0,0,1,165.83,38.73Z" style="fill:#62bfe1"/><path d="M166.11,37.72c-.73-.23-1.37-.8-2.1-1.07-.46-.17-2.55-.17-2.84-.58.07-2.09.68-2.81,1.83-2.18l.64.24,2.9,1c.9.32,1.8.66,2.72.9a7,7,0,0,1,1.75.37c1.41.88-.17,2.44-.4,3.71l1.37-.77c-1.95-.58-3.95-1-5.87-1.66-1.29-.41-1.86,1.67-.56,2,2,.54,3.88,1.23,5.84,1.78a1.12,1.12,0,0,0,1.36-.78c.39-2.1,2.82-4.63-.18-6-1.24-.56-2.85-.57-4.16-.95-1.94-.58-3.81-1.75-5.79-2.1-2.27-.41-4.08,1.61-4.11,3.81,0,3.41,4.48,3.85,7,4.22A1,1,0,0,0,166.11,37.72Z" style="fill:#44606f"/><g style="opacity:0.4"><path d="M119,90.59c0,14.13,6.22,30.54,19.81,37.55s34.06,4.34,43.23-7.77c11.66-15.38,12.91-27,4.64-44.68-5.84-12.5-21.43-20.08-35.51-19.88C131.55,56.08,122,75.34,119,90.59Z" style="fill:#29798e"/></g><g style="opacity:0.4"><path d="M207,99.33c-.84-3.8-3.14-10.4,2.8-10.67,2.42-.11,6.34,3.72,6-1.43,1.89.64,5.74,2.56,6.26-.1,2.81.62,6,2.75,8.46.08a14.13,14.13,0,0,0,10.26.82,12.12,12.12,0,0,0-5.17,1.85c-.7.43-2.39.65-2.78,1.44-.84,1.68.8,1.35.62,2.34-.89,4.68-1.35,6.15-7.3,5.2-1.09-.17-4.24-2.06-5-1.94-2.81.46-1,2.36-3,3.86C215.12,103,208.07,100.65,207,99.33Z" style="fill:#29798e"/></g><g style="opacity:0.4"><path d="M108.44,87.78c-1.55,0-3.54.24-4.86-.18a21.87,21.87,0,0,1-4.77-2.24c-2.5-1.62-5.66-4.16-9.11-5.14-2.58-.94-7.45-.93-7.84,2.18-.55,4.37,5.66,3.94,7.32,5.73,2.1,2.27,0,5.56,5,5.5A30.69,30.69,0,0,1,98,93.5c2.87.18,2-1.51,3.83-.35,1.51,1,4.37,3.45,7,4.24C108.34,94.2,107.81,91,108.44,87.78Z" style="fill:#29798e"/></g><g style="opacity:0.4"><path d="M181,131.33c.91-2.16,3.89-5,5.54-6.76,2.49-2.69,4.13-5.75,6-8.93a51.46,51.46,0,0,0,3.3-6c.43-1,.84-3.75,1.66-4.39,1.08-.84,3.27-.1,4.81-.44s3.32-.66,4.49-2c-.33,1.3.57,2.47.13,3.85a41.66,41.66,0,0,1-1.51,4.63c-1.28,2.91-4.73,5.77-6.55,8.41-2.23,3.27-6.1,5.89-9.11,8.43C187.16,130.32,184.36,132.34,181,131.33Z" style="fill:#29798e"/></g><g style="opacity:0.4"><path d="M182.66,51.11c1.46-6.53,9.8-1.2,13.07.53,10.94,5.8,3.08-4,6.87-8.18,5.32,3.93,7.08,10.76,6.18,17.14C202.12,64.25,187.61,56.33,182.66,51.11Z" style="fill:#29798e"/></g><g style="opacity:0.4"><path d="M122,37.5a14.84,14.84,0,0,0-6.74,11.21c-1.36,11.08,5.34,1,8.7-1.18C119.66,47.5,119.64,40.57,122,37.5Z" style="fill:#29798e"/></g><path d="M154.42,91.35c1.13-.79,2.65-1.3,3.91-2.08,1.59-1,3.11-2,4.73-3a85.51,85.51,0,0,1,9.64-4.39c1.28-.54,4-2.06,5.18-1.08,2,1.66-.32,3.84-1.79,4.46-3.72,1.55-7.48,3.21-11.25,4.59a34.46,34.46,0,0,0-6,2.56c-.63.38-1.94,1.28-2.73,1.23C155,93.61,155.15,93.18,154.42,91.35Z" style="fill:#62bfe1"/><path d="M154.58,91.91c3.43-1.41,6.37-3.44,9.61-5.2.78-.42,12.64-6.56,12.77-3.19.06,1.45-12.43,5.26-14,5.85-1.76.66-3.36,1.75-5.09,2.39s-1.73.21-3-.82a.58.58,0,0,0-1,.25c-.92,4.43,2.88,3.55,5.5,2.18,3.95-2.07,8.34-3.39,12.45-5.15,2.32-1,6.13-1.86,7.38-4.39,2.07-4.17-2.9-4.4-5.5-3.39-6.8,2.65-13.93,6-19.68,10.5C153.57,91.29,154.05,92.12,154.58,91.91Z" style="fill:#44606f"/><path d="M154.26,90.86c-1.9-3.13-6.51-6.11-9.7-8.06-1-.6-2.16-1.48-3.32-1.07-1.66.59-1.09,1.85-.34,2.94a23.4,23.4,0,0,0,5.95,5.3,40.58,40.58,0,0,0,3.83,2.19C152.47,93.09,152,92.47,154.26,90.86Z" style="fill:#62bfe1"/><path d="M154.92,90.68c-.58-3.74-5.88-6.61-8.8-8.37-1.53-.92-3.14-2.27-5.05-1.83a2.64,2.64,0,0,0-2.19,2.71c.25,3.79,5.92,7.17,8.8,8.86,2.56,1.51,6.23,3.26,7.24-1a.69.69,0,0,0-.66-.87c-1.17,0-1.24.53-2.2.77s-2.53-.89-3.41-1.42a30.19,30.19,0,0,1-3.72-2.6c-.54-.44-3.43-2.67-3.24-3.47.31-1.32,5.53,2.55,6.2,3,2.12,1.49,3.84,3.63,6,5A.69.69,0,0,0,154.92,90.68Z" style="fill:#44606f"/><path d="M156.22,89.72c-3.11-2.31-8.3,1.17-5.83,4.74,1.16,1.68,4.66,2.12,6.16.6A4.33,4.33,0,0,0,156.22,89.72Z" style="fill:#62bfe1"/><path d="M156.78,88.76a5.65,5.65,0,0,0-6.94.68,4.43,4.43,0,0,0,.15,6.79c2,1.68,5.71,1.92,7.65-.08a5.09,5.09,0,0,0,1.14-3.51A4.82,4.82,0,0,0,157,88.93a1.12,1.12,0,0,0-1.58,1.58,3.43,3.43,0,0,1,0,3.46c-.81.82-2.8.55-3.6-.16a1.94,1.94,0,0,1,0-2.91,3,3,0,0,1,3.79-.22C156.85,91.49,158,89.57,156.78,88.76Z" style="fill:#44606f"/><path d="M128,89.92c1.36.64,3.45.59,4.93.81s3.17.53,4.79.72a84.09,84.09,0,0,1,12.47,2.09" style="fill:#62bfe1"/><path d="M127.65,90.52c2.86,1.47,6.58,1.71,9.73,2.17,4.18.62,8.37,1.09,12.54,1.81a1,1,0,0,0,.54-1.93c-7.2-2.48-14.85-2.19-22.28-3.32-.71-.11-1.29.88-.53,1.27Z" style="fill:#44606f"/><path d="M157.19,58c.05,1.13-.09,2.67,0,3.42" style="fill:#62bfe1"/><path d="M156.17,58a19.93,19.93,0,0,0-.18,3.28,1.24,1.24,0,0,0,.87,1.14,1.11,1.11,0,0,0,.92-.12,1.19,1.19,0,0,0,.59-1c0-1.11,0-2.19-.15-3.28a1,1,0,0,0-2.05,0Z" style="fill:#44606f"/><path d="M122.17,89.07c.48.12,1,.23,1.47.32" style="fill:#62bfe1"/><path d="M121.85,90.23c.48.13,1,.25,1.46.35a1.27,1.27,0,0,0,1.52-.86A1.25,1.25,0,0,0,124,88.2c-.5-.08-1-.18-1.48-.29a1.2,1.2,0,0,0-.64,2.32Z" style="fill:#44606f"/><path d="M184.56,95.91a5.2,5.2,0,0,1,2.44.33" style="fill:#62bfe1"/><path d="M184.56,97a3.52,3.52,0,0,1,1.21.09,3.1,3.1,0,0,0,1.55.27,1.21,1.21,0,0,0,.72-1.76c-.67-1-2.38-1-3.48-.84a1.16,1.16,0,0,0-1.12,1.12A1.13,1.13,0,0,0,184.56,97Z" style="fill:#44606f"/><path d="M153.32,67.81a2.89,2.89,0,0,0,1.2-.8,3,3,0,0,0,.45-.61c0-.07.13-.15.15-.22-.1.37-1.05-.64-1.15-.26a5.49,5.49,0,0,0,0,.9,10,10,0,0,1-.09,1.23,25.47,25.47,0,0,0-.32,2.61c-.08,1.69,2.66,1.71,2.64,0,0-1.14.18-2.28.08-3.42a3.81,3.81,0,0,0-.9-2.41c-1.35-1.19-1.85,1.11-2.67,1.59s-.25,1.68.58,1.39Z" style="fill:#44606f"/><path d="M158.62,66.75c-.09-.89-.73.29-.87.57a12.93,12.93,0,0,0-.54,1.2,4.15,4.15,0,0,0-.39,2,2.41,2.41,0,0,0,3.11,1.7,1.11,1.11,0,0,0,.26-2c-.08,0-1.27-.5-1.35-.33,0,0,.36.31.22.35a2,2,0,0,1,.06-.41c.22-1,1-1.94.95-3a2.23,2.23,0,0,0-2-2.1,1.75,1.75,0,0,0-1.62,2.07c.11,1.42,2.35,1.4,2.2,0Z" style="fill:#44606f"/></svg>