<?xml version="1.0" encoding="utf-8"?>
<!-- Generator: Adobe Illustrator 19.2.1, SVG Export Plug-In . SVG Version: 6.00 Build 0)  -->
<svg version="1.1" xmlns="http://www.w3.org/2000/svg" xmlns:xlink="http://www.w3.org/1999/xlink" x="0px" y="0px"
	 viewBox="0 0 1065.8 933.5" style="enable-background:new 0 0 1065.8 933.5;" xml:space="preserve">
<style type="text/css">
	.st0{fill:#76AADB;}
	.st1{display:none;}
	.st2{fill:#F1E8EB;}
	.st3{fill:#5E8CC8;}
	.st4{fill:#D0C6E0;}
	.st5{fill:#CE8359;}
	.st6{fill:url(#SVGID_1_);}
	.st7{fill:#3A5E93;}
	.st8{fill:#4A72B2;}
	.st9{fill:#87868A;}
	.st10{fill:#E69C71;}
	.st11{fill:#EEB602;}
	.st12{fill:#E79E70;}
	.st13{fill:#704349;}
	.st14{fill:#E59D71;}
	.st15{fill:#515151;}
	.st16{opacity:0.9;}
	.st17{fill:none;stroke:#D0C6E0;stroke-width:1.077;stroke-linecap:round;stroke-linejoin:round;stroke-miterlimit:10;}
	.st18{fill:none;stroke:#D0C6E0;stroke-width:0.9778;stroke-linecap:round;stroke-linejoin:round;stroke-miterlimit:10;}
	.st19{fill:none;stroke:#D0C6E0;stroke-width:0.7583;stroke-linecap:round;stroke-linejoin:round;stroke-miterlimit:10;}
	.st20{fill:#230F12;}
	.st21{fill:#FFFFF6;stroke:#211915;stroke-miterlimit:10;}
	.st22{fill:none;stroke:#211915;stroke-linecap:round;stroke-linejoin:round;stroke-miterlimit:10;}
	.st23{fill:#938BFF;}
	.st24{fill:#FFFFFF;}
	.st25{fill:url(#SVGID_2_);}
</style>
<g id="Capa_1">
	<rect x="-1767.2" y="-129" class="st0" width="1200" height="1200"/>
	<circle class="st0" cx="-977.7" cy="242.5" r="5.5"/>
</g>
<g id="Capa_2" class="st1">
</g>
<g id="Capa_3">
	<g>
		<path class="st2" d="M-969.7,231.7c0,0-36.2,50.3-45-19.5C-1023.4,142.5-969.7,231.7-969.7,231.7z"/>
		<g>
			<path class="st3" d="M-1443,602.2L-1443,602.2c-6,10.2-12.7,21.2-23.8,25.1c-12.3,4.3-25.7-1.5-38.8-1.4
				c-27.9,0.3-47.5,26.3-71,41.4c-9.7,6.2-21.7,10.8-32.6,7c-16.3-5.7-21.2-28.3-13.1-43.5c8.1-15.2,24.9-23.7,41.5-28.2
				c16.6-4.5,37.4-9.1,41.8-25.8c2.1-8.3-0.8-17.4,1.9-25.5c3.5-10.3,15-15.6,25.8-17.3c10.8-1.7,22-1.1,32.2-4.9
				c14-5.2,23.7-18,36.5-25.7c25.7-15.4,63.2-5.3,77.7,20.9c9.6,17.4,10.1,62.9-16.2,64.7c-9.3,0.6-18.8-11.5-29-11.7
				C-1426.5,577.2-1435.2,589-1443,602.2z"/>
		</g>
		<path class="st4" d="M-922.2,620.6c16.7,4.2,45.1,5.4,59.1,15c16.2,11.1,20.4,43,26,60.8c4.6,14.6,13,33,4.9,48
			c-8.3,15.4-63.4,51.6-81.4,51c-1.9-13.6-2.3-32.1,10.5-40.2c14.5-9.2,22.5,5.3,36.2-13.9c15.4-21.7,11-68.8-17.7-78.8
			c-22.5-7.8-69,26.6-88.2,9.9C-995.6,652.4-937.8,627.5-922.2,620.6z"/>
		<path class="st2" d="M-1051.2,470c13.1-26.8,16.2-59,13.1-88.3c-3.3-32.2-25.1-64.9-23.6-97.2c1.1-24,21.1-44.1,42-54.7
			c32.6-16.6,63-6.6,95.4,3.4c23.4,7.2,45.7,9.3,69.9,11c11.7,0.8,16.9-2,26.4,7.8c14.8,15.3,8.5,43.3-5.8,55.5
			c-20.4,17.4-38.4-5-63.1,4.7c-6,2.4-14.7,7.4-20.1,10.4c-16.4,9.1-30.2,11.2-49.6,9.4c19,3,26.9,2.1,37.8-1.8
			c-17.2,17.9,16.8,74.5,23.1,93.1c13.6,39.8,38.7,98.8,25.1,141.4C-907.6,494.6-976.7,453.6-1051.2,470z"/>
		<g>
			<path class="st4" d="M-1263.8,688.6c-1.3,78-111.8,36.9-161.8,63.2c-33.2,17.4-45.6,49.7-85.8,56.6c-9.4,1.6-53.6,6.9-58.5-0.2
				c-9.3-13.6,16.3-39.7,26.7-44.2c3,40.7,80.7-17.7,90.5-25.9c29.8-25.1,73.3-29.8,97.9-58.4c9.9-11.6,15-31.6,26.3-41.2
				c12.5-10.7,28.7-7.9,45.2-8.4c12.7-0.4,33.7-5.5,39.3,9.9C-1239.9,651.7-1263.6,674-1263.8,688.6z"/>
		</g>
		<path class="st5" d="M-1231.2,285c4-2,9-4,11-8c0.8-1.2,1.3-2.6,1.6-4.1c-6.3-3.3-13,3.8-21.6-18.2c-2-5.2-18.4,7.9-22,0.3
			c3.5,11.8-6.3,14.7-15.5,19.8C-1269.8,290.7-1247,288.7-1231.2,285z"/>
		<path class="st2" d="M-1521.7,740.5c-8.2,22.9-42.8,63.2-67.1,71.3c-10.5,3.5-30.8-6.7-38.4-3.3c-7.7,3.5-20,29.5-24.5,37.5
			c49.6,8.4,89.5-10.6,117.2-46.1c31.9-40.8,44.7-47.1,93.7-51.1c79.1-6.6,155.9-87.3,174.5-165.1c24.1-101.1-97.5-114.5-148-46.1
			c-32.2,43.6-9.3,79.6-18.4,124.8C-1445.2,724.2-1509.3,688-1521.7,740.5z"/>
		<radialGradient id="SVGID_1_" cx="-991.1934" cy="623.9822" r="128.16" gradientUnits="userSpaceOnUse">
			<stop  offset="0" style="stop-color:#FFFFFF"/>
			<stop  offset="1" style="stop-color:#F1E8EB"/>
		</radialGradient>
		<path class="st6" d="M-1326.2,666c74.4,10.1,147.6,26.8,222.3,34.1c82.2,8,218.6-10.3,224.3-116.4c2.4-45.1-20.8-75.7-56-100.3
			c-47.2-32.9-93.1-29.7-146.6-18.9c-76.6,15.5-161.6,11.9-236.1,35c-16.2,5-49.5,16.5-61.5,30c-7.3,8.3,7.8,22.1,6.8,33.5
			c-1,11.5,17.2,37.8,21.8,47.8C-1343,629.2-1334.6,647.6-1326.2,666z"/>
		<path class="st7" d="M-1132.2,434.6c-22,6.9-41.9,23.1-46.6,46.3c0,0.1,0.1,0.2,0.1,0.2c1.9-4.5,4.6-8.7,8.5-12.1
			c11.5-10.7,25.8-22.6,41.4-25.3c-0.1-0.4-0.2-0.8-0.4-1.1C-1130.2,439.7-1131.2,437-1132.2,434.6z"/>
		<path class="st7" d="M-1170.9,412.6c-7.6,0.3-16.6,1.2-25.9,2.9c-3.9,2.1-11.4,0.9-22.3,4c-10.2,3-6,0.2-14.6,6.2
			c13.6-7.4,18.7-7,37-10.3c6.1-3.4,5.5-8.8,4.5-26.9c-37.6,15.6-75.1,31.1-112.7,46.7c-11.5,87.2,73.8,115.8,125.4,46.1
			c-2-27.8,15.6-50.8,40.4-59.1C-1145.4,414.5-1154.3,412-1170.9,412.6z"/>
		<path class="st8" d="M-1179.4,481.4c0.2-0.3,0.4-0.5,0.6-0.7c0,0.1,0,0.2,0.1,0.2c4.7-23.2,24.7-39.3,46.6-46.3
			c-2.1-5.1-4.3-9.2-6.9-12.4C-1163.8,430.6-1181.4,453.6-1179.4,481.4z"/>
		<path class="st9" d="M-1215.2,419.6c10.9-3.2,14.6-1.9,18.5-4c-18.2,3.3-23.5,3.3-38.2,11.9
			C-1226.3,421.5-1225.4,422.6-1215.2,419.6z"/>
		<path class="st10" d="M-1222.7,219c3.4,23.9-7.2,41.8-20.3,46.6c-15.5,5.6-31.4-16.1-38.6-32.1c-9.2-20.3,3.4-42.4,19.4-46.3
			C-1246.2,183.2-1225.9,196.4-1222.7,219z"/>
		<g>
			<path class="st11" d="M-1287.3,230.4L-1287.3,230.4c2.8,1.7,6.7,0.8,9.5,2.6c2.1,1.4,3.1,3.9,3.7,6.3c1.2,4.6,1.5,10-1.8,13.5
				c-4.1,4.4-11.2,3.2-16.8,0.9c-5.5-2.2-11.5-5.2-17.2-3.4c-4.3,1.4-23.3,4.3-27.2,6.5c-8.8,4.7-35.3-0.1-44.6-3.5
				c-16.9-6.2-34,1.6-49.7,10.4c-4,2.2-7.6,5-11.9,6.6c-4.3,1.5-9.5,1.5-12.9-1.6c-2.1-2-3.1-5-3.6-7.8
				c-2.2-13.3,6.2-27.6,18.9-32.2c4.5-1.7,10.6-3.7,10.3-8.5c-0.2-3.5-3.9-5.5-7.1-6.9c-6.7-2.9-13.4-5.8-20-8.7
				c-1.3-0.6-2.6-1.2-3.4-2.3c-1-1.4-1-3.4-0.5-5.1c2.5-8.5,13.2-12,16.9-20c2.7-5.8,1-12.6,0.7-19c-0.1-1.6-0.1-3.3,0.9-4.5
				c0.8-1.1,2.2-1.6,3.4-1.9c9.7-2.9,20.5-2.5,29.9,1.2c6.4,2.5,12.3,6.5,18.9,8.3c10.7,2.9,28.9-6.2,39.7-8.5
				c10.8-2.4,32.2-10.3,42-5.2c3.8,2,19.7,8.9,23.4,11.1c7.2,4.4,17.7,1.9,26.1,1.9c11.5,0,22.1,1.5,32,7.5
				c5.6,3.4,9.5,9.1,12.1,15.2c2.6,5.9,4.2,12.4,3.4,18.9c-0.8,6.4-5.1,12.9-10.9,15.9c-5.7-13.8-5.8-18.2-13.2-23.1
				c-3.6-2.4-6,1.7-20,0.5c-9.2-0.8-11.7-0.6-16,4.2c-4.3,4.8-1.2,14.9-7.3,17.7c-3.3,1.5-7.2,0.7-9.4,4.1
				C-1290.7,224.1-1290.3,228.6-1287.3,230.4z"/>
		</g>
		<ellipse class="st12" cx="-1280.7" cy="223.4" rx="11.8" ry="12"/>
		<path class="st13" d="M-1352.8,225c-5.5-4-9.9-9.3-12.4-16.2c-5.7-15.2-0.9-33.9-5.7-44.1c-0.6-1.2-4.1,1.6-4.1,1.6
			c-10,6.4-15.9-11.1-19.6-10.1c2.7,38.5-6.5,60.7,21.3,88.3C-1367,237.5-1359.8,231-1352.8,225z"/>
		<g>
			<path class="st3" d="M-1027.9,394.3c1.7-3.4,8.5,11.7,8.9,12.7c3.8,10,2,22.2-1.1,32c-5.9,18.4-19.5,31-35.7,38.4
				c-25.7,11.7-82.3,2.4-61-46.1c6.9-15.7,20.2-9.2,26.7-24.7c3.7-9,2.4-21.1,5-30.2c2.1-7.2,11.9-4,16-9.5
				c13.1-17.6-17-30.8-11.7-50.3c5.6-20.5,20.8-11.2,14-36c-4.3-15.5-7.8-25.2,2.7-38.2c4.6-5.7,12.9-6.9,17.8-12.6
				c5.4-6.4,5.8-19.5,13-23.9c16-9.7,25.1,7.4,41.2-8.7c10.6-10.6,1.2-30.4,20.2-27.8c17.5,2.4,13.4,44.5,7.4,51.5
				c-12,14-18,7.4-32.3,20.3c-12.2,11-39.7,0.5-38,16.7c3,28.3,12.4,27.1,0.7,46.7c15.7,5,11,31.5,8,37.3c9,4.8,10,22.3,9.8,23.2
				C-1018.9,381.6-1022.9,384.4-1027.9,394.3z"/>
		</g>
		<path class="st2" d="M-1015.2,247c0,0-13.9,60.4-49-0.5S-1015.2,247-1015.2,247z"/>
		<path class="st13" d="M-1081.7,372.4c-9.1-9.1-31-27.1-41.8-36.4c-13.2-11.4-49.7-55.3-72.4-57.8c-0.8-0.1-21.7-4.9-22.6-5.3
			c-0.4,1.5-0.8,2.9-1.6,4.1c-2,4-7,6-11,8c-15.8,3.7-38.6,5.7-46.5-10.2c-7.9,4.4-13.6-5-20.5-1.8c-22.1-1.3-36.9-35-54.6-48
			c-7,6-14.2,12.4-20.5,19.5c1.9,1.9,41.3,51.2,43.6,53c26.6,21.7,14.4,12.9,28.3,43.8c12.6,27.8,0.3,66.4-4.6,94.9
			c27.5-11.5,122.5,0.9,118.8-26c-5-36-18.4-83.1,5-83.2c12.1-0.1,83.6,64.6,93.7,71.5C-1093.5,375.2-1081,373.1-1081.7,372.4z"/>
		<circle class="st7" cx="-941.2" cy="254.3" r="6"/>
		<g>
			<path class="st11" d="M-1461.9,180.8L-1461.9,180.8c-2.4,0.7-5,0.9-7.3-0.1c-3.7-1.5-5.9-5.5-6.7-9.4c-0.9-3.8-0.6-8.2,2.3-10.7
				c4.5-4,18.1-2.7,21.8,2.3C-1446.8,169.5-1455.9,179-1461.9,180.8z"/>
		</g>
		<g>
			<path class="st11" d="M-1442.2,220.6c-0.2,1.8-2,3-3.8,3.6c-2.2,0.8-4.5,1.2-6.8,1.4c-1.3,0.1-2.6,0-3.8-0.4l0,0
				c-4.7-1.8-9.2-10.5-2-11.5C-1453.8,213-1441.6,213.6-1442.2,220.6z"/>
		</g>
		<path class="st2" d="M-1067.5,622.3c16.7,5,16.2,20.4,28.4,28.4c14.9,9.7,38,1.7,52.3-4.8c29.7-13.5,54.9-38.7,85.2-50.6
			c27.1-10.6,48.2,19.3,62,41.4c11.5,18.4,20.5,27.9,17.7,47.8c-1.8,12.7-5.5,20.8-3.6,34.1c1.7,11.5,11,34.5,26.5,30.2
			c13.1-3.6,14.8-37.6,15.2-46c1.9-33.5-17-67.7-38.9-90.9c-17.1-18.2-31.3-49.7-50.3-64.3c-32.6-25-84.1,46.1-115.7,18.4
			c-3.8-3.3-5.4-19.1-7.7-24c-5.4-11.7-12.6-22.8-23-30.6c-18.7-14.1-34.1-14.9-44.7,5.8C-1078.8,545.8-1071.3,591.5-1067.5,622.3z"
			/>
		<path class="st14" d="M-1170.2,469c-3.9,3.4-6.7,7.6-8.5,12.1c6.7,24.3,21.6,44.4,36.2,64.5c4.2,5.8,8.5,16.8,13.3,28.1
			c0.6-5.2,2.4-10,7-13.8c3.7-3.7,9-6.8,14.7-6.6c-14.6-22.5-15.1-89.4-21.3-109.7C-1144.3,446.4-1158.7,458.3-1170.2,469z"/>
		<path class="st9" d="M-1051.3,542.5c-12.5-9.6-24.1,4.7-31,11.1c-11.5,10.6-19.5,8.7-25.3-0.3c-5.7-0.2-11,2.9-14.7,6.6
			c-4.6,3.7-6.4,8.5-7,13.8c6.2,14.3,13.5,29.2,23.1,34.5c0.3-3.4,1.4-6.7,3.9-9.3c16-11,25-25,33-43c2.7-7.1,10.1-11.1,18.1-13.3
			C-1051.2,542.6-1051.2,542.6-1051.3,542.5z"/>
		<path class="st15" d="M-1051.1,542.7c-8,2.2-15.4,6.1-18.1,13.3c-8,18-17,32-33,43c-2.6,2.6-3.7,5.9-3.9,9.3
			c2.6,1.5,5.3,2.2,8,2.1c12.8-0.7,39.6-31.7,45.1-41.6C-1048.6,560.8-1041.2,550.5-1051.1,542.7z"/>
		<g class="st16">
			<path class="st4" d="M-1067.7,444.2L-1067.7,444.2c-5.6,0-11.4-0.1-16.1-2.1c-12.7-5.4-11.5-21.1-5.5-33
				c6-11.9,15.4-23.9,14.3-36c-1.4-15.4-20.6-25-39.7-24.5c-19.1,0.6-37.8,8.9-54.5,18.3c-79.8,44.8-133.5,115.2-204.6,169.4
				c-41.6,31.7-88.9,57.7-137,81.8c-4,2-8.5,4.4-9.7,8.1c-2.8,8.1,11.2,10.7,21.2,9.3c86.4-11.6,171.1-50.7,231.7-107.1
				c-28.2,27.9-56.4,55.8-84.6,83.7c22.9-0.6,45.1-10.9,65.6-21.4c24.5-12.5,48.5-25.6,72-39.4c12.7-7.5,25.7-15.5,34-26.4
				c6.5-8.6,9.6-18.5,16.4-27c6.8-8.5,19.7-15.7,30.2-12.4c6.3,2,9.9,7.1,15.5,10.1c13.8,7.2,33.7-1,49.1-9.3
				c12.1-6.5,32.9-16.9,38.6-28.5C-1021.3,437.7-1048.8,444.4-1067.7,444.2z"/>
		</g>
		<path class="st2" d="M-960.8,226.7l36.3-52l-12.2,58.8C-936.7,233.4-955.1,238.3-960.8,226.7z"/>
		<path class="st17" d="M-960.5,231.3c0,0,4.9,9.5,20.7,5.4"/>
		<path class="st18" d="M-952.2,216.3c0,0,3.7,9.3,17,4.6"/>
		<path class="st19" d="M-944.5,204.5c0,0,2.5,7.6,12.2,3.4"/>
		<path class="st20" d="M-1369.8,149.2c-0.4,1.9,1.6,5.3-12.8,3.2c-6.2-0.9-10.7-4-10.3-5.8c0.4-1.9,5.7-2.3,11.8-0.9
			S-1369.4,147.3-1369.8,149.2z"/>
		<path class="st10" d="M-1381.3,107.2c0,0-2.8-6.1-2.9-9.9c0,0-0.8-4.2,2.4-3.9c0,0,2.9,0.2,2.8,4.4c0,0,0,3.4,2.5,6.6
			L-1381.3,107.2z"/>
		<g>
			<path class="st10" d="M-1365.6,123.8c0,0-0.1,0.1-0.1,0.1c-0.6,0.4-7.2,2.5-7.9,2.6c-6.1,0.8-6.1-2.6-11.9-4.6
				c-2.3-0.8-4.6-2-7-1.8c-0.4,0-0.8,0.1-1.1,0.3c-0.7,0.4-0.9,1.4-0.9,2.3c0,4,1.6,7.7,3.5,11.2c0.6,1.2,1.3,2.4,1.6,3.7
				c0.2,1.1,0.1,2.3-0.1,3.4c-0.2,1.7-0.5,3.5-0.9,5.2c-0.2,1.2-0.5,2.4-0.2,3.6c0.4,1.3,1.5,2.3,2.7,2.8c1.2,0.6,2.6,0.7,3.9,0.9
				c2.1,0.3,4.1,0.6,6.2,0.9c1.4,0.2,2.9,0.4,4.2-0.1c2.4-1,2.7-3.9,2.8-6.2c0.1-2.1,0.5-4.2,1.8-5.9c0.8-1.2,2-2.1,3.1-3
				c2.8-2.3,5.6-4.8,6.8-8.1C-1361.9,129.4-1363.5,126.6-1365.6,123.8z"/>
		</g>
		<g>
			<path class="st21" d="M-1381.5,135l-12.8-12.2c-1.2-1.2-1.3-3.1-0.1-4.4l28.1-29.4c1.2-1.2,3.1-1.3,4.4-0.1l12.8,12.2
				c1.2,1.2,1.3,3.1,0.1,4.4l-28.1,29.4C-1378.3,136.1-1380.2,136.2-1381.5,135z"/>
			
				<ellipse transform="matrix(0.6905 -0.7233 0.7233 0.6905 -519.9872 -962.9631)" class="st21" cx="-1385.3" cy="126.1" rx="1.9" ry="1.9"/>
			<line class="st22" x1="-1359" y1="95.3" x2="-1355.6" y2="98.5"/>
			
				<rect x="-1382.6" y="94.2" transform="matrix(0.7233 0.6905 -0.6905 0.7233 -302.4139 977.6533)" class="st23" width="22.7" height="34.5"/>
			<path class="st24" d="M-1365.6,106.7l-1.2,3.9c-0.1,0.3,0,0.6,0.2,0.8l2.5,3.3c0.5,0.6,0,1.5-0.7,1.5l-4.1,0
				c-0.3,0-0.6,0.2-0.7,0.4l-2.3,3.4c-0.4,0.6-1.4,0.5-1.6-0.2l-1.3-3.9c-0.1-0.3-0.3-0.5-0.6-0.6l-4-1.1c-0.7-0.2-0.9-1.2-0.3-1.6
				l3.3-2.5c0.2-0.2,0.4-0.5,0.4-0.8l-0.1-4.1c0-0.8,0.8-1.2,1.4-0.8l3.4,2.4c0.2,0.2,0.6,0.2,0.8,0.1l3.9-1.4
				C-1366,105.3-1365.3,106-1365.6,106.7z"/>
		</g>
		<path class="st10" d="M-1381.3,106.2c1.2,2.6,0.5,5.4-1.2,6c-1.7,0.6-3.8-1-4.9-3.7c-1.8-4.4-0.5-5.4,1.2-6
			C-1384.6,101.9-1383.1,102.3-1381.3,106.2z"/>
		<path class="st10" d="M-1386.3,111.2c1,2.2,0.4,4.5-1,5.1c-1.4,0.5-3.2-0.9-4.1-3.1c-1.5-3.7-0.4-4.5,1-5.1
			C-1389,107.5-1387.8,107.9-1386.3,111.2z"/>
		<path class="st10" d="M-1390.7,115.6c0.6,2-0.2,4-1.5,4.3c-1.3,0.3-2.7-1.2-3.2-3.2c-0.8-3.4,0.2-4,1.5-4.3
			C-1392.5,112.1-1391.5,112.6-1390.7,115.6z"/>
		<g>
			<path class="st10" d="M-1358.1,123.8c0.6-3.2,2.7-6.1,3-9.4c0-0.5,0-1.1-0.4-1.4c-0.2-0.2-0.5-0.2-0.8-0.2
				c-1.9-0.1-3.6,1.2-4.7,2.7c-1.1,1.5-1.7,3.3-2.6,5c-0.4,0.7-1.3,2.8-2,3.4c2,2.8,3.7,5.6,6.5,7.1c0.1-0.3,0.2-0.6,0.3-0.9
				C-1358.3,128-1358.5,125.8-1358.1,123.8z"/>
		</g>
		<path class="st13" d="M-1389.9,145c0,0-6,1.2,1.5,3.8c0,0,13.2,3.2,17.1,2.5c0,0,2,0.2,0.9-3.1c0,0,1.9,0.1,1.2,5.2
			c0,0-1.1,5.1,0.5,9.6c0,0,1.9,2.2,1.4,6.4l-1.1,12.9l-26.1-26c0,0-0.9-1.8,1.2-2.9c0,0,0.5-0.4,0.1-3.4S-1395.1,144.9-1389.9,145z
			"/>
	</g>
	<g>
		<path class="st2" d="M780.9,230.7c0,0-36.2,50.3-45-19.5C727.2,141.5,780.9,230.7,780.9,230.7z"/>
		<g>
			<path class="st3" d="M307.6,601.2L307.6,601.2c-6,10.2-12.7,21.2-23.8,25.1c-12.3,4.3-25.7-1.5-38.8-1.4
				c-27.9,0.3-47.5,26.3-71,41.4c-9.7,6.2-21.7,10.8-32.6,7c-16.3-5.7-21.2-28.3-13.1-43.5c8.1-15.2,24.9-23.7,41.5-28.2
				c16.6-4.5,37.4-9.1,41.8-25.8c2.1-8.3-0.8-17.4,1.9-25.5c3.5-10.3,15-15.6,25.8-17.3c10.8-1.7,22-1.1,32.2-4.9
				c14-5.2,23.7-18,36.5-25.7c25.7-15.4,63.2-5.3,77.7,20.9c9.6,17.4,10.1,62.9-16.2,64.7c-9.3,0.6-18.8-11.5-29-11.7
				C324,576.2,315.3,588,307.6,601.2z"/>
		</g>
		<path class="st4" d="M828.3,619.6c16.7,4.2,45.1,5.4,59.1,15c16.2,11.1,20.4,43,26,60.8c4.6,14.6,13,33,4.9,48
			c-8.3,15.4-63.4,51.6-81.4,51c-1.9-13.6-2.3-32.1,10.5-40.2c14.5-9.2,22.5,5.3,36.2-13.9c15.4-21.7,11-68.8-17.7-78.8
			c-22.5-7.8-69,26.6-88.2,9.9C754.9,651.3,812.7,626.5,828.3,619.6z"/>
		<path class="st2" d="M699.3,469c13.1-26.8,16.2-59,13.1-88.3c-3.3-32.2-25.1-64.9-23.6-97.2c1.1-24,21.1-44.1,42-54.7
			c32.6-16.6,63-6.6,95.4,3.4c23.4,7.2,45.7,9.3,69.9,11c11.7,0.8,16.9-2,26.4,7.8c14.8,15.3,8.5,43.3-5.8,55.5
			c-20.4,17.4-38.4-5-63.1,4.7c-6,2.4-14.7,7.4-20.1,10.4c-16.4,9.1-30.2,11.2-49.6,9.4c19,3,26.9,2.1,37.8-1.8
			c-17.2,17.9,16.8,74.5,23.1,93.1c13.6,39.8,38.7,98.8,25.1,141.4C843,493.6,773.8,452.6,699.3,469z"/>
		<g>
			<path class="st4" d="M486.8,687.6c-1.3,78-111.8,36.9-161.8,63.2c-33.2,17.4-45.6,49.7-85.8,56.6c-9.4,1.6-53.6,6.9-58.5-0.2
				c-9.3-13.6,16.3-39.7,26.7-44.2c3,40.7,80.7-17.7,90.5-25.9c29.8-25.1,73.3-29.8,97.9-58.4c9.9-11.6,15-31.6,26.3-41.2
				c12.5-10.7,28.7-7.9,45.2-8.4c12.7-0.4,33.7-5.5,39.3,9.9C510.7,650.7,487,673,486.8,687.6z"/>
		</g>
		<path class="st5" d="M519.3,284c4-2,9-4,11-8c0.8-1.2,1.3-2.6,1.6-4.1c-6.3-3.3-13,3.8-21.6-18.2c-2-5.2-18.4,7.9-22,0.3
			c3.5,11.8-6.3,14.7-15.5,19.8C480.8,289.7,503.5,287.7,519.3,284z"/>
		<path class="st2" d="M228.8,739.5c-8.2,22.9-42.8,63.2-67.1,71.3c-10.5,3.5-30.8-6.7-38.4-3.3c-7.7,3.5-20,29.5-24.5,37.5
			c49.6,8.4,89.5-10.6,117.2-46.1c31.9-40.8,44.7-47.1,93.7-51.1c79.1-6.6,155.9-87.3,174.5-165.1c24.1-101.1-97.5-114.5-148-46.1
			c-32.2,43.6-9.3,79.6-18.4,124.8C305.3,723.2,241.2,687,228.8,739.5z"/>
		<radialGradient id="SVGID_2_" cx="759.3453" cy="622.9785" r="128.16" gradientUnits="userSpaceOnUse">
			<stop  offset="0" style="stop-color:#FFFFFF"/>
			<stop  offset="1" style="stop-color:#F1E8EB"/>
		</radialGradient>
		<path class="st25" d="M424.3,665c74.4,10.1,147.6,26.8,222.3,34.1c82.2,8,218.6-10.3,224.3-116.4c2.4-45.1-20.8-75.7-56-100.3
			c-47.2-32.9-93.1-29.7-146.6-18.9c-76.6,15.5-161.6,11.9-236.1,35c-16.2,5-49.5,16.5-61.5,30c-7.3,8.3,7.8,22.1,6.8,33.5
			c-1,11.5,17.2,37.8,21.8,47.8C407.6,628.2,416,646.6,424.3,665z"/>
		<path class="st7" d="M618.4,433.6c-22,6.9-41.9,23.1-46.6,46.3c0,0.1,0.1,0.2,0.1,0.2c1.9-4.5,4.6-8.7,8.5-12.1
			c11.5-10.7,25.8-22.6,41.4-25.3c-0.1-0.4-0.2-0.8-0.4-1.1C620.4,438.7,619.4,436,618.4,433.6z"/>
		<path class="st7" d="M579.7,411.6c-7.6,0.3-16.6,1.2-25.9,2.9c-3.9,2.1-11.4,0.9-22.3,4c-10.2,3-6,0.2-14.6,6.2
			c13.6-7.4,18.7-7,37-10.3c6.1-3.4,5.5-8.8,4.5-26.9c-37.6,15.6-75.1,31.1-112.7,46.7c-11.5,87.2,73.8,115.8,125.4,46.1
			c-2-27.8,15.6-50.8,40.4-59.1C605.1,413.5,596.2,411,579.7,411.6z"/>
		<path class="st8" d="M571.1,480.4c0.2-0.3,0.4-0.5,0.6-0.7c0,0.1,0,0.2,0.1,0.2c4.7-23.2,24.7-39.3,46.6-46.3
			c-2.1-5.1-4.3-9.2-6.9-12.4C586.7,429.6,569.1,452.6,571.1,480.4z"/>
		<path class="st9" d="M535.3,418.6c10.9-3.2,14.6-1.9,18.5-4c-18.2,3.3-23.5,3.3-38.2,11.9C524.2,420.5,525.1,421.6,535.3,418.6z"
			/>
		<path class="st10" d="M527.8,218c3.4,23.9-7.2,41.8-20.3,46.6c-15.5,5.6-31.4-16.1-38.6-32.1c-9.2-20.3,3.4-42.4,19.4-46.3
			S524.6,195.4,527.8,218z"/>
		<g>
			<path class="st11" d="M463.3,229.4L463.3,229.4c2.8,1.7,6.7,0.8,9.5,2.6c2.1,1.4,3.1,3.9,3.7,6.3c1.2,4.6,1.5,10-1.8,13.5
				c-4.1,4.4-11.2,3.2-16.8,0.9s-11.5-5.2-17.2-3.4c-4.3,1.4-23.3,4.3-27.2,6.5c-8.8,4.7-35.3-0.1-44.6-3.5
				c-16.9-6.2-34,1.6-49.7,10.4c-4,2.2-7.6,5-11.9,6.6c-4.3,1.5-9.5,1.5-12.9-1.6c-2.1-2-3.1-5-3.6-7.8
				c-2.2-13.3,6.2-27.6,18.9-32.2c4.5-1.7,10.6-3.7,10.3-8.5c-0.2-3.5-3.9-5.5-7.1-6.9c-6.7-2.9-13.4-5.8-20-8.7
				c-1.3-0.6-2.6-1.2-3.4-2.3c-1-1.4-1-3.4-0.5-5.1c2.5-8.5,13.2-12,16.9-20c2.7-5.8,1-12.6,0.7-19c-0.1-1.6-0.1-3.3,0.9-4.5
				c0.8-1.1,2.2-1.6,3.4-1.9c9.7-2.9,20.5-2.5,29.9,1.2c6.4,2.5,12.3,6.5,18.9,8.3c10.7,2.9,28.9-6.2,39.7-8.5s32.2-10.3,42-5.2
				c3.8,2,19.7,8.9,23.4,11.1c7.2,4.4,17.7,1.9,26.1,1.9c11.5,0,22.1,1.5,32,7.5c5.6,3.4,9.5,9.1,12.1,15.2
				c2.6,5.9,4.2,12.4,3.4,18.9c-0.8,6.4-5.1,12.9-10.9,15.9c-5.7-13.8-5.8-18.2-13.2-23.1c-3.6-2.4-6,1.7-20,0.5
				c-9.2-0.8-11.7-0.6-16,4.2c-4.3,4.8-1.2,14.9-7.3,17.7c-3.3,1.5-7.2,0.7-9.4,4.1C459.8,223.1,460.2,227.6,463.3,229.4z"/>
		</g>
		<ellipse class="st12" cx="469.9" cy="222.4" rx="11.8" ry="12"/>
		<g>
			<path class="st3" d="M722.6,393.3c1.7-3.4,8.5,11.7,8.9,12.7c3.8,10,2,22.2-1.1,32c-5.9,18.4-19.5,31-35.7,38.4
				c-25.7,11.7-82.3,2.4-61-46.1c6.9-15.7,20.2-9.2,26.7-24.7c3.7-9,2.4-21.1,5-30.2c2.1-7.2,11.9-4,16-9.5
				c13.1-17.6-17-30.8-11.7-50.3c5.6-20.5,20.8-11.2,14-36c-4.3-15.5-7.8-25.2,2.7-38.2c4.6-5.7,12.9-6.9,17.8-12.6
				c5.4-6.4,5.8-19.5,13-23.9c16-9.7,25.1,7.4,41.2-8.7c10.6-10.6,1.2-30.4,20.2-27.8c17.5,2.4,13.4,44.5,7.4,51.5
				c-12,14-18,7.4-32.3,20.3c-12.2,11-39.7,0.5-38,16.7c3,28.3,12.4,27.1,0.7,46.7c15.7,5,11,31.5,8,37.3c9,4.8,10,22.3,9.8,23.2
				C731.7,380.6,727.6,383.4,722.6,393.3z"/>
		</g>
		<path class="st2" d="M735.3,246c0,0-13.9,60.4-49-0.5S735.3,246,735.3,246z"/>
		<path class="st13" d="M668.8,371.4c-9.1-9.1-31-27.1-41.8-36.4c-13.2-11.4-49.7-55.3-72.4-57.8c-0.8-0.1-21.7-4.9-22.6-5.3
			c-0.4,1.5-0.8,2.9-1.6,4.1c-2,4-7,6-11,8c-15.8,3.7-38.6,5.7-46.5-10.2c-7.9,4.4-13.6-5-20.5-1.8c-22.1-1.3-36.9-35-54.6-48
			c-5.5-4-9.9-9.3-12.4-16.2c-5.7-15.2-0.9-33.9-5.7-44.1c-0.6-1.2-4.1,1.6-4.1,1.6c-10,6.4-15.9-11.1-19.6-10.1
			c2.7,38.5-6.5,60.7,21.3,88.3c1.9,1.9,41.3,51.2,43.6,53c26.6,21.7,14.4,12.9,28.3,43.8c12.6,27.8,0.3,66.4-4.6,94.9
			c27.5-11.5,122.5,0.9,118.8-26c-5-36-18.4-83.1,5-83.2c12.1-0.1,83.6,64.6,93.7,71.5C657,374.2,669.6,372.1,668.8,371.4z"/>
		<circle class="st7" cx="809.3" cy="261.3" r="6"/>
		<g>
			<path class="st11" d="M288.7,179.8L288.7,179.8c-2.4,0.7-5,0.9-7.3-0.1c-3.7-1.5-5.9-5.5-6.7-9.4c-0.9-3.8-0.6-8.2,2.3-10.7
				c4.5-4,18.1-2.7,21.8,2.3C303.8,168.5,294.6,178,288.7,179.8z"/>
		</g>
		<g>
			<path class="st11" d="M308.4,219.6c-0.2,1.8-2,3-3.8,3.6c-2.2,0.8-4.5,1.2-6.8,1.4c-1.3,0.1-2.6,0-3.8-0.4h0
				c-4.7-1.8-9.2-10.5-2-11.5C296.7,212,309,212.6,308.4,219.6z"/>
		</g>
		<path class="st2" d="M683,621.3c16.7,5,16.2,20.4,28.4,28.4c14.9,9.7,38,1.7,52.3-4.8c29.7-13.5,54.9-38.7,85.2-50.6
			c27.1-10.6,48.2,19.3,62,41.4c11.5,18.4,20.5,27.9,17.7,47.8c-1.8,12.7-5.5,20.8-3.6,34.1c1.7,11.5,11,34.5,26.5,30.2
			c13.1-3.6,14.8-37.6,15.2-46c1.9-33.5-17-67.7-38.9-90.9c-17.1-18.2-31.3-49.7-50.3-64.3c-32.6-25-84.1,46.1-115.7,18.4
			c-3.8-3.3-5.4-19.1-7.7-24c-5.4-11.7-12.6-22.8-23-30.6c-18.7-14.1-34.1-14.9-44.7,5.8C671.8,544.8,679.3,590.5,683,621.3z"/>
		<path class="st14" d="M580.3,468c-3.9,3.4-6.7,7.6-8.5,12.1c6.7,24.3,21.6,44.4,36.2,64.5c4.2,5.8,8.5,16.8,13.3,28.1
			c0.6-5.2,2.4-10,7-13.8c3.7-3.7,9-6.8,14.7-6.6c-14.6-22.5-15.1-89.4-21.3-109.7C606.2,445.4,591.8,457.3,580.3,468z"/>
		<path class="st9" d="M699.2,541.5c-12.5-9.6-24.1,4.7-31,11.1c-11.5,10.6-19.5,8.7-25.3-0.3c-5.7-0.2-11,2.9-14.7,6.6
			c-4.6,3.7-6.4,8.5-7,13.8c6.2,14.3,13.5,29.2,23.1,34.5c0.3-3.4,1.4-6.7,3.9-9.3c16-11,25-25,33-43c2.7-7.1,10.1-11.1,18.1-13.3
			C699.4,541.6,699.3,541.6,699.2,541.5z"/>
		<path class="st15" d="M699.5,541.7c-8,2.2-15.4,6.1-18.1,13.3c-8,18-17,32-33,43c-2.6,2.6-3.7,5.9-3.9,9.3c2.6,1.5,5.3,2.2,8,2.1
			c12.8-0.7,39.6-31.7,45.1-41.6C701.9,559.7,709.3,549.5,699.5,541.7z"/>
		<g class="st16">
			<path class="st4" d="M682.8,443.2L682.8,443.2c-5.6,0-11.4-0.1-16.1-2.1c-12.7-5.4-11.5-21.1-5.5-33s15.4-23.9,14.3-36
				c-1.4-15.4-20.6-25-39.7-24.5c-19.1,0.6-37.8,8.9-54.5,18.3C501.5,410.6,447.9,481,376.7,535.3c-41.6,31.7-88.9,57.7-137,81.8
				c-4,2-8.5,4.4-9.7,8.1c-2.8,8.1,11.2,10.7,21.2,9.3c86.4-11.6,171.1-50.7,231.7-107.1c-28.2,27.9-56.4,55.8-84.6,83.7
				c22.9-0.6,45.1-10.9,65.6-21.4c24.5-12.5,48.5-25.6,72-39.4c12.7-7.5,25.7-15.5,34-26.4c6.5-8.6,9.6-18.5,16.4-27
				s19.7-15.7,30.2-12.4c6.3,2,9.9,7.1,15.5,10.1c13.8,7.2,33.7-1,49.1-9.3c12.1-6.5,32.9-16.9,38.6-28.5
				C729.3,436.7,701.7,443.4,682.8,443.2z"/>
		</g>
		<path class="st2" d="M789.8,225.7l36.3-52l-12.2,58.8C813.8,232.4,795.5,237.3,789.8,225.7z"/>
		<path class="st17" d="M790.1,230.3c0,0,4.9,9.5,20.7,5.4"/>
		<path class="st18" d="M798.3,215.3c0,0,3.7,9.3,17,4.6"/>
		<path class="st19" d="M806,203.5c0,0,2.5,7.6,12.2,3.4"/>
		<path class="st20" d="M380.7,148.2c-0.4,1.9,1.6,5.3-12.7,3.2c-6.2-0.9-10.7-4-10.3-5.8c0.4-1.9,5.7-2.3,11.8-0.9
			C375.6,145.9,381.1,146.3,380.7,148.2z"/>
		<path class="st10" d="M369.3,106.2c0,0-2.8-6.1-2.9-9.9c0,0-0.8-4.2,2.4-3.9c0,0,2.9,0.2,2.8,4.4c0,0,0,3.4,2.5,6.6L369.3,106.2z"
			/>
		<g>
			<path class="st10" d="M385,122.8c0,0-0.1,0.1-0.1,0.1c-0.6,0.4-7.2,2.5-7.9,2.6c-6.1,0.8-6.1-2.6-11.9-4.6c-2.3-0.8-4.6-2-7-1.8
				c-0.4,0-0.8,0.1-1.1,0.3c-0.7,0.4-0.9,1.4-0.9,2.3c0,4,1.6,7.7,3.5,11.2c0.6,1.2,1.3,2.4,1.6,3.7c0.2,1.1,0.1,2.3-0.1,3.4
				c-0.2,1.7-0.5,3.5-0.9,5.2c-0.2,1.2-0.5,2.4-0.2,3.6c0.4,1.3,1.5,2.3,2.7,2.8c1.2,0.6,2.6,0.7,3.9,0.9c2.1,0.3,4.1,0.6,6.2,0.9
				c1.4,0.2,2.9,0.4,4.2-0.1c2.4-1,2.7-3.9,2.8-6.2c0.1-2.1,0.5-4.2,1.8-5.9c0.8-1.2,2-2.1,3.1-3c2.8-2.3,5.6-4.8,6.8-8.1
				C388.7,128.4,387,125.6,385,122.8z"/>
		</g>
		<g>
			<path class="st21" d="M369.1,134l-12.8-12.2c-1.2-1.2-1.3-3.1-0.1-4.4L384.2,88c1.2-1.2,3.1-1.3,4.4-0.1l12.8,12.2
				c1.2,1.2,1.3,3.1,0.1,4.4l-28.1,29.4C372.2,135.1,370.3,135.2,369.1,134z"/>
			
				<ellipse transform="matrix(0.6905 -0.7233 0.7233 0.6905 22.5397 302.9564)" class="st21" cx="365.3" cy="125.1" rx="1.9" ry="1.9"/>
			<line class="st22" x1="391.5" y1="94.3" x2="394.9" y2="97.5"/>
			
				<rect x="368" y="93.2" transform="matrix(0.7233 0.6905 -0.6905 0.7233 181.2016 -231.3621)" class="st23" width="22.7" height="34.5"/>
			<path class="st24" d="M385,105.7l-1.2,3.9c-0.1,0.3,0,0.6,0.2,0.8l2.5,3.3c0.5,0.6,0,1.5-0.7,1.5l-4.1,0c-0.3,0-0.6,0.2-0.7,0.4
				l-2.3,3.4c-0.4,0.6-1.4,0.5-1.6-0.2l-1.3-3.9c-0.1-0.3-0.3-0.5-0.6-0.6l-4-1.1c-0.7-0.2-0.9-1.2-0.3-1.6l3.3-2.5
				c0.2-0.2,0.4-0.5,0.4-0.8l-0.1-4.1c0-0.8,0.8-1.2,1.4-0.8l3.4,2.4c0.2,0.2,0.6,0.2,0.8,0.1l3.9-1.4
				C384.5,104.3,385.2,105,385,105.7z"/>
		</g>
		<path class="st10" d="M369.2,105.2c1.2,2.6,0.5,5.4-1.2,6s-3.8-1-4.9-3.7c-1.8-4.4-0.5-5.4,1.2-6
			C366,100.9,367.5,101.3,369.2,105.2z"/>
		<path class="st10" d="M364.2,110.2c1,2.2,0.4,4.5-1,5.1s-3.2-0.9-4.1-3.1c-1.5-3.7-0.4-4.5,1-5.1
			C361.5,106.5,362.8,106.9,364.2,110.2z"/>
		<path class="st10" d="M359.9,114.6c0.6,2-0.2,4-1.5,4.3c-1.3,0.3-2.7-1.2-3.2-3.2c-0.8-3.4,0.2-4,1.5-4.3
			C358,111.1,359.1,111.6,359.9,114.6z"/>
		<g>
			<path class="st10" d="M392.5,122.8c0.6-3.2,2.7-6.1,3-9.4c0-0.5,0-1.1-0.4-1.4c-0.2-0.2-0.5-0.2-0.8-0.2
				c-1.9-0.1-3.6,1.2-4.7,2.7c-1.1,1.5-1.7,3.3-2.6,5c-0.4,0.7-1.3,2.8-2,3.4c2,2.8,3.7,5.6,6.5,7.1c0.1-0.3,0.2-0.6,0.3-0.9
				C392.2,127,392.1,124.8,392.5,122.8z"/>
		</g>
		<path class="st13" d="M360.6,144c0,0-6,1.2,1.5,3.8c0,0,13.2,3.2,17.1,2.5c0,0,2,0.2,0.9-3.1c0,0,1.9,0.1,1.2,5.2
			c0,0-1.1,5.1,0.5,9.6c0,0,1.9,2.2,1.4,6.4l-1.1,12.9l-26.1-26c0,0-0.9-1.8,1.2-2.9c0,0,0.5-0.4,0.1-3.4S355.5,143.9,360.6,144z"/>
	</g>
</g>
</svg>
