<svg xmlns="http://www.w3.org/2000/svg" viewBox="0 0 800 300"><title>cta-bg</title><path d="M-13.14,143.41C-3,143,6.48,139.15,16.38,137.2a173.61,173.61,0,0,1,35.28-3.59,208.22,208.22,0,0,1,31.63,2.75c10.24,1.67,19.92,4.88,30,7.17,1.73.39,3-2.19,1.27-3C105.8,136.46,95.44,134.67,86,133a217.42,217.42,0,0,0-31.79-3.2,169.46,169.46,0,0,0-33.12,2.64c-11.45,2-22.63,6.6-34.24,7.36-2.28.15-2.32,3.68,0,3.58Z" style="fill:#e7e6e5"/><path d="M108.5,133c1.83,2.66,3.64,5.34,5.61,7.9l.28-2.19c-3.49,3.23-9.31,4-12.31,7.62-1,1.17-.1,3.43,1.64,2.81,2.4-.86,4.67-2.48,6.93-3.68a28,28,0,0,0,6.29-4.19,1.86,1.86,0,0,0,0-2.56c-1.91-2.42-3.74-4.9-5.59-7.37-1.25-1.67-4.07-.12-2.85,1.66Z" style="fill:#e7e6e5"/><path d="M-9.95,79.67c13.73,1.61,28.26-6.39,38.7-14.52A64.69,64.69,0,0,0,43.18,50c3.06-4.65,6.8-11.71,5.27-17.45a1.57,1.57,0,0,0-3,0c-.81,2.62-.91,5.35-1.83,8A36,36,0,0,1,39.11,49,62.51,62.51,0,0,1,24.67,63.3C14.9,70.47,2.48,76.74-9.95,76.22c-2.26-.1-2.15,3.2,0,3.45Z" style="fill:#e7e6e5"/><path d="M39.6,36.64c4.75-1.19,7.09-5,9.46-8.94L46,28.09c2.38,2.38,3.09,5.25,4,8.38.56,2,4,1.69,3.73-.51a18,18,0,0,0-4.93-10.64,2,2,0,0,0-3.09.4c-1.82,3-3.4,6.29-7.07,7.27-2.35.63-1.36,4.24,1,3.65Z" style="fill:#e7e6e5"/><path d="M-6.08,132.3C-7.57,121-8.88,110.17-11.9,99.21l-1.28,2.25,6.58-2c1.57-.47,3.16-.88,4.71-1.4.65-.22,2.59-.52,1-.55,2.19,0,4.7,1,6.82,1.5,1.85.41,6.37,2.36,8.14,1.81.89-.27-.38-.94-.49-.68s.55,1.89.66,2.24q1.26,4.33,2.54,8.66c1.32,4.43,3.34,10.57,4.41,14.11.64,2.1,3.94,1.2,3.3-.91-.9-3-2.5-8.85-3.7-12.76-1.3-4.23-2.63-8.46-3.93-12.69a1.75,1.75,0,0,0-1.23-1.23c-5-1.08-10.52-3.28-15.57-3.46-4.49-.16-9.9,2.57-14.23,3.82a1.87,1.87,0,0,0-1.27,2.26c2.79,10.63,4.11,20.57,5.63,32.11.31,2.34,4,2.37,3.72,0Z" style="fill:#e7e6e5"/><path d="M36.57,123.69c-2-15.14-4.59-30-7.89-44.9L27.5,80.87c5.12-2,10.43-4.79,15.75-6.08,3-.72,9.13.8,13.15,1.34L54.8,74.9c2.16,15,3.23,31.21,4.67,46.21.24,2.45,4.1,2.48,3.86,0C61.82,105.35,60.26,89.69,58,74c-.12-.78-.94-1.13-1.61-1.22-4.17-.55-9.53-2.31-13.61-1.38-5.46,1.24-10.95,4.18-16.19,6.19a1.74,1.74,0,0,0-1.18,2.08c3.22,14.76,5.41,29.55,8,44.42.31,1.74,3.36,1.36,3.12-.42Z" style="fill:#e7e6e5"/><path d="M76.84,117c.71-5.44-.73-11.32-1.48-16.71s-1.85-12.23-2.37-17c-1.13-10.4-2.06-22.53-3.4-33.54l-2.42,1.84c6.73,1.18,13.45,2.6,20.21,3.55a50.23,50.23,0,0,0,9.24.59c.75,0,2.25.56.9-.32s-.18.37,0,1a31.08,31.08,0,0,0,3.23,5.76c1.11,1.64.26-.46.47,1s.28,2.88.42,4.31c.44,4.52.92,9,1.38,13.55.54,5.21,1.14,10.41,1.44,15.64l.86,14.55c.13,2.28.24,4.57.4,6.84,0,.67.1,1.33.17,2,0,.27.15,1.65.1.87.14,2.41,3.91,2.43,3.77,0-.76-12.84-1.32-25.66-2.65-38.46-.5-4.73-1-9.47-1.49-14.2-.24-2.18-.15-4.81-.91-6.89-.84-2.28-3.07-7-4.91-8.58-2.2-1.86-7.33-1-10.06-1.18-5.91-.34-14.7-2.46-21.6-3.7-1.08-.2-2.58.5-2.42,1.84,1.31,11.34,2.16,22.74,3.48,34.07.66,5.66,1.66,11.3,2.5,16.94.81,5.48,1.12,11.57,3.38,16.68.41,1,1.61.31,1.71-.46Z" style="fill:#e7e6e5"/><path d="M740.53,164a18.14,18.14,0,0,0-5,2c-1.87,1.13,0,4.14,1.69,2.89a14.24,14.24,0,0,1,4.06-2.05,1.48,1.48,0,0,0-.79-2.85Z" style="fill:#e7e6e5"/><path d="M692.1,206.12c0-6.42-6.67-10.28-9.62-15.38-4.68-8.09-2.38-17.59,5.64-22.46,11-6.66,31.82-5.85,35.2,9,1.86,8.17-2.68,12.38-8.58,17a39.49,39.49,0,0,0-6,5.28c-2,2.31-3.17,6.49-6.15,7.55-4.52,1.61-10-1.5-14.4,1.2a4.85,4.85,0,0,0-2,6.74c3.94,7.31,15.94,7.09,18.61-.88a2,2,0,0,0-1.38-2.44c-6.19-2.14-15.67,1.82-18.24,7.91a2.06,2.06,0,0,0,.71,2.71c4.63,3.44,11,6.34,15.84,1.86,2.89-2.67,4.19-7.28-.69-8.39-2.49-.57-3.55,3.26-1.06,3.83.68.15-.59,1.28-.69,1.42-.83,1.26-2.24,1.43-3.56,1.41-2.9,0-5.6-1.88-7.84-3.55l.71,2.71c1.92-4.53,9.11-7.7,13.76-6.09L701,213.1c-.89,2.65-2.92,3.6-5.6,3.24-1.49-.2-5.13-1.34-5.63-3.05-1-3.44,10.73-1.88,13-2.24,5.64-.9,7.16-7.49,11-10.93s9-6.16,11.82-10.76c5.88-9.58-.17-22.75-10-26.74-10-4.05-24.14-2.66-32.46,4.37-5.14,4.35-8.17,11.4-7,18.13a24.64,24.64,0,0,0,4.7,10.21c2.37,3.23,7.66,6.56,7.92,10.79.14,2.11,3.31,2.15,3.32,0Z" style="fill:#e7e6e5"/><path d="M694.35,204.49c5.36-5.87,4.71-19.34.61-25.74a1.83,1.83,0,0,0-2.85-.36c-3.3,3.42-3.6,9.16,2.11,10.16,6,1,9.62-4.36,9.88-9.62.09-1.72-2.59-2.53-3.35-.9-2.34,5.06,2.22,14.15,7.85,8.73L706,184.19c-5.87,6.14-3.62,15.31-5.27,22.94-.41,1.88,2.32,3.28,3.27,1.38,3.38-6.79-1.06-15.82,4.57-21.75a1.82,1.82,0,0,0-2.57-2.57q-3.75-.84-2.17-4.35l-3.35-.91a6.24,6.24,0,0,1-1.67,4.69q-6.2,4.22-4.16-2.67l-2.86-.36c3.39,5.3,4.07,17,.52,22.34a1.29,1.29,0,0,0,2,1.56Z" style="fill:#e7e6e5"/><path d="M671.9,207.56a8.54,8.54,0,0,0,3.1-3.27,1.3,1.3,0,1,0-2.24-1.31,7.7,7.7,0,0,1-2.11,3c-.91.76.26,2.21,1.25,1.62Z" style="fill:#e7e6e5"/><path d="M663.5,194.2c1.9-.9,3.81-1.79,5.66-2.79s.12-4-1.66-2.83-3.54,2.25-5.36,3.3c-1.51.88-.18,3.05,1.36,2.32Z" style="fill:#e7e6e5"/><path d="M662.91,171.56a16.62,16.62,0,0,1,2.56.92c.81.35,1.77,1,2.68.64a1.41,1.41,0,0,0,.83-2c-.48-.88-1.59-1.09-2.47-1.37a19.38,19.38,0,0,0-2.89-.72c-1.64-.23-2.41,2.14-.71,2.56Z" style="fill:#e7e6e5"/><path d="M673.14,155.23c1,1.5,1.84,3.13,2.77,4.69,1.06,1.78,3.92,0,2.74-1.6s-2.2-3.2-3.47-4.66c-1-1.09-2.89.36-2,1.57Z" style="fill:#e7e6e5"/><path d="M689.7,146.44l-.3,5.06c-.11,1.81,2.92,1.81,2.81,0l-.33-5.06a1.09,1.09,0,0,0-2.18,0Z" style="fill:#e7e6e5"/><path d="M711.49,144.49c-.84,2.44-2.12,4.9-2.42,7.47a1.3,1.3,0,0,0,2.21.91c1.68-2.16,2.22-5,2.94-7.62a1.42,1.42,0,0,0-2.73-.76Z" style="fill:#e7e6e5"/><path d="M727.43,153.85a6.59,6.59,0,0,1-2.12,2.21,1.57,1.57,0,0,0-.7,1.72,1.53,1.53,0,0,0,.7.91,1.45,1.45,0,0,0,1.54,0,7.39,7.39,0,0,0,2.69-3.94,1.16,1.16,0,0,0-2.11-.9Z" style="fill:#e7e6e5"/><path d="M735.11,183.14c2.23,2.62,6,1.88,9,2.77,2.15.64,3.1-2.87.92-3.35-2.76-.61-5.86.12-8.34-1.43-1.3-.82-2.46,1-1.56,2Z" style="fill:#e7e6e5"/><path d="M735.1,197.55a21.31,21.31,0,0,1,4.83,1.37c1.4.59,2.75,1.71,4.25,2a1.55,1.55,0,0,0,1.73-2.25c-.9-1.51-2.7-2.18-4.26-2.83a22.65,22.65,0,0,0-5.64-1.58c-2.15-.3-3.12,3-.91,3.33Z" style="fill:#e7e6e5"/><path d="M727.35,204.19a6.41,6.41,0,0,0,3.9,2.78,1.63,1.63,0,0,0,1.75-.71,1.42,1.42,0,0,0,.16-1.2,1.57,1.57,0,0,0-1.09-1.09,4,4,0,0,1-2.53-1.46c-1-1.17-3.13.4-2.19,1.68Z" style="fill:#e7e6e5"/><path d="M726.12,279.77a26,26,0,0,0-14.48,9.49c-2.34,3-6.71,8.31-6,12.51,1.75,10.05,21.08,5.11,27.51,5.15s20.06.41,17.09-9.87c-2.5-8.69-15.29-15.23-23.33-17.28a1.53,1.53,0,0,0-1.17,2.78c6,3.56,12.85,6.16,17.79,11.27,2.47,2.56,5,6.76.46,8.4-3.12,1.11-7,.76-10.31.75a76,76,0,0,0-8.91.53c-3.89.43-10,1.6-13.42-.77-3.86-2.66,1-8.44,3.11-11.27a23,23,0,0,1,12.45-8.76A1.52,1.52,0,0,0,726.12,279.77Z" style="fill:#e7e6e5"/><path d="M725.46,280.76c-5.13-2.49-11.06-3.15-12.63-9.66-1.7-7,3.55-14.42,11.19-12.83,11.2,2.32,9.58,18.42.6,22.49-.93.43-.2,1.63.64,1.52,14.4-2,12-25.75-1.67-27.14-7.56-.77-13.56,4.68-14,12.12A14.17,14.17,0,0,0,713,277.63c3.3,3.67,7.43,3.32,11.82,4.65C725.7,282.55,726.31,281.18,725.46,280.76Z" style="fill:#e7e6e5"/><path d="M77.81,241.68c-7.32-9.74-20.78-8-30.27-2.52-7.46,4.27-17,14.34-10,23.07,5.39,6.74,18.7,3.19,26,3.1,4.65-.05,10.84-.14,14.52,3.25,4.26,3.93,3.18,12.22-.38,16.22-8.68,9.74-31.37,7-40.28-1.15a1.87,1.87,0,0,0-2.65,2.65c13.14,13.43,56.55,11.81,49.35-14.94-2.68-10-14.79-10.18-23.17-9.87-6.37.24-25.83,3.84-21.53-8.82,4.4-13,26.75-20.17,36.23-9.34,1,1.14,3.07-.41,2.14-1.65Z" style="fill:#e7e6e5"/><path d="M48.82,225.79c5.54,12.59,7,26.93,7.89,40.51.85,12.65-.1,25.32.58,37.93a1.84,1.84,0,0,0,3.67,0c1.61-13.24.55-27.63-.61-40.87s-3.15-27-9-39.05c-.83-1.72-3.29-.22-2.54,1.48Z" style="fill:#e7e6e5"/><path d="M59.35,225.81c11.28,26.27,8.9,56.31,10.28,84.18a1.88,1.88,0,0,0,3.75,0,341.82,341.82,0,0,0-1.74-45.58c-1.37-13.73-3.77-27.57-9.61-40.17-.85-1.84-3.46-.24-2.68,1.57Z" style="fill:#e7e6e5"/><path d="M796.44,31.79C758.73,17.44,722.78,74,745,104.72c12.47,17.21,40.92,21.84,59.75,13.71,17.32-7.48,26.37-26.09,25.87-44.38-.56-20.56-12.88-39.3-34.18-42.26-1.47-.21-2.15,2-.63,2.27,34.53,6.45,41.29,57.7,14.05,77-15.94,11.3-42.83,9.17-57.29-3.78-13.81-12.38-12.19-32.82-4.45-48.07,8.79-17.32,27.46-32.36,47.69-25.17C797.25,34.57,797.84,32.32,796.44,31.79Z" style="fill:#e7e6e5"/><path d="M772.93,57.91a4.66,4.66,0,0,0-1.15,2.67,1.89,1.89,0,0,0,1.15,1.71,2.49,2.49,0,0,0,1.86-.07,1.58,1.58,0,0,0,1.07-1.89A1.57,1.57,0,0,0,774,59.26c.36-.06-.12,0-.11,0l.25,0a1,1,0,0,1,.71.62,1.18,1.18,0,0,1,.19.89c.06-.28-.2.34,0,0a12.75,12.75,0,0,1,.83-1.24,1.67,1.67,0,0,0-.6-2.29,1.73,1.73,0,0,0-2.29.6Z" style="fill:#e7e6e5"/><path d="M765.28,78.94c3.76,12.19,17.9,17.56,29.37,12.82,1.63-.67.91-3.35-.73-2.66-10.07,4.24-22.75.09-26.2-10.83-.49-1.55-2.92-.89-2.44.67Z" style="fill:#e7e6e5"/><path d="M351.94,35.61c.09,0,.23-.16.15-.2l-.3.15Z" style="fill:#e7e6e5"/><path d="M352.1,34.8a1.1,1.1,0,0,0-.69.33c.32-.12.22,0,.59-.16.08,0,0,.18-.11.24.09,0,0,.15.22.06.14-.24.06-.36-.19-.34C352,34.86,352.05,34.83,352.1,34.8Z" style="fill:#e7e6e5"/><path d="M347.66,28v.06A.06.06,0,0,0,347.66,28Z" style="fill:#e7e6e5"/><path d="M344.8,23.88a.06.06,0,0,0,.09,0S344.82,23.86,344.8,23.88Z" style="fill:#e7e6e5"/><path d="M344.58,23l0,.05S344.61,23,344.58,23Z" style="fill:#e7e6e5"/><path d="M347.66,28v-.17C347.57,27.89,347.64,27.94,347.66,28Z" style="fill:#e7e6e5"/><path d="M350.79,34.38a.14.14,0,0,0,.11,0l-.07,0Z" style="fill:#e7e6e5"/><path d="M349.2,29.62l0,0,.13-.06Z" style="fill:#e7e6e5"/><path d="M350.26,30.94s-.25.12-.35.19c.1-.06.16-.07.2-.05Z" style="fill:#e7e6e5"/><path d="M351.48,33.4h0Z" style="fill:#e7e6e5"/><path d="M348.52,28.61l.08-.08Z" style="fill:#e7e6e5"/><path d="M343.93,21.5h0C344,21.53,344,21.51,343.93,21.5Z" style="fill:#e7e6e5"/><path d="M335.15,10.11c-.1.28-.42,0-.49.34C334.73,10.37,335.14,10.37,335.15,10.11Z" style="fill:#e7e6e5"/><path d="M350.79,34.33l0-.06A.15.15,0,0,0,350.79,34.33Z" style="fill:#e7e6e5"/><path d="M334.66,10.45h0v0Z" style="fill:#e7e6e5"/><path d="M341.64,18.71a.38.38,0,0,0-.08.11Z" style="fill:#e7e6e5"/><path d="M342.93,21.11V21A.1.1,0,0,0,342.93,21.11Z" style="fill:#e7e6e5"/><path d="M340.48,17.83s0-.07,0-.09l0,0S340.49,17.77,340.48,17.83Z" style="fill:#e7e6e5"/><path d="M339.61,16.67l0,0,0,0Z" style="fill:#e7e6e5"/><path d="M350.92,34.29l-.13,0,0,0Z" style="fill:#e7e6e5"/><path d="M338.67,19.11l-.11-.21A.61.61,0,0,0,338.67,19.11Z" style="fill:#e7e6e5"/><path d="M327.44,3.65l-.06,0A0,0,0,0,0,327.44,3.65Z" style="fill:#e7e6e5"/><path d="M338.12,18.38a.4.4,0,0,0,.08-.22l-.08,0Z" style="fill:#e7e6e5"/><path d="M319.88-5.71c.12.18.35-.13.55-.22.24.15-.15.26-.25.44.18.08.53,0,.59.08s0,.08-.12.1c.33,0,.32.4.73.34a.28.28,0,0,1-.06.08,2.64,2.64,0,0,1,.39-.33c.07.08.3,0,.13.18,0,0-.11,0-.19,0l.14,0c-.22.28-.18,0-.38.11.21.09.58.11.59.29-.25.23-.3-.22-.42.13l0-.27c-.32.47-.06-.14-.42.34.11.31.35.18.46.49.19-.06.21-.19.4-.25.54.16-.47.8.09.79.23-.07.59-.3.55,0l-.35.17c.15.27.54-.19.53.22-.16,0-.25-.12-.26,0-.12.34.27,0,.36.11l-.25.23c.23.23.65.37.91.62-.09,0-.21.06-.25.19A1.89,1.89,0,0,1,324-.58l.33-.05s-.06.14-.13.14c0,.2.15-.1.3-.11s-.06.21-.17.21c.38.09.94.36.88.81h-.11c.05.27.65-.14.57.21h-.07c.22.5.79.81.68,1.4.38-.19.16.54.66.22,0,.42-.19.41-.09.87.05.11.4-.08.53,0l-.24.19.37,0-.23.31.14.05c0-.05,0-.17.12-.22.24.09.13.54,0,.64l.5.24c-.1.06-.19,0-.29,0,.41,0-.23.23.14.25,0-.07.16-.1.21-.13a.5.5,0,0,0,.27.54l-.19.1c.18.32.54.55.79.89,0-.18.3-.37.4-.3l-.23.23c.21,0,0-.17.32-.19.06.14-.24.3-.38.3l.21.08c-.08.07-.14.06-.25.13.21-.06-.07.45.28.33l-.07.06a8.47,8.47,0,0,0,.65.67c.23-.16.26,0,.5-.07.08.25.06.6.26.82s.23-.1.42-.12c-.2.16,0,.39-.24.37a2,2,0,0,0,.75.57c.05-.1.05-.17.14-.2s0,.21-.08.28h0c.61.18.1,1.38.76,1.38h0l.47.17c.08.18-.22,0-.26.23.61.1.37.6.82.73-.43.68.65.78.49,1.38l.13-.13c.2,0,0,.16,0,.24.1-.09.06-.18.17-.19.68.55.84,1.56,1.23,2.35.15.28.85-.41.74.16l-.33.11c.7.28.77,1.06,1.42,1.36-.09,0-.17.07-.2,0-.11.25.28.4.44.28,0,.09-.13.13-.17.24s.44.08.29.28c0,0-.08,0-.11,0,.15,0,.22.34.39.1,0,.27.37.29.35.54.32-.09.12.41.49.18-.37.26,0,.55.22.54-.14,0,0,.19-.22.25a.26.26,0,0,0,.43.05c-.25.57.73.24.28.8a6.71,6.71,0,0,1,1.26.83c-.37.25-.34-.38-.7-.08.4.24.86.2,1,.61,0,.12-.2.06-.28.08.41.23.46.69.89.85a.24.24,0,0,1-.15,0c.06,0,.05.18.21,0l-.08,0c.16-.27.67-.13.81-.21-.55.25.1.39-.61.67a.31.31,0,0,0,.28-.08c0,.08,0,.15-.21.18.25.15.37-.06.51.14-.08.06-.14,0-.25.09.23,0,.46,0,.52.18-.06,0-.11.1-.14.05.23.26.77.17.85.59-.41.17,0,.2-.32.44l.22.1.09-.18c.11.15.42.12.42.32l-.21,0,.27.23v-.24c.27,0,.37-.3.43,0-.06,0,.11.15,0,.36h0c.15,0,.3,0,.31.16s-.35.23-.4.29c.31-.11.33.3.66.19a.64.64,0,0,0-.26.16l.24-.09c0,.12,0,.15-.17.24.12.23.33-.35.35,0,0,0-.05,0-.11,0,.09.31.48.37.54.67-.25.29-.22-.14-.41.13.29.28.86.4,1,.76v-.08c.46-.27,0,.39.28.4-.06,0-.27.12-.22.1.1.26.44.36.81.58l-.14,0c0,.2.2.38.25.55.14,0,.18.05.3-.12-.31.89.93.56.69,1.32,0-.05-.17,0-.14,0l.33.24c.17-.16.08-.12.18-.3a.34.34,0,0,1,.35.06c-.23-.05-.3.23-.35.37,0-.06.12-.08.18-.13-.21.41.39-.25.34.14l-.11.06c.11.05.3,0,.34.14-.18.2-.17,0-.35.11.11.12.6-.05.47.23-.1,0-.16-.09-.26-.1-.15.32-.08.28-.05.41v0l.05.31,0-.11c.67-.26.34.25.87.19-.5.05-.23.12-.48.28,0,.11,0,.25-.13.28.28,0,0,.28.37.21-.07.07.08.12-.14.24.16.09.11-.13.22-.19.42,0,0,.72.62.74.34.14.64,0,.95.13-.06.17-.33.15-.33.15,0,.21.07.29.25.35-.08,0-.12.09-.18.19s.33-.14.31.07a2,2,0,0,1-.39.14c.16.06.39.06.55.13-.11.13-.26.08-.38.11.16.08.38.25.63.13v-.14c.05,0-.16.16-.23.15-.26,0-.05-.22,0-.28l.12,0c.39-.42-.33-.28-.43-.47l.39-.18-.41,0c.06-.11.23-.27.34-.22.07-.25-.2,0-.1-.27,0,0,0,0,.07,0l-.19,0c.08,0,.22-.19.22-.09,0-.35-.5-.15-.31-.42h0c-.33-.21-.26.15-.72.15l.49-.6-.26.15s0-.11.06-.17c-.25,0-.09.1-.3.15.12-.32-.4-.33,0-.66-.22.09,0,.25-.28.19.38-.36-.21-.13-.12-.4.25-.12.23.09.32-.19-.43.19-.11-.32-.27-.38-.29.21-.31-.16-.54-.28.1-.06-.11-.47-.14-.73l.05,0c-.32.19-.4,0-.56-.13a.57.57,0,0,1,.4-.14l-.09-.12a.29.29,0,0,1-.29,0l.24-.13c-.14-.16-.51-.14-.52-.47-.22.15-.44.6-.75.48.1-.09.29-.24.38-.22s-.15,0-.13-.07l.25,0c0-.16-.19.06-.23,0,.16-.12.07-.14.2-.22s0,.11.07.1a.52.52,0,0,1,.07-.41c-.08.07-.21.16-.28.11s.15-.2.16-.36c-.14,0-.11-.15-.35,0,0,0,.07-.14.12-.2-.17,0-.33-.38-.51-.1v0h0c-.44-.11-.3-.69-.61-.89l.08-.06c-.22-.1-.33-.33-.59-.32,0-.05.05-.23.16-.28-.15-.08-.25,0-.26-.31.24,0,.09-.14.2.06-.06-.22,0-.35-.31-.37.25-.09.17-.32.05-.35l-.06.23a.53.53,0,0,1-.18-.25l.3-.16c.07-.58-1-.2-.66-.87-.26.05,0,.29-.27.37-.08-.18.18-.63.14-.68,0-.33-.54.09-.6-.21-.08.1-.31.32-.53.22s.26-.49.41-.45a.05.05,0,0,1,0,.09c.08,0,.17.06.22-.08l-.11.05c0-.15-.13-.35.07-.42-.18-.05-.2.07-.18.19,0-.3-.23-.32-.29-.59,0,.07-.12.19-.14.15-.11-.39-.28,0-.48-.17.06-.23.38-.22.1-.33,0-.2.23-.22.35-.23-.32-.05-.14-.44-.19-.57l.15,0a.26.26,0,0,1-.16-.12l-.15.2c0-.09,0-.14,0-.2-.16,0-.28.29-.54.29,0-.14-.28-.15,0-.37.09.31.23-.22.42,0a.16.16,0,0,1-.1-.15.09.09,0,0,1,.08,0c.05-.4-.36.11-.54-.14.17-.07.23-.25.17-.27s-.2.22-.38.22c0-.24-.21-.11-.25-.2v.13c-.16.07-.2,0-.33-.09.11-.09.15,0,.17,0-.34.07.06-.46-.24-.5,0-.15.27-.21.28-.33-.32-.05,0-.35-.26-.43-.15.2-.09.18-.38.18l.38.22h-.44c.07.1.28.12.29.2-.23,0-.18,0-.3.16.19-.35-.37-.14-.29-.44l.48-.35c0-.39-.55-.23-.66-.63v.16c-.22.1-.17-.16-.31-.2.16-.11.17-.22.24-.33-.11.09-.16-.23-.49,0l.11-.29c-.1-.31-.66,0-.79-.22.23-.06.26-.25.5-.18-.05-.08-.08-.18-.19-.09.07-.12-.37-.06-.28-.25-.09,0-.27.14-.32,0a.21.21,0,0,1,.08-.06c-.08.06-.21-.06-.33.15.32-.61-.54-.65-.27-1.18a2.79,2.79,0,0,1-.51-.44c.05,0,.08-.06.08,0,0-.32-.55.21-.57-.16.16-.31.24,0,.27-.12.5-.42-.29-.24-.11-.63h.07c.08-.25-.43-.15-.55-.39a.19.19,0,0,0,.08-.05,1.22,1.22,0,0,1-.87-.29c.25-.09.17,0,.35-.18-.1-.07-.31.27-.5.14.07-.14.07-.34.28-.52l.13.16c.22-.3-.17-.21-.18-.34l.13-.08c-.23-.22-.55,0-.73-.28l-.07.1c-.43.08.08-.26-.27-.23l.29-.29a2.59,2.59,0,0,1-.76-.25,2.37,2.37,0,0,1,.82.07c-.07-.1-.27-.31-.47-.25.06,0,.18,0,.16.08a.65.65,0,0,1-.72-.2c.64-.42-.23-.62.14-1.12-.48-.17-.41-.75-.75-1.13-.37.5-.1-.1-.57.29-.1-.07-.12-.12-.1-.15l.09-.5c.09-.17.17,0,.27-.08-.11-.24.15-.24.18-.48-.16.16-.31.12-.33-.05l-.1.34c-.48-.1.22-.56-.25-.65l.22,0c-.2-.08-.4-.55-.91-.4,0-.07.15-.2.23-.16-.2-.4-1-.48-1-.93l.14-.07c-.08,0-.31.06-.25-.12s.14-.06.12-.09-.34,0-.33-.16L333,7c-.1-.46-.73-.28-1-.51a.67.67,0,0,0,.22-.8l.06,0c-.26-.44-.81-.47-1.22-.74.21-.51-.43-.9-.49-1.43,0,.1-.28.19-.37.16s-.42-.06-.09-.29l0,0c.27-.31.05-.42-.05-.57l-.44.29c.34-.82-.94-.79-.54-1.4-.17,0-.25-.12-.42-.13l.23-.16a1.67,1.67,0,0,0-.47-.69l.21-.06c-.11-.19-.82.27-.95.12l.3-.3c-.22-.29-.15-.82-.68-.88.06,0,.16-.1.21-.06-.1-.15-.18-.71-.6-.31.3-.23-.2-.33-.46-.39l.25-.15c-.39.08-.47.14-.69,0,0-.07.15-.18.13-.08,0-.23-.29.05-.31-.22l.19,0c-.1-.17-.16-.1-.39-.06s-.17-.33,0-.51c-.14.07-.37.11-.38,0a.23.23,0,0,1,.18-.07c0-.38-.55-.19-.46-.53A.34.34,0,0,0,325-2.9c.15.2.26.38.23.38.21-.16.12-.35.5-.43-.25,0-.76,0-.78-.23l.05-.07h0s-.05-.07-.11-.08a.44.44,0,0,0,0-.18c.16-.14-.05-.26-.1-.34-.22.17-.27,0-.38.28,0,0,0,0,.09,0l0,0h0l.17.19c-.17,0-.31,0-.26-.16l-.45.16c.23-.35.24-.7.41-.87-.31-.16-.53-.53-1.07-.37-.1,0,.06-.18.11-.25s.1.06.18,0c-.21-.06-.36-.39-.68-.21,0-.28.35-.1.12-.31l.11,0c.11-.84-1.35-.23-1.14-1.23a.25.25,0,0,1-.06.15c-.19-.82-1.2-1.08-1.23-2,0-.24-.25-.11-.47-.11l.22-.22-.42,0c-.39-.1.26-.89-.36-.92l-.14.16c-.05-.14-.37-.29-.16-.42,0,0-.2.09-.15,0l.12-.09-.43-.13c-.07-.29.53-.34.31-.68-.13-.08-.62-.07-.67,0a.25.25,0,0,1-.11.28l-.15-.06c-.39.26-.83.46-.89.93h.37l-.14.2-.13-.15c-.1.22.09.16.24.15a.49.49,0,0,0-.14.23l.5-.09c-.13.14-.35.14-.34.32.23,0,.26-.32.48-.26-.1.21-.26.29,0,.29a.28.28,0,0,1-.23.1c.18,0,.23.21.46.11-.14.25.3.28-.06.53a.78.78,0,0,1,.48,0c-.55.16.21.34-.27.64.46-.17.48.3.85.34,0,0-.12,0-.12,0,.06.14,0,.26-.05.38.33-.22.54-.09.8-.14-.19.37-.43.19-.69.46.25-.2.44,0,.62-.15-.11.25,0,.16-.24.41.41-.28.14.05.45,0-.08.3-.34.32-.09.4C320.13-5.66,319.88-5.71,319.88-5.71Zm3.76,3.61h0l-.08-.07Zm.26.34a.63.63,0,0,0-.11-.15C323.86-2,324-2,324-2S323.92-1.86,323.9-1.76Zm1-1.89c.07,0,0,.08,0,.12a.29.29,0,0,0-.1-.07h0Z" style="fill:#e7e6e5"/><path d="M347.66,28.08h0l0,0S347.66,28.09,347.66,28.08Z" style="fill:#e7e6e5"/><polygon points="327.04 3.34 327.1 3.3 327.02 3.31 327.04 3.34" style="fill:#e7e6e5"/><path d="M348.32,30.57a.08.08,0,0,0,0,.06Z" style="fill:#e7e6e5"/><path d="M348.88,31.43v.17A.43.43,0,0,0,348.88,31.43Z" style="fill:#e7e6e5"/><path d="M349.24,32.14l.11-.06h0Z" style="fill:#e7e6e5"/><path d="M341.45,22.28s0,0,0,0S341.38,22.26,341.45,22.28Z" style="fill:#e7e6e5"/><path d="M344.22,24.88a.5.5,0,0,1-.18,0C344.06,24.93,344.09,25,344.22,24.88Z" style="fill:#e7e6e5"/><path d="M338.68,19.14h0s0,0,0,0Z" style="fill:#e7e6e5"/><path d="M343.94,24.72c0,.09,0,.12.1.14S344,24.74,343.94,24.72Z" style="fill:#e7e6e5"/><path d="M351.19,35l0,0,0,0Z" style="fill:#e7e6e5"/><path d="M351.24,35h.06S351.27,35,351.24,35Z" style="fill:#e7e6e5"/><path d="M351.41,35l-.11,0S351.33,35.05,351.41,35Z" style="fill:#e7e6e5"/><path d="M350.67,34.05l-.09.05Z" style="fill:#e7e6e5"/><path d="M350.46,33.81c0,.07-.06.28.05.33l.07,0C350.43,34.15,350.64,33.76,350.46,33.81Z" style="fill:#e7e6e5"/><path d="M350.67,32l.09.26c.06-.1.14-.23.24-.15C351.06,31.63,350.84,32.3,350.67,32Z" style="fill:#e7e6e5"/><path d="M350.3,31.24c.13.08.13-.1.18-.13C350.35,31.1,350.31,31.09,350.3,31.24Z" style="fill:#e7e6e5"/><path d="M346.73,26.46l.21-.15C346.84,26.25,346.86,26.37,346.73,26.46Z" style="fill:#e7e6e5"/><polygon points="344.99 26.33 344.92 26.51 345.14 26.41 344.99 26.33" style="fill:#e7e6e5"/><polygon points="346.04 24.7 346.1 24.72 345.91 24.63 346.04 24.7" style="fill:#e7e6e5"/><path d="M340,16.73l-.23.21C339.82,17,340.11,16.77,340,16.73Z" style="fill:#e7e6e5"/><path d="M337.11,13.45c.1-.13.11-.29-.06-.25C337.09,13.29,337.05,13.44,337.11,13.45Z" style="fill:#e7e6e5"/><polygon points="329.75 2.75 329.89 2.76 329.72 2.68 329.75 2.75" style="fill:#e7e6e5"/><path d="M337.93,32.88c-.06.06-.17.23-.11.22l.22-.25Z" style="fill:#e7e6e5"/><path d="M337.81,33.54a2,2,0,0,0,.49-.57c-.23.23-.16.12-.42.4-.06,0,0-.13.08-.23-.06.06,0-.09-.15.07s-.05.28.13.15A.83.83,0,0,1,337.81,33.54Z" style="fill:#e7e6e5"/><path d="M341.28,35.93l0,0A.05.05,0,0,0,341.28,35.93Z" style="fill:#e7e6e5"/><path d="M343.89,36.58s0,0,0,.07A.1.1,0,0,0,343.89,36.58Z" style="fill:#e7e6e5"/><path d="M344.33,37l0,0S344.33,37,344.33,37Z" style="fill:#e7e6e5"/><path d="M341.28,35.93l0,.12C341.35,36,341.3,36,341.28,35.93Z" style="fill:#e7e6e5"/><path d="M338.72,33.19l-.08.06h.05Z" style="fill:#e7e6e5"/><path d="M340.06,35.76h0l-.07.12Z" style="fill:#e7e6e5"/><path d="M339.22,35.4a1.73,1.73,0,0,0,.21-.33c-.06.1-.1.14-.13.15S339.25,35.32,339.22,35.4Z" style="fill:#e7e6e5"/><path d="M338.25,34.25l0,0Z" style="fill:#e7e6e5"/><path d="M340.66,36.07l0,.1Z" style="fill:#e7e6e5"/><path d="M352.67,23.76h0Z" style="fill:#e7e6e5"/><polygon points="353.95 22.62 353.97 22.63 354.12 22.62 353.95 22.62" style="fill:#e7e6e5"/><path d="M345.18,37.32h0S345.17,37.35,345.18,37.32Z" style="fill:#e7e6e5"/><path d="M353.24,36.79c-.29-.25,0-.32-.38-.6C353,36.3,353,36.63,353.24,36.79Z" style="fill:#e7e6e5"/><path d="M338.71,33.24h0S338.73,33.23,338.71,33.24Z" style="fill:#e7e6e5"/><path d="M352.86,36.19h0l0,0Z" style="fill:#e7e6e5"/><path d="M347.07,37.07l0-.12S347.05,37,347.07,37.07Z" style="fill:#e7e6e5"/><path d="M345.66,36.74l0,0A.07.07,0,0,0,345.66,36.74Z" style="fill:#e7e6e5"/><path d="M347.76,36.63s0,.06.05,0v0S347.78,36.67,347.76,36.63Z" style="fill:#e7e6e5"/><path d="M348.5,36.58l0,0h0Z" style="fill:#e7e6e5"/><path d="M353,26l.25-.05C353.07,25.93,353,25.83,353,26Z" style="fill:#e7e6e5"/><path d="M338.63,33.32l.08-.08s0,0,0,0Z" style="fill:#e7e6e5"/><path d="M347.65,34.42l.12,0A.14.14,0,0,0,347.65,34.42Z" style="fill:#e7e6e5"/><path d="M352.48,30.84l0,0S352.45,30.82,352.48,30.84Z" style="fill:#e7e6e5"/><path d="M348.12,34.39a.77.77,0,0,0,.07.19.19.19,0,0,0,0-.08Z" style="fill:#e7e6e5"/><path d="M353.27,25.91Z" style="fill:#e7e6e5"/><path d="M352.54,25.21c0,.11.37,0,.58,0s-.27.09-.45.15c.11.07.45.1.44.17a.4.4,0,0,1-.16,0c.3.06,0,.26.41.33l-.09,0,.51-.06s.24.07,0,.11c0,0-.1,0-.17,0l.11,0c-.35.07-.13-.06-.38,0,.12.09.41.19.32.27-.34,0-.13-.17-.42,0l.12-.13c-.53.13,0-.08-.53,0-.09.16.18.16.1.32.19,0,.27,0,.46,0,.36.2-.84.23-.38.36.23,0,.66,0,.44.15l-.39,0c0,.15.56.06.31.22-.15,0-.13-.11-.18-.08-.3.11.22.06.23.14l-.34,0c.06.15.3.3.37.48a.69.69,0,0,0-.32,0c.18.21-.05.43-.26.58l.28.09s-.14,0-.19,0,.18,0,.29.07-.17,0-.25,0c.24.14.46.44.13.5l-.08,0c-.15.08.55.28.25.31l0,0c-.19.2,0,.57-.51.66.4.15-.26.22.31.39-.33.08-.41,0-.66.19,0,.05.33.18.37.27l-.3-.07.29.17-.37,0,.06.09a.35.35,0,0,1,.23,0c.11.14-.26.21-.42.18l.2.32a.64.64,0,0,1-.22-.14c.28.2-.32,0-.07.15a.65.65,0,0,1,.24.06.19.19,0,0,0-.17.29L352,31.6c-.09.18,0,.42,0,.63a.64.64,0,0,1,.49.09l-.32,0c.19.08.13,0,.36.08-.05.07-.38,0-.47-.07l.09.11c-.1,0-.14,0-.26-.06.19.07-.36.11,0,.23h-.1c0,.21.06.32,0,.5.28,0,.21.1.43.19-.11.11-.35.22-.35.38s.23.06.39.13c-.25,0-.25.13-.42,0,0,.22,0,.14.21.32a1.44,1.44,0,0,1,.24.05s-.11,0-.23,0l0,0c.18.13,0,.15-.17.1s-.3-.14-.07.1l0,0c.08.1.16.2.24.32s-.17-.19-.31-.31c.19.24.16.26.1.21s-.11-.08-.05.06c-.27-.37-.26-.36-.26-.31s0,.13-.09-.11l0,.17c0,.18,0-.1-.05-.14a1.91,1.91,0,0,1,.05.26s0,.06-.12,0a1.18,1.18,0,0,1-.35-.11c-.23-.1-.46-.25-.69-.33s-.06.93-.28.51l0-.33c-.31.41-.68,0-1,.37,0-.08,0-.17,0-.18-.08-.23-.25,0-.24.2-.05,0,0-.17-.06-.27s-.15.31-.2.08a.15.15,0,0,1,0-.1c0,.12-.21,0-.15.26-.13-.13-.22.13-.33,0,0,.31-.21-.14-.2.3,0-.45-.24-.35-.3-.14,0-.13-.07-.13-.06-.32-.08,0-.15.1-.12.33-.2-.53-.3.45-.43-.23a2.65,2.65,0,0,1-.68.55c0-.45.25-.06.21-.53-.2.2-.31.59-.53.49-.06-.06,0-.19,0-.27-.21.2-.41,0-.59.23a.5.5,0,0,1,0-.13s-.08-.06-.07.14l0,0c.07.29-.13.62-.13.78.05-.59-.19-.14-.11-.89a.58.58,0,0,0,0,.28s-.05-.12,0-.28c-.13.12-.08.33-.2.33a2.42,2.42,0,0,1,0-.25c-.06.19-.11.38-.22.3s0-.14,0-.14c-.17,0-.3.52-.49.33.07-.43-.06-.14-.06-.52l-.1.11,0,.18c-.09,0-.18.26-.25.13l.07-.15-.16.06.08.15c-.1.19,0,.47-.13.36s-.09,0-.12-.23h0c-.06.11-.11.23-.17.14s.05-.41,0-.49c-.07.31-.21.07-.3.39a1.4,1.4,0,0,0,.05-.31l-.07.25a.5.5,0,0,1,0-.28c-.11-.07,0,.47-.13.25,0,0,0-.06,0-.09-.13-.13-.31.12-.42,0,0-.37.13-.07.13-.39-.19.05-.46.36-.63.24l0,0c-.14.51-.08-.29-.23-.06a.8.8,0,0,0,.09-.23c-.11-.1-.28.06-.52.16l.06-.12c0-.14-.17-.13-.22-.21-.07.12-.11.09-.14.28,0-.79-.61.21-.58-.47,0,0,.1-.09.08-.09l-.22,0a.88.88,0,0,0-.07.32c-.08.11-.17.19-.22.17.15-.11.15-.34.17-.47,0,.07-.07.13-.09.2.08-.42-.21.41-.23.1l.06-.11c-.07,0-.18.16-.22.1.1-.25.11-.09.2-.28-.07,0-.36.38-.31.11.07-.05.11,0,.17-.08.07-.32,0-.25,0-.32h0l-.06-.19v.09c-.41.57-.23,0-.57.36.32-.32.14-.21.29-.47a.59.59,0,0,1,.07-.26c-.17.18,0-.22-.24,0,0-.09-.06,0,.08-.25-.11,0-.07.15-.14.26-.27.22,0-.5-.43-.2-.23.08-.44.34-.65.4a.58.58,0,0,1,.23-.28c0-.16-.05-.18-.18-.12a.78.78,0,0,0,.13-.24c-.07,0-.23.27-.22.11a2.5,2.5,0,0,1,.27-.29c-.11,0-.27.14-.38.17.08-.15.18-.18.27-.26a.55.55,0,0,0-.44.21v.11s.12-.2.16-.23,0,.14,0,.22l-.07,0c-.28.51.22,0,.29.14l-.27.32.29-.23c0,.1-.16.31-.24.33,0,.22.14-.09.07.14a.1.1,0,0,1,0,.06l.13-.06c-.06.07-.15.26-.15.18,0,.28.35-.15.23.15h0c.24,0,.18-.25.49-.48l-.31.69.18-.25s0,.06,0,.16c.17-.14.06-.12.2-.26-.06.28.28,0,.06.45.14-.19,0-.2.18-.29-.24.47.14,0,.1.23s-.16.06-.2.31c.27-.37.1.17.21.13.18-.32.22-.06.39-.11-.07.1.12.28.17.46l0,0c.17-.32.25-.2.36-.24a.76.76,0,0,1-.23.34l.08,0a.34.34,0,0,1,.19-.16l-.13.24c.11,0,.33-.21.4,0,.1-.23.16-.7.36-.8a1.28,1.28,0,0,1-.19.39s.09-.09.09,0l-.14.2c0,.12.1-.17.14-.13s0,.14-.08.29,0-.1-.06,0a.48.48,0,0,1,0,.34c0-.11.09-.25.14-.26s-.05.24,0,.36c.07-.12.09,0,.19-.24,0,0,0,.14,0,.22.1-.11.27.05.31-.27v0h0c.27-.22.32.29.54.21l0,.09c.13-.08.26,0,.38-.2,0,0,0,.2,0,.31.1-.06.13-.16.22,0-.12.15,0,.16-.11.11.09.11.09.27.25,0-.08.24,0,.32.1.25l-.05-.19a.24.24,0,0,1,.17,0l-.08.33c.18.43.5-.63.6.07.09-.22-.11-.18,0-.44.09.06.16.54.19.54.14.2.18-.47.32-.34,0-.12,0-.43.11-.54.1.05.1.51,0,.6s0,0,0-.07a.22.22,0,0,0-.05.22l0-.12c.05.12.2.12.15.31a.18.18,0,0,0,0-.26c.13.19.21,0,.35.14,0-.07,0-.21,0-.2.2.14.1-.23.23-.28.08.18,0,.43.11.28a.52.52,0,0,1,0,.41c.13-.22.24.16.31.2l-.07.09a.12.12,0,0,1,.11,0l0-.24c0,.05.07.05.07.14,0-.15,0-.39.05-.6,0,.12.15-.14.17.18-.16-.1,0,.31-.11.37,0,0,.06,0,.1,0a.13.13,0,0,1,0,.08c.16.28.07-.35.23-.35,0,.18,0,.33.07.3s0-.3,0-.44c.11.14.11-.1.17-.09l-.07-.06c0-.18.07-.16.14-.22,0,.14-.06.1,0,.16.07-.31.19.32.29.1.06.12,0,.34.07.42.11-.24.14.23.26,0-.05-.24-.05-.18,0-.42l-.2.18.12-.35c-.07,0-.13.15-.17.11.06-.19.05-.13,0-.33.11.35.16-.22.27,0l0,.59c.17.25.25-.32.45-.18l-.06-.1c0-.23.11,0,.17-.14A1.46,1.46,0,0,0,347,37c0-.15.15,0,.14-.39l.1.25c.16.1.14-.57.3-.51,0,.22,0,.35-.05.51.05,0,.1,0,.09-.1,0,.12.12-.28.18-.09,0-.09,0-.3.07-.29v.1c0-.1.08-.14,0-.35.19.6.42-.07.59.45a.87.87,0,0,1,.33-.17c0,.06,0,.1,0,.08.15.18,0-.57.22-.37s-.07.17,0,.29c.06.65.18-.1.31.28l0,0c.09.21.18-.26.31-.22a.51.51,0,0,0,0,.1.8.8,0,0,1,.35-.55c0,.25-.05.13,0,.39.05,0,0-.41.07-.49a1.72,1.72,0,0,1,.15.53l-.1,0c.07.35.13,0,.19,0v.16c.16-.06.14-.45.32-.43l0-.12c.08-.39.08.22.17-.07l0,.39a2,2,0,0,1,.31-.47,2.42,2.42,0,0,1-.25.63.24.24,0,0,0,.23-.23s-.05.13-.08.07c.07-.31.17-.47.29-.46,0,.38.08.42.17.45a.43.43,0,0,1,.4.32c.29-.28.75.11,1.19.06-.48-.59.12,0-.28-.62.06,0,.09,0,.13,0s.33.24.52.36,0,.13.12.27.29.25.58.41c-.21-.22-.17-.3,0-.23-.14-.08-.29-.19-.42-.28s.06-.08.11-.06.09,0,.16,0,.24.1.12-.2l.16.27c-.08-.26.08-.65-.36-1.11.07,0,.23.08.27.18.12-.38-.4-1.06-.08-1.21l.14.07c0-.09-.26-.19-.1-.24s.14.06.16,0-.24-.25-.14-.28a.79.79,0,0,1,.16.08c.22-.21-.36-.39-.44-.59a.77.77,0,0,0,.69-.15h.06c.09-.24-.3-.47-.43-.73.5-.06.28-.44.58-.61a.65.65,0,0,1-.37-.12c.1,0-.27-.21.13-.12l0,0c.4,0,.32-.09.35-.17l-.52-.12c.8-.05-.15-.64.56-.59-.12-.09-.1-.15-.22-.23l.28.07a.44.44,0,0,0,.14-.38l.18.09c.05-.09-.75-.34-.74-.44l.42.09c0-.18.45-.26.14-.55.06,0,.17.06.18.09s.38-.3-.19-.41c.37.1.09-.21-.05-.36l.27.07c-.33-.17-.42-.19-.5-.34s.23,0,.15,0c.16-.08-.25-.12-.08-.23l.17.07c0-.1-.06-.11-.26-.19s.09-.2.34-.19c-.15,0-.35-.1-.28-.16a.29.29,0,0,1,.18,0c.2-.18-.3-.28,0-.4h.17c0,.14,0,.26,0,.24.25,0,.3-.11.65,0-.18-.12-.6-.28-.48-.39h.12s0,0-.05-.07.08-.06.08-.1c.21,0,.11-.13.12-.19-.28,0-.23-.06-.46,0,0,0,0,0,0,.05s0,0,0,0h0a.93.93,0,0,0,0,.14c-.15,0-.27-.09-.11-.15l-.46-.07c.4-.08.6-.24.84-.26-.17-.17-.12-.4-.66-.47-.07,0,.15-.06.23-.08s.05.05.13.06c-.14-.08-.07-.27-.44-.27.16-.12.34.05.27-.11h.11c.57-.36-1-.43-.25-.84a.22.22,0,0,1-.12.05c.29-.42-.39-.77.1-1.21.09-.13-.15-.11-.33-.16l.3-.06-.36-.07c-.27-.14.7-.36.2-.52l-.2.05c0-.08-.14-.22.09-.23,0,0-.21,0-.11,0l.16,0-.29-.15c.1-.16.63,0,.64-.26a1.09,1.09,0,0,0-.59-.13s-.09.09-.24.11l-.09-.06a2.73,2.73,0,0,0-1.25.25L353,23l-.22.07,0-.1c-.21.08,0,.09.12.12a.73.73,0,0,0-.25.08l.46.06c-.18,0-.37,0-.46.08.21,0,.4-.1.55,0-.21.08-.38.08-.19.13a.48.48,0,0,1-.25,0c.15.05.07.15.32.16-.25.08.09.19-.35.23.11,0,.36.07.38.12-.53-.05,0,.21-.57.24.48,0,.24.24.51.34,0,0-.12,0-.09,0s-.18.11-.26.17a2.06,2.06,0,0,1,.74.11c-.37.12-.47,0-.82.05.31,0,.33.13.59.07a1.44,1.44,0,0,1-.43.14c.49,0,.09.05.39.08-.23.12-.45.07-.29.16A.45.45,0,0,1,352.54,25.21Zm1,2.46h0v-.05Zm0,.2a.19.19,0,0,0,0-.08c.09,0,.19,0,.19,0S353.63,27.85,353.54,27.87Zm1.95-.46s0,.05-.07.06l0-.07h.11Z" style="fill:#e7e6e5"/><path d="M355.12,27.35s0,0,0,0l-.06,0h.09Z" style="fill:#e7e6e5"/><path d="M341.26,35.88h0v0Z" style="fill:#e7e6e5"/><polygon points="352.4 30.55 352.47 30.57 352.42 30.53 352.4 30.55" style="fill:#e7e6e5"/><path d="M340.48,34.55a.19.19,0,0,0,0-.07A.64.64,0,0,0,340.48,34.55Z" style="fill:#e7e6e5"/><path d="M340.06,34.27v-.12A.35.35,0,0,0,340.06,34.27Z" style="fill:#e7e6e5"/><path d="M339.79,34l-.07.1h0Z" style="fill:#e7e6e5"/><path d="M345.56,34.86h0C345.61,34.79,345.59,34.82,345.56,34.86Z" style="fill:#e7e6e5"/><path d="M343.73,35.5a.4.4,0,0,1,.07-.13S343.74,35.34,343.73,35.5Z" style="fill:#e7e6e5"/><polygon points="347.63 34.41 347.63 34.42 347.65 34.41 347.63 34.41" style="fill:#e7e6e5"/><path d="M343.88,35.38c0-.06-.06-.05-.08,0S343.85,35.42,343.88,35.38Z" style="fill:#e7e6e5"/><path d="M338.45,33v0l0,0Z" style="fill:#e7e6e5"/><path d="M338.41,33l0,0S338.39,33,338.41,33Z" style="fill:#e7e6e5"/><path d="M338.3,33l.07,0S338.35,33,338.3,33Z" style="fill:#e7e6e5"/><path d="M338.8,33.37l.06-.08Z" style="fill:#e7e6e5"/><path d="M338.94,33.44s0-.24,0-.21l-.05.06C339,33.18,338.82,33.56,338.94,33.44Z" style="fill:#e7e6e5"/><path d="M338.86,34.86l-.08-.15c0,.11-.08.25-.15.24C338.62,35.32,338.73,34.72,338.86,34.86Z" style="fill:#e7e6e5"/><path d="M339.16,35.21c-.09,0-.07.14-.11.19S339.17,35.32,339.16,35.21Z" style="fill:#e7e6e5"/><path d="M342.17,36.35l-.06.25C342.18,36.58,342.13,36.5,342.17,36.35Z" style="fill:#e7e6e5"/><polygon points="342.98 35.16 342.95 34.99 342.89 35.22 342.98 35.16" style="fill:#e7e6e5"/><polygon points="343.08 37.01 343.05 37.04 343.17 36.96 343.08 37.01" style="fill:#e7e6e5"/><path d="M348.38,36.84l0-.31S348.32,36.94,348.38,36.84Z" style="fill:#e7e6e5"/><path d="M350.55,36.41c0,.15.09.25.12.1S350.57,36.37,350.55,36.41Z" style="fill:#e7e6e5"/><polygon points="354.74 31.69 354.83 31.75 354.76 31.66 354.74 31.69" style="fill:#e7e6e5"/><path d="M618,137.3c-.1,0-.28,0-.21.18h.34Z" style="fill:#e7e6e5"/><path d="M617.64,138.35a.76.76,0,0,0,.79.05c-.35-.08-.23-.15-.64-.22-.07-.12.05-.26.17-.27-.09,0,0-.22-.19-.24a.37.37,0,0,0,.09.63C617.8,138.37,617.71,138.34,617.64,138.35Z" style="fill:#e7e6e5"/><path d="M619,151.47l0-.08A.11.11,0,0,0,619,151.47Z" style="fill:#e7e6e5"/><path d="M618.54,159.58a.1.1,0,0,0-.06-.1C618.5,159.54,618.51,159.59,618.54,159.58Z" style="fill:#e7e6e5"/><path d="M618,160.9l0-.08S618,160.87,618,160.9Z" style="fill:#e7e6e5"/><path d="M619,151.47l-.1.22C619.05,151.71,619,151.58,619,151.47Z" style="fill:#e7e6e5"/><path d="M618.84,140a.2.2,0,0,0-.11-.09.33.33,0,0,1,.06.1Z" style="fill:#e7e6e5"/><path d="M618.53,147.92v-.07l-.14,0Z" style="fill:#e7e6e5"/><path d="M618.14,145.2c0,.06.28,0,.41.05a.28.28,0,0,1-.21-.11A.63.63,0,0,0,618.14,145.2Z" style="fill:#e7e6e5"/><path d="M617.88,140.8l-.06-.06Z" style="fill:#e7e6e5"/><path d="M618.63,149.88l-.1,0A.17.17,0,0,0,618.63,149.88Z" style="fill:#e7e6e5"/><path d="M574.94,207V207S574.92,207,574.94,207Z" style="fill:#e7e6e5"/><polygon points="571.43 206.68 571.47 206.65 571.44 206.49 571.43 206.68" style="fill:#e7e6e5"/><path d="M617.18,163.3h0C617.17,163.22,617.17,163.25,617.18,163.3Z" style="fill:#e7e6e5"/><path d="M607.36,183.75c.37,0,0,.53.44.42C607.69,184.12,607.7,183.61,607.36,183.75Z" style="fill:#e7e6e5"/><path d="M618.83,140a.5.5,0,0,1,0,.12A.33.33,0,0,0,618.83,140Z" style="fill:#e7e6e5"/><path d="M607.8,184.17h0l.05,0Z" style="fill:#e7e6e5"/><path d="M615.83,168.88a.32.32,0,0,0,.14,0A.24.24,0,0,0,615.83,168.88Z" style="fill:#e7e6e5"/><path d="M617.44,164.86l-.07.1A.26.26,0,0,0,617.44,164.86Z" style="fill:#e7e6e5"/><path d="M615.42,171.12s-.08,0-.08.14h0A.09.09,0,0,1,615.42,171.12Z" style="fill:#e7e6e5"/><path d="M614.5,173.27l.07,0,0-.07Z" style="fill:#e7e6e5"/><path d="M581.76,204.32a.91.91,0,0,1-.2-.19C581.67,204.3,581.37,204.5,581.76,204.32Z" style="fill:#e7e6e5"/><path d="M618.69,140a.18.18,0,0,1,.14,0l0-.07A.15.15,0,0,0,618.69,140Z" style="fill:#e7e6e5"/><path d="M617.44,172l-.18.34A1.56,1.56,0,0,0,617.44,172Z" style="fill:#e7e6e5"/><path d="M597,196.1l-.06.08A.08.08,0,0,0,597,196.1Z" style="fill:#e7e6e5"/><path d="M616.86,173.47a.48.48,0,0,0-.27.12l0,.07Z" style="fill:#e7e6e5"/><path d="M581.55,204.12h0Z" style="fill:#e7e6e5"/><path d="M579.46,205.68c.34-.13,0-.4,0-.63.37-.25.29.18.5.31.22-.19.29-.58.48-.64,0,.05.08.06.07.14.16-.37.78-.34,1-.8a.22.22,0,0,1,.07.06,1.42,1.42,0,0,1-.24-.45c.15-.06.19-.33.34-.13-.09,0-.06.13-.08.21l.12-.16c.27.26-.17.2-.07.44.26-.23.51-.65.78-.66.18.29-.51.34-.07.48l-.42,0c.49.38-.23.06.24.48.52-.11.47-.39,1-.5,0-.22-.14-.24-.11-.46.54-.59.88.55,1.19-.09,0-.26-.09-.68.35-.63l0,.4c.48-.17,0-.62.62-.61,0,.18-.31.29-.22.29.44.14.13-.29.37-.4l.19.28c.47-.27.9-.74,1.4-1.07,0,.1,0,.25.14.28a5.18,5.18,0,0,1,2.2-.84l.1-.39c.06,0,.17.06.13.14.31,0-.07-.17,0-.34a.14.14,0,0,1,.21.18c.33-.46,1-1.16,1.6-1.13l0,.12c.41-.09.1-.74.56-.7l0,.08c.82-.34,1.52-1.08,2.34-1-.11-.42.84-.32.57-.84.58,0,.52.13,1.23-.09.17-.09,0-.47.19-.65l.18.26.09-.45.35.21.13-.19a.23.23,0,0,1-.27-.08.75.75,0,0,1,.91-.19l.52-.69c.06.11,0,.22-.07.35.17-.51.25.22.41-.25-.08,0-.08-.16-.11-.22a1.26,1.26,0,0,0,.87-.49l.07.21c.52-.33,1-.87,1.5-1.29-.25.07-.44-.25-.3-.4l.27.21c0-.24-.25,0-.19-.33.22-.12.37.19.32.36l.17-.28c.08.07.05.15.11.26,0-.24.64-.07.55-.47l.08.06c.52-.44.69-.73,1.1-1.1-.17-.22,0-.32,0-.6a3.76,3.76,0,0,0,1.2-.69c.16-.34-.09-.24-.09-.47.2.17.54-.18.48.13a5.86,5.86,0,0,0,.92-1.22c-.13,0-.23,0-.26-.08a.24.24,0,0,1,.37,0v0c.3-.87,1.88-.88,2-1.73v.05c.1-.23.18-.47.26-.71.24-.21,0,.28.29.21.18-.85.83-.86,1-1.51.92.14,1-1.36,1.81-1.56l-.16-.08c0-.24.2-.1.31-.17-.12-.07-.24.05-.25-.09a9.49,9.49,0,0,1,1.34-1.72,18.11,18.11,0,0,0,1.52-1.65c.33-.43-.62-.74.1-1.09l.18.34c.25-1.1,1.11-1.91,1.33-3,0,.09.13.14.08.23.31-.08.41-.71.22-.81.09-.14.18.05.31,0s0-.64.23-.65c0,0,0,.1,0,.14,0-.18.32-.6,0-.59.29-.3.21-.74.5-.95-.19-.31.41-.56,0-.8.4.21.59-.5.49-.81.09.13.21-.15.35,0,.1-.27.12-.55-.11-.58.71-.3,0-1.13.72-1.18a18.9,18.9,0,0,1,.26-2.42c.44.16-.22.81.25.92.06-.74-.22-1.25.08-1.91.1-.16.16.15.21.24,0-.75.42-1.34.33-2,0,0,.07.09.09.16,0-.12.12-.27-.08-.3l0,.13c-.33.13-.51-.63-.66-.68.53.33.28-.58.93-.09a.26.26,0,0,0-.23-.22c.06-.12.15-.14.28,0,0-.47-.27-.36-.18-.75.1,0,.12.11.23.17a.77.77,0,0,1-.15-.8c.06,0,.14,0,.12.11.1-.59-.35-1.08-.06-1.69.4.25.17-.19.54-.17l-.06-.37-.2.12c.05-.3-.18-.61,0-.85l.12.25v-.58l-.18.3c-.15-.32-.47,0-.32-.41,0,.09,0-.3.27-.43h0c-.11-.16-.22-.33-.11-.54.13-.05.41.09.49.06-.3-.18,0-.72-.34-.93a.55.55,0,0,0,.31.07l-.24-.15c.09-.13.13-.15.29-.11.08-.42-.49.1-.24-.39,0,0,.06,0,.09.11.16-.5-.11-1,0-1.44.38-.12.08.41.41.27a10,10,0,0,1-.31-2l0,.12c-.53-.09.28-.48,0-.81.05.08.3.11.24.08a3.89,3.89,0,0,0-.34-1.56l.14.07a4.37,4.37,0,0,0,.11-1c-.14-.08-.12-.24-.32-.13.73-.91-.54-1.62,0-2.43,0,.09.14.21.13.13l-.18-.64c-.22.08-.13.1-.3.25a.5.5,0,0,1-.27-.4c.17.28.37,0,.48-.18-.06,0-.15,0-.22,0,.38-.38-.46,0-.25-.49h.13c-.09-.17-.27-.31-.26-.5.26-.11.15.17.37.16,0-.27-.57-.46-.34-.73.09.1.11.26.2.37.28-.3.19-.32.22-.52v0l.08-.47-.06.13c-.74-.23-.22-.65-.73-1,.48.36.26,0,.56,0,.07-.13.14-.32.23-.28-.27-.17.13-.38-.28-.62.1,0,0-.22.22-.22-.12-.25-.15.1-.28.09-.4-.35.22-1.05-.34-1.56-.28-.48-.62-.51-.87-.95.12-.19.37.06.37.06a.71.71,0,0,0-.15-.7c.09,0,.15,0,.24-.13-.07-.19-.38-.05-.3-.34a1.44,1.44,0,0,1,.43.11c-.14-.21-.37-.4-.51-.62.15-.1.28.09.41.15-.14-.25-.31-.66-.59-.68l-.06.19c0-.09.22-.1.28,0,.26.18,0,.35-.1.38l-.11-.15c-.51.3.25.66.3,1l-.44-.05.42.28c-.09.09-.3.19-.4,0-.15.28.19.18,0,.44a0,0,0,0,1-.07,0l.17.22c-.1,0-.28.1-.25-.06-.16.47.43.63.15.85l0,0c.25.56.31,0,.74.37l-.68.44h.31c0,.06,0,.19-.12.18.25.2.12-.06.34,0-.22.34.28.79-.19.94.25.07.13-.31.34,0-.5.17.17.35,0,.66-.28,0-.17-.32-.37,0,.47.09,0,.54.09.75.36,0,.21.48.38.84-.12,0-.1.75-.18,1.12h-.06c.37,0,.35.4.44.66a.43.43,0,0,1-.42-.16l0,.25a.38.38,0,0,1,.24.28l-.28,0c0,.34.38.65.23,1.1.26,0,.68-.41.89,0-.13,0-.37.07-.44,0,0,0,.13.13.08.22l-.25-.17c-.09.2.2.09.19.25-.19,0-.13.13-.28.11s.07-.14,0-.19a.68.68,0,0,1-.26.48c.11,0,.26,0,.3.11,0,.33-.23.13-.31.33.14.07,0,.29.31.28,0,.1-.14.13-.22.17.14.17.06.81.37.6l0,0v0h0c.31.57-.13,1.2,0,1.76H619c.13.34.07.76.27,1a.26.26,0,0,1-.3.19c.07.26.18.29,0,.66-.16-.26-.15.09-.12-.27-.09.34-.25.41,0,.78-.25-.14-.33.23-.26.4l.19-.23a1.57,1.57,0,0,1,0,.49l-.33-.1c-.41.65.59,1.28-.12,1.74.22.2.2-.35.46-.17-.08.31-.58.6-.59.69-.22.41.45.45.28.89a.38.38,0,0,1,.53.29c-.09.31-.56.32-.62.11s0-.11.08-.1-.06-.24-.2-.13l.11.05c-.14.14-.19.57-.37.44.07.25.18.13.26,0-.23.38-.09.63-.27,1,.08-.06.22-.1.21,0-.23.58.18.3.18.72-.22.2-.42-.16-.33.28-.16.23-.32,0-.4-.12.18.42-.27.67-.35.87l-.05-.21a.64.64,0,0,1,0,.31l.25-.06c-.06.1-.08.2-.18.18.13.15.41,0,.57.26-.15.13,0,.49-.29.48.2-.46-.32,0-.29-.43a.4.4,0,0,1-.06.29s-.07,0-.08-.06c-.37.39.31.28.2.75-.16-.1-.35,0-.33.12.05-.19.31,0,.41.18-.2.27,0,.36,0,.51l.1-.16c.16.1.11.25.1.47-.14,0,0-.21-.12-.15.24.31-.46.45-.34.82-.16.12-.33-.07-.44,0,.12.42-.34.33-.26.76.26,0,.21-.08.36.25v-.67l.22.49c.06-.19,0-.44,0-.54.14.24.09.21.3.17-.41.16.06.57-.25.81l-.57-.17c-.36.37,0,.87-.28,1.41l.16-.16c.2.15-.09.37-.06.59-.18-.08-.29,0-.43.05.14,0-.16.41.2.6l-.33.16c-.25.43.33.72.09,1.14-.14-.21-.35-.06-.38-.41-.06.15-.15.27,0,.32-.15,0,.08.5-.15.57.06.09.24.19.16.35a.19.19,0,0,1-.09,0c.09,0,0,.31.28.25-.74.22-.48,1.28-1.16,1.44a8.9,8.9,0,0,1-.33,1s-.09,0,0-.09c-.35.31.39.5,0,.85-.4.08-.05-.31-.22-.23-.6-.23-.2.57-.69.68v-.09c-.31.12-.08.66-.32,1,0,0,0-.05-.08-.05a2.08,2.08,0,0,1-.14,1.32c-.15-.23,0-.22-.28-.29-.06.17.39.17.26.51-.18,0-.42.18-.68.07l.17-.29c-.4,0-.22.37-.37.49l-.12-.1c-.22.46.1.67-.21,1.13h.13c.16.47-.32.1-.24.51l-.38-.14a5.41,5.41,0,0,1-.24,1.12,3.2,3.2,0,0,1,0-1.07c-.11.16-.36.57-.26.76,0-.09,0-.22.09-.25a1.09,1.09,0,0,1-.18,1c-.58-.5-.74.74-1.4.59-.21.72-.95,1-1.41,1.66.64.16-.13.19.36.54-.09.17-.15.22-.19.21l-.65.19c-.23,0,0-.22-.1-.3-.31.28-.31,0-.61.06.2.1.14.31-.08.43l.43-.06c-.13.65-.71,0-.85.68l0-.27c-.1.31-.74.79-.59,1.34-.09,0-.25-.08-.2-.2-.54.45-.71,1.51-1.33,1.67l-.07-.14c-.06.12,0,.36-.2.36,0-.05-.06-.14-.11-.11s-.08.43-.27.49v-.22c-.64.32-.5,1-.86,1.5-.29-.33-.8-.08-1.06,0l0-.06c-.65.48-.79,1.18-1.27,1.78-.67-.08-1.37.82-2.12,1.06.14,0,.19.29.11.4s-.21.53-.42.19l0,0c-.34-.24-.57.05-.81.21l.27.45c-1-.2-1.41,1.36-2.14,1-.08.21-.26.33-.34.54l-.15-.25a4.45,4.45,0,0,0-1.14.7v-.23c-.29.17.08.92-.19,1.1l-.31-.31c-.51.32-1.22.31-1.53.94,0-.06-.07-.17,0-.24-.24.14-1.07.31-.7.76-.19-.32-.56.26-.77.57l-.09-.27c-.07.44,0,.53-.32.8-.09,0-.17-.15,0-.15-.34,0-.08.35-.48.39l0-.22c-.29.13-.22.2-.27.47a.51.51,0,0,1-.72,0c0,.16,0,.41-.22.43a.17.17,0,0,1,0-.19c-.55.06-.54.63-1,.55,0-.08-.09-.11-.13-.12a2.88,2.88,0,0,1,.66-.28c-.11-.23-.43-.12-.36-.56-.15.29-.37.88-.71.91a.21.21,0,0,1-.08-.06l0,0a.25.25,0,0,0-.17.13.76.76,0,0,0-.27.05c-.13-.17-.39.07-.55.13.13.24-.09.3.2.42,0,0,0,0,.11-.1l0-.06v0l.37-.2c-.06.19-.13.36-.36.3,0,.19,0,.4,0,.5-.38-.26-.87-.26-1-.46-.39.36-1,.6-1.11,1.22-.11.12-.22-.07-.3-.13s.15-.11.16-.2c-.21.25-.77.39-.68.76-.41,0,.05-.4-.39-.15l0-.13c-1.14-.16-1.12,1.51-2.43,1.21.09,0,.13,0,.17.08-1.29.12-2.29,1.24-3.64,1.13-.37,0-.33.25-.47.49l-.17-.26-.23.45c-.42.42-1.09-.39-1.56.26l.14.17c-.24,0-.68.34-.71.1,0,0,0,.23-.13.15l0-.14-.48.43c-.46,0-.12-.62-.75-.45-.21.13-.53.65-.41.72a.28.28,0,0,1,.32.17l-.19.15c.1.46.07,1,.7,1.11l.28-.39.19.18-.31.11c.24.14.3-.07.38-.23a.38.38,0,0,0,.23.18l.23-.53c.1.16,0,.39.22.41.11-.25-.29-.34,0-.56.25.15.25.33.4.09a.22.22,0,0,1,0,.27c.14-.2.47-.21.49-.48.26.19.6-.26.72.16a1,1,0,0,1,.37-.52c-.13.61.64-.19.74.38.08-.53.76-.49,1.07-.88,0,0,0,.13-.07.12.24,0,.35.07.53.1-.1-.38.22-.58.32-.89.41.25,0,.5.21.81-.13-.29.36-.48.18-.69.29.13.22,0,.44.29-.13-.47.17-.15.24-.5.39.11.24.4.52.13C579.69,205.4,579.46,205.68,579.46,205.68Zm7.47-4.19h0l-.15.09Zm.64-.32c-.09,0-.18.08-.29.13s-.08-.18,0-.21S587.43,201.14,587.57,201.17Zm-2.2-1.08c.08-.08.14-.05.18,0a.66.66,0,0,0-.16.11v0A.89.89,0,0,1,585.37,200.09Z" style="fill:#e7e6e5"/><path d="M585.35,200.51s0,0,0,0l.09,0v-.1Z" style="fill:#e7e6e5"/><path d="M619.08,151.37v0l0,0Z" style="fill:#e7e6e5"/><polygon points="596.39 196.66 596.35 196.61 596.33 196.69 596.39 196.66" style="fill:#e7e6e5"/><path d="M619.77,147.41a.13.13,0,0,0,.07-.06Z" style="fill:#e7e6e5"/><path d="M619.62,145.72l.07-.25A.88.88,0,0,0,619.62,145.72Z" style="fill:#e7e6e5"/><path d="M619.58,144.4a.24.24,0,0,0-.12,0h.12Z" style="fill:#e7e6e5"/><path d="M619.29,165.21a.06.06,0,0,0,0,.06C619.31,165.39,619.31,165.31,619.29,165.21Z" style="fill:#e7e6e5"/><path d="M619.68,159a1.06,1.06,0,0,1,.11.21C619.82,159.08,619.83,159,619.68,159Z" style="fill:#e7e6e5"/><polygon points="617.47 172 617.46 172 617.45 172.04 617.47 172" style="fill:#e7e6e5"/><path d="M619.76,159.47a.31.31,0,0,0,0-.29A.48.48,0,0,0,619.76,159.47Z" style="fill:#e7e6e5"/><path d="M618.6,138.81v-.06h-.05Z" style="fill:#e7e6e5"/><path d="M618.55,138.75l0-.06S618.52,138.75,618.55,138.75Z" style="fill:#e7e6e5"/><path d="M618.4,138.56l.1.13C618.49,138.64,618.49,138.58,618.4,138.56Z" style="fill:#e7e6e5"/><path d="M618.87,140.53h0Z" style="fill:#e7e6e5"/><path d="M619,141c0-.13.16-.36,0-.52H619C619.15,140.57,618.82,141,619,141Z" style="fill:#e7e6e5"/><path d="M618.17,143.41V143c-.1.1-.22.22-.28,0C617.67,143.59,618.1,142.85,618.17,143.41Z" style="fill:#e7e6e5"/><path d="M618.23,144.76c-.08-.22-.16,0-.22,0C618.13,144.91,618.16,145,618.23,144.76Z" style="fill:#e7e6e5"/><path d="M618.89,154.4l-.26,0C618.66,154.55,618.73,154.37,618.89,154.4Z" style="fill:#e7e6e5"/><polygon points="620.15 156.31 620.32 156.14 620.08 156.05 620.15 156.31" style="fill:#e7e6e5"/><polygon points="618.25 157.29 618.22 157.21 618.29 157.51 618.25 157.29" style="fill:#e7e6e5"/><path d="M614.45,172.79l.31.08C614.76,172.74,614.45,172.57,614.45,172.79Z" style="fill:#e7e6e5"/><path d="M611.4,179c-.17,0-.36.09-.29.28C611.21,179.19,611.39,179.13,611.4,179Z" style="fill:#e7e6e5"/><polygon points="596.5 193.51 596.55 193.35 596.39 193.57 596.5 193.51" style="fill:#e7e6e5"/><path d="M581.9,213.29c0-.08,0-.28,0-.24l0,.33Z" style="fill:#e7e6e5"/><path d="M581.54,212.69a1.81,1.81,0,0,0-.07.75c0-.32.07-.19.12-.57,0,0,.1.1.09.23,0-.09.08.07.1-.14s-.15-.26-.23-.05A.55.55,0,0,1,581.54,212.69Z" style="fill:#e7e6e5"/><path d="M576.71,212l0,0A.05.05,0,0,0,576.71,212Z" style="fill:#e7e6e5"/><path d="M573.94,211.05s0,0,.06-.05S574,211,573.94,211.05Z" style="fill:#e7e6e5"/><path d="M573.66,210.53l0,0S573.68,210.51,573.66,210.53Z" style="fill:#e7e6e5"/><path d="M576.71,212l-.06-.11C576.62,211.94,576.67,211.92,576.71,212Z" style="fill:#e7e6e5"/><path d="M580.87,213.5a.12.12,0,0,0,0-.08l0,0Z" style="fill:#e7e6e5"/><path d="M578,211.83h0l0-.13Z" style="fill:#e7e6e5"/><path d="M579,211.84s0,.27-.06.39A.44.44,0,0,1,579,212Z" style="fill:#e7e6e5"/><path d="M580.63,212.37l0,0Z" style="fill:#e7e6e5"/><path d="M577.33,211.7v-.1A.34.34,0,0,0,577.33,211.7Z" style="fill:#e7e6e5"/><path d="M571.67,207.47l0,0S571.66,207.48,571.67,207.47Z" style="fill:#e7e6e5"/><polygon points="569.88 207.82 569.87 207.8 569.74 207.72 569.88 207.82" style="fill:#e7e6e5"/><path d="M573.15,209.83h0S573.18,209.82,573.15,209.83Z" style="fill:#e7e6e5"/><path d="M572.59,203.75c-.27,0-.22-.29-.53-.3C572.17,203.49,572.39,203.77,572.59,203.75Z" style="fill:#e7e6e5"/><path d="M580.85,213.47h0Z" style="fill:#e7e6e5"/><path d="M572.06,203.45Z" style="fill:#e7e6e5"/><path d="M571.93,208.82l-.1.08Z" style="fill:#e7e6e5"/><path d="M572.45,210V210A.07.07,0,0,0,572.45,210Z" style="fill:#e7e6e5"/><path d="M571.32,208.4s0,0,0-.05h0S571.35,208.37,571.32,208.4Z" style="fill:#e7e6e5"/><path d="M571.17,207.7l-.06,0,0,0Z" style="fill:#e7e6e5"/><path d="M572.9,205.13a1.22,1.22,0,0,1-.24-.1C572.84,205.13,572.84,205.28,572.9,205.13Z" style="fill:#e7e6e5"/><path d="M580.87,213.35a.25.25,0,0,1,0,.12l0,0A.28.28,0,0,0,580.87,213.35Z" style="fill:#e7e6e5"/><path d="M569.19,209l0-.2A.47.47,0,0,0,569.19,209Z" style="fill:#e7e6e5"/><path d="M575.84,199.32v0S575.86,199.33,575.84,199.32Z" style="fill:#e7e6e5"/><path d="M569,208.31a.52.52,0,0,0,.17-.14h-.07Z" style="fill:#e7e6e5"/><path d="M572.66,205Z" style="fill:#e7e6e5"/><path d="M572.76,206.16c.07-.11-.28-.24-.45-.37,0-.19.27.08.46.13,0-.14-.28-.38-.23-.43a.29.29,0,0,1,.14.08c-.2-.24.15-.27-.1-.57l.08,0a2.87,2.87,0,0,1-.44-.25c0-.05-.14-.21.08-.1,0,0,.05.08.11.13l-.06-.11c.33.14.06.14.28.27,0-.16-.2-.43-.07-.46.3.16,0,.24.3.3l-.18.05c.51.19-.08.06.46.27.18-.11,0-.27.15-.38-.14-.14-.25-.14-.38-.27-.15-.41.84.26.56-.15-.17-.16-.53-.4-.26-.41l.3.24c.13-.14-.41-.37-.09-.41.11.11,0,.19.09.19.32.05-.14-.19-.09-.27l.3.15c0-.2,0-.51,0-.74.08.06.16.15.27.15,0-.33.33-.51.64-.67l-.21-.23s.14,0,.18.07-.16-.09-.24-.19.19,0,.25.08c-.14-.28-.24-.72.13-.76l.06.07c.17-.09-.47-.41-.16-.42l0,0c.26-.25.16-.69.67-.75-.37-.21.31-.23-.23-.48.34-.06.42,0,.71-.14,0-.06-.31-.24-.33-.35l.29.12-.26-.23.37.07,0-.1a.34.34,0,0,1-.23,0c-.08-.17.32-.21.46-.15l0-.09-2-6-.09,4.71v.31a.45.45,0,0,1-.12-.24c.13.34-.26-.19-.15.12a.59.59,0,0,1,.18.17c-.19-.07-.3.06-.33.21l-.14-.16c-.2.14-.24.44-.41.64.14,0,.41.24.39.32l-.27-.19c.12.17.14,0,.27.26-.09.05-.33-.19-.38-.3l0,.16c-.08-.05-.1-.11-.2-.19.13.16-.38-.05-.15.23l-.08-.06c-.17.2-.15.37-.27.55.22.17.12.2.27.39-.17.06-.45.07-.54.24s.17.17.27.31c-.21-.14-.3,0-.39-.16a1,1,0,0,0-.12.62c.1,0,.16,0,.22.09s-.15,0-.25,0l0,0c.16.47-1,.21-.72.72v0l.1.37c-.1.08-.13-.16-.31-.16.22.46-.29.36-.15.72-.76-.19-.26.6-.8.63l.17.06c.13.14-.13,0-.19.06.13,0,.18,0,.25.08,0,.59-.69,1-1,1.54-.11.21.86.36.38.52l-.3-.15c.28.52-.21.93.1,1.43-.08,0-.18,0-.17-.09-.25.09,0,.37.17.37,0,.07-.18,0-.28.06s.3.25.07.31c0,0-.08,0-.1-.05s0,.32.26.24c-.12.19.14.32,0,.48.32,0-.09.34.35.28-.46.08-.29.4,0,.44-.15,0-.11.14-.3.16,0,.13.16.22.37.12-.42.44.59.26,0,.68l1,.64c-.36.27-.26-.26-.63,0,.36.17.76.06.89.35,0,.1-.17.11-.25.14.36.08.42.48.8.45a.27.27,0,0,1-.12.06c.05,0,.06.13.18,0h-.08c.12-.28.55-.37.64-.49-.42.42.11.27-.42.79a.36.36,0,0,0,.21-.18c0,.07,0,.14-.14.24.22,0,.28-.21.42-.12-.05.09-.1.1-.18.19.18-.12.35-.24.43-.1s-.07.13-.1.1c.23.12.6-.26.74,0-.26.36,0,.17-.13.51l.17,0,0-.19c.11.06.31-.16.36,0l-.14.11.23,0-.06-.18c.18-.14.16-.44.27-.29-.05,0,.1,0,.08.27h0c.09-.09.19-.18.24-.07s-.16.39-.17.47c.16-.28.29,0,.46-.3a1.9,1.9,0,0,0-.11.3l.12-.23c0,.09,0,.13,0,.28.14.09.09-.47.21-.22,0,0,0,.06-.06.08.16.17.4,0,.54.11,0,.38-.18.06-.2.38.28,0,.62-.31.84-.18l0,0c.14-.51.12.29.3.07a.6.6,0,0,0-.08.23c.15.11.37-.07.64-.19l-.05.13c.08.13.24.1.34.18.05-.13.11-.1.1-.3.23.81.66-.33.88.33,0,0-.1.11-.07.11l.26-.1c0-.23,0-.14-.06-.33s.12-.23.18-.23c-.12.15,0,.37,0,.51,0-.07,0-.15,0-.22.1.42.06-.47.21-.17l0,.12c.07-.06.14-.21.21-.18,0,.27-.08.13-.1.34.1,0,.23-.49.3-.22-.05.07-.11.07-.15.14.07.32.09.24.16.29h0l.17.15,0-.08c.15-.69.26-.12.44-.57-.18.43,0,.25-.06.55,0,.09.1.19.08.27.09-.24.13.2.25-.15,0,.09.08,0,.06.25.11-.08,0-.17,0-.29.17-.33.37.41.6-.05.2-.19.24-.51.41-.68a.53.53,0,0,1,0,.36c.09.14.17.12.26,0a.52.52,0,0,0,0,.27c.08,0,0-.36.15-.22s0,.29-.07.4c.09-.1.17-.28.26-.37a.68.68,0,0,1-.08.37.56.56,0,0,0,.29-.43l-.07-.09s0,.23,0,.28c-.09.21-.13-.09-.14-.19l.06-.07c-.07-.57-.25.1-.38.07l0-.42-.12.35c0-.1,0-.34,0-.4-.1-.2-.08.15-.16-.08a.08.08,0,0,1,0-.07l-.09.12c0-.08,0-.29,0-.23-.16-.24-.26.31-.32,0l0,0c-.23.14,0,.3-.2.66l-.1-.75,0,.3s-.07,0-.06-.16c-.08.21,0,.14,0,.33-.1-.27-.31.13-.32-.36,0,.24.1.19,0,.34,0-.52-.14.09-.23-.16s.13-.12,0-.36c-.07.45-.19-.11-.27,0,0,.36-.19.14-.34.26,0-.12-.26-.21-.38-.35v-.07c-.05.37-.18.29-.29.35a.87.87,0,0,1,.11-.39h-.09c0,.12-.07.18-.13.21l.05-.27c-.12,0-.28.3-.42.11,0,.25.06.72-.13.87a1.2,1.2,0,0,1,.07-.43s-.06.12-.08.05l.09-.22c-.06-.11-.06.19-.11.16,0-.2,0-.15,0-.3s.05.09.08,0a.46.46,0,0,1-.14-.32c0,.11,0,.26-.08.28s0-.24-.07-.35c0,.13-.1,0-.14.28,0,0,0-.15,0-.23-.08.12-.3,0-.27.32v0h0c-.26.27-.4-.23-.62-.14v-.1c-.14.09-.28,0-.41.21,0,0-.05-.2,0-.31-.1.05-.14.16-.23,0,.13-.15,0-.16.12-.1-.1-.11-.08-.27-.27,0,.1-.24,0-.33-.09-.27l0,.19a.18.18,0,0,1-.17-.05l.12-.31c-.12-.44-.61.53-.58-.16-.14.2.07.19-.07.43-.09-.07-.05-.56-.08-.57-.07-.22-.29.41-.39.23,0,.12-.12.43-.28.48s.06-.51.16-.57,0,0,0,.08a.21.21,0,0,0,.12-.2l-.06.11c0-.13-.14-.18,0-.34a.18.18,0,0,0-.07.24c-.06-.2-.2-.08-.27-.25,0,.07,0,.2-.07.19-.12-.22-.18.17-.33.15,0-.2.22-.37,0-.3,0-.15.14-.28.21-.36-.22.16-.12-.24-.15-.3l.1-.06c-.06,0-.08,0-.11,0l-.09.22a.14.14,0,0,1,0-.15c-.12.11-.18.35-.36.49,0-.13-.21,0,0-.24.08.17.16-.28.3-.25,0,0-.07,0-.08,0a.23.23,0,0,1,.06-.07c0-.3-.25.26-.37.17.12-.13.18-.29.14-.28s-.16.26-.28.33c0-.17-.15,0-.19,0v.09c-.13.13-.15.08-.25.08.09-.11.12,0,.13-.1-.27.19.09-.36-.13-.27,0-.12.23-.25.26-.33-.24.08.08-.25-.12-.2s-.11.15-.34.24a1.09,1.09,0,0,0,.26,0l-.34.15s.2,0,.19,0c-.18.1-.13.06-.25.22.19-.31-.28,0-.17-.23l.45-.39c.13-.26-.4,0-.37-.23l0,.1c-.21.11-.09-.08-.21-.08a1.28,1.28,0,0,0,.31-.24c-.13.07-.05-.11-.4,0l.2-.19c0-.17-.6.08-.59-.1.22,0,.32-.14.5-.11,0,0,0-.09-.12,0,.11-.07-.29,0-.13-.15-.09,0-.29.06-.29,0a.27.27,0,0,1,.1,0c-.1,0-.16-.06-.36,0,.56-.3-.14-.46.37-.67a1,1,0,0,1-.16-.34c.06,0,.09,0,.07,0,.18-.14-.56-.08-.35-.26s.16.1.29,0c.65,0-.08-.19.3-.28l0,0c.21-.06-.23-.22-.16-.36l.09,0a.77.77,0,0,1-.45-.5c.24.09.12.09.38.11,0-.07-.42-.06-.46-.2a1.39,1.39,0,0,1,.56,0v.11c.36,0,0-.14.09-.19l.15,0c0-.18-.38-.29-.3-.47h-.12c-.34-.22.24,0,0-.21l.39.09a1.51,1.51,0,0,1-.31-.5,3.09,3.09,0,0,1,.48.49.27.27,0,0,0-.12-.32s.1.1,0,.11q-.39-.28-.3-.48c.7.31.31-.27.9-.12-.16-.34.31-.38.4-.65-.57-.18,0-.08-.52-.35,0-.07,0-.09,0-.08h.42c.17.05.08.13.21.19.11-.11.25.07.44.07-.2-.09-.25-.2-.13-.23l-.31,0c-.17-.34.54.11.36-.23l.13.16c0-.15.2-.33-.16-.68.07,0,.23.1.24.16.2-.17-.14-.76.23-.76l.11.1c0-.06-.18-.22,0-.19s.11.1.13.09-.14-.25,0-.25l.1.14c.31-.09-.11-.56-.06-.79a.68.68,0,0,0,.7.16l.05,0c.21-.19,0-.61,0-.93.48.17.51-.32.89-.35a.56.56,0,0,1-.25-.3c.11,0-.12-.33.18-.06l0,0c.33.22.34.05.41,0l-.38-.36c.2.08.31.07.38,0l-1.91-1.18c-.12.21.17.61-.33.53.09.11.06.18.16.29l-.26-.11a.6.6,0,0,0-.23.44l-.17-.13c-.06.11.69.47.66.59l-.4-.14c-.08.2-.51.25-.25.6-.06,0-.16-.08-.16-.12s-.43.23.11.45c-.34-.17-.13.18,0,.36l-.24-.14c.27.25.36.29.38.46s-.21-.07-.13-.08c-.18,0,.2.2,0,.25l-.14-.13c-.07.09,0,.13.18.28s-.17.16-.4.06c.13.08.28.23.19.26a.43.43,0,0,1-.15-.11c-.26.07.15.4-.16.38l-.15-.06c.08-.13.15-.22.16-.21-.22-.12-.32,0-.59-.29.13.18.41.53.25.57l-.08,0,0,0s0,0,0,.09-.1,0-.12,0c-.19-.1-.17.06-.21.11.25.13.17.18.41.23,0,0,0,0,0-.07a0,0,0,0,0,0,0h0s0-.08.06-.14c.1.11.18.22,0,.2l.35.3c-.38-.12-.65-.09-.86-.2,0,.24-.14.43.25.81,0,.08-.16,0-.24,0s0-.09-.06-.14c.06.16-.13.3.18.51-.22,0-.25-.24-.3-.05l-.08-.08c-.7,0,.49,1-.37,1a.21.21,0,0,1,.13,0c-.53.23-.23,1-.92,1.12-.16.06,0,.19.15.35l-.27-.13.23.29c.13.3-.81-.07-.51.38l.19.08c-.08.05,0,.3-.23.17,0,0,.17.13.06.11l-.14-.07.13.32c-.18.09-.53-.33-.68-.13a1,1,0,0,0,.39.47s.13,0,.27,0l0,.11a2.37,2.37,0,0,0,1.17.5l-.18-.26.22.07,0,.11c.22.05.07-.08,0-.19a.52.52,0,0,0,.25.07l-.32-.33c.16.07.28.23.41.2-.15-.16-.38-.15-.45-.31.22.05.36.15.24,0a.43.43,0,0,1,.2.15c-.09-.13,0-.19-.16-.34.26.07.06-.24.44,0-.09-.08-.24-.28-.23-.35.4.37.15-.19.62.12-.37-.31,0-.38-.17-.64,0,0,.08.08.06.08s.21,0,.32,0c-.34-.21-.35-.37-.52-.56.38.11.37.29.7.45-.28-.16-.18-.32-.43-.42a1.12,1.12,0,0,1,.44.12c-.42-.26,0-.1-.26-.32.27,0,.41.22.35,0C572.67,206,572.76,206.16,572.76,206.16Zm.89-3.13h0l0,.06Zm.13-.23a.22.22,0,0,0-.07.09c-.09,0-.17-.09-.15-.12S573.69,202.79,573.78,202.8Zm-2-.48c0-.06,0,0,.09,0v.08l0,0Z" style="fill:#e7e6e5"/><path d="M572.09,202.56a0,0,0,0,1,0,0h.07l-.07-.06Z" style="fill:#e7e6e5"/><path d="M576.74,212h0a.06.06,0,0,1,0,0Z" style="fill:#e7e6e5"/><polygon points="575.85 199.64 575.79 199.62 575.84 199.66 575.85 199.64" style="fill:#e7e6e5"/><path d="M578.07,213.12a.17.17,0,0,0,0,.07A.17.17,0,0,0,578.07,213.12Z" style="fill:#e7e6e5"/><path d="M578.7,213.22l.09.11A.65.65,0,0,0,578.7,213.22Z" style="fill:#e7e6e5"/><path d="M579.19,213.38v-.12h0Z" style="fill:#e7e6e5"/><path d="M571.3,211.51h0C571.2,211.51,571.24,211.52,571.3,211.51Z" style="fill:#e7e6e5"/><path d="M573.81,212.14a.53.53,0,0,1-.12.1S573.75,212.29,573.81,212.14Z" style="fill:#e7e6e5"/><polygon points="569.19 209.05 569.2 209.05 569.19 209.03 569.19 209.05" style="fill:#e7e6e5"/><path d="M573.59,212.19c0,.07.06.07.1.05S573.64,212.17,573.59,212.19Z" style="fill:#e7e6e5"/><path d="M581.31,213.52h0v0Z" style="fill:#e7e6e5"/><path d="M581.34,213.49l0,0S581.34,213.45,581.34,213.49Z" style="fill:#e7e6e5"/><path d="M581.42,213.38l-.06.07S581.41,213.46,581.42,213.38Z" style="fill:#e7e6e5"/><path d="M580.66,213.4v0Z" style="fill:#e7e6e5"/><path d="M580.46,213.43s.12.22.19.16v-.08C580.63,213.66,580.51,213.26,580.46,213.43Z" style="fill:#e7e6e5"/><path d="M579.67,212.17l.16.08c0-.11-.06-.26,0-.28C579.65,211.64,579.88,212.21,579.67,212.17Z" style="fill:#e7e6e5"/><path d="M579.18,212c.09-.05,0-.16,0-.22C579.14,211.87,579.12,211.89,579.18,212Z" style="fill:#e7e6e5"/><path d="M575.7,211.59l.06-.25C575.7,211.36,575.74,211.43,575.7,211.59Z" style="fill:#e7e6e5"/><polygon points="574.71 212.71 574.74 212.88 574.83 212.66 574.71 212.71" style="fill:#e7e6e5"/><polygon points="574.84 210.84 574.88 210.81 574.75 210.87 574.84 210.84" style="fill:#e7e6e5"/><path d="M571.43,207.79l-.31.06C571.18,207.88,571.53,207.83,571.43,207.79Z" style="fill:#e7e6e5"/><path d="M571.35,205.56c.16,0,.28,0,.14-.1S571.32,205.52,571.35,205.56Z" style="fill:#e7e6e5"/><polygon points="575.73 199.55 575.77 199.66 575.77 199.52 575.73 199.55" style="fill:#e7e6e5"/><path d="M126.77,248.41Q138.85,236.7,151,225.1l-2.39-.63c1.82,6.57,3.72,13.13,5.62,19.68a1.58,1.58,0,0,0,2.63.69q14.92-17.67,29.72-35.46a1.57,1.57,0,0,0-.68-2.59q-5-1.23-9.88-2.51c-2-.51-2.83,2.58-.85,3.06q5,1.2,9.9,2.44l-.68-2.59q-14.91,17.7-29.76,35.43l2.63.7c-1.94-6.55-3.87-13.09-5.89-19.61a1.44,1.44,0,0,0-2.39-.63Q137.17,235,125.2,246.84a1.11,1.11,0,0,0,1.57,1.57Z" style="fill:#e7e6e5"/><path d="M187,219.63c0-1.91.3-3.77.29-5.67s-.26-3.79-.17-5.67c.11-2.08-3.4-2-3.17,0s.08,3.79.19,5.67.5,3.76.64,5.67a1.11,1.11,0,0,0,2.22,0Z" style="fill:#e7e6e5"/><path d="M206.16,168.68c.07-.06.14-.24.05-.25l-.2.27Z" style="fill:#e7e6e5"/><path d="M206,167.87a1,1,0,0,0-.48.58c.24-.23.19-.1.46-.38.09,0,.08.16,0,.26.06-.06.07.13.21,0s-.09-.35-.31-.23C205.87,168,205.94,167.92,206,167.87Z" style="fill:#e7e6e5"/><path d="M199.67,163.17v.06A.06.06,0,0,0,199.67,163.17Z" style="fill:#e7e6e5"/><path d="M196,160a.07.07,0,0,0,.09,0S196,160,196,160Z" style="fill:#e7e6e5"/><path d="M195.63,159.16l0,.05S195.65,159.15,195.63,159.16Z" style="fill:#e7e6e5"/><path d="M199.67,163.17l0-.16C199.55,163.09,199.63,163.11,199.67,163.17Z" style="fill:#e7e6e5"/><path d="M204.63,168a.19.19,0,0,0,.11,0h-.08Z" style="fill:#e7e6e5"/><path d="M201.54,164.21l0,0,.11-.1Z" style="fill:#e7e6e5"/><path d="M202.93,165.07s-.19.2-.27.29c.08-.08.13-.11.17-.11Z" style="fill:#e7e6e5"/><path d="M204.87,166.85h0Z" style="fill:#e7e6e5"/><path d="M200.63,163.48l.05-.09A.41.41,0,0,0,200.63,163.48Z" style="fill:#e7e6e5"/><path d="M165.46,133.89l0,0S165.45,133.88,165.46,133.89Z" style="fill:#e7e6e5"/><polygon points="164.71 131.65 164.74 131.65 164.84 131.52 164.71 131.65" style="fill:#e7e6e5"/><path d="M194.74,157.89h0C194.8,157.9,194.78,157.89,194.74,157.89Z" style="fill:#e7e6e5"/><path d="M184.7,148.24c-.07.29-.41,0-.45.41C184.31,148.55,184.72,148.5,184.7,148.24Z" style="fill:#e7e6e5"/><path d="M204.61,168l-.06,0A.09.09,0,0,0,204.61,168Z" style="fill:#e7e6e5"/><path d="M184.25,148.65h0v0Z" style="fill:#e7e6e5"/><path d="M192.09,155.63a.34.34,0,0,0-.06.12A.44.44,0,0,0,192.09,155.63Z" style="fill:#e7e6e5"/><path d="M193.7,157.71l0-.07A.1.1,0,0,0,193.7,157.71Z" style="fill:#e7e6e5"/><path d="M190.84,155s0-.07-.05-.08,0,0,0,0S190.84,154.92,190.84,155Z" style="fill:#e7e6e5"/><path d="M189.84,154l0,.06.05,0Z" style="fill:#e7e6e5"/><path d="M168.9,136.36a.86.86,0,0,1,.11-.24C168.9,136.29,168.69,136.22,168.9,136.36Z" style="fill:#e7e6e5"/><path d="M204.71,167.89c0,.05-.07.08-.1.08h0A.16.16,0,0,0,204.71,167.89Z" style="fill:#e7e6e5"/><path d="M189.24,156.53l-.13-.19A1.07,1.07,0,0,0,189.24,156.53Z" style="fill:#e7e6e5"/><path d="M176.37,143.08l-.06,0A0,0,0,0,0,176.37,143.08Z" style="fill:#e7e6e5"/><path d="M188.61,155.89a.43.43,0,0,0,0-.23l-.07,0Z" style="fill:#e7e6e5"/><path d="M169,136.12Z" style="fill:#e7e6e5"/><path d="M167.45,135.73c.16.14.3-.22.47-.36.26.07-.08.29-.13.49.18,0,.49-.17.57-.09s0,.09-.09.13c.31-.13.39.3.78.13l0,.09a1.81,1.81,0,0,1,.3-.41c.07,0,.28-.08.16.13,0,0-.11,0-.18.08l.15,0c-.15.32-.19,0-.35.2.22,0,.59,0,.64.13-.19.28-.35-.13-.38.22l-.1-.24c-.2.52-.09-.12-.32.43.17.26.37.07.54.34.17-.1.16-.23.33-.33.55,0-.29.88.24.74.21-.12.51-.43.53-.11l-.3.24c.19.22.48-.3.54.09-.13.08-.25-.05-.25,0-.05.36.25-.07.37,0l-.2.28c.27.16.69.2,1,.38-.08.06-.19.11-.2.24a1.67,1.67,0,0,1,.84,1.08l.32-.11s0,.14-.11.16c.05.19.13-.13.27-.17s0,.21-.13.24c.38,0,1,.17,1,.6l-.1,0c.09.25.61-.26.58.09h-.06c.29.44.9.63.87,1.24.35-.26.24.49.67.09,0,.41-.13.43,0,.86.07.1.38-.15.52-.09l-.21.22.36-.1-.19.33.15,0a.26.26,0,0,1,.09-.23c.24,0,.2.5.09.61l.52.15c-.09.08-.18,0-.28.07.4,0-.19.26.17.22,0-.07.15-.12.19-.16a.48.48,0,0,0,.34.48l-.18.13c.21.29.6.46.87.74,0-.17.26-.41.36-.35l-.19.26c.19-.09,0-.17.28-.23.08.13-.19.33-.33.34l.21,0c-.06.08-.13.08-.22.16.19-.09,0,.45.31.28l-.06.08c.27.28.48.33.72.55.21-.19.25-.06.48-.15.1.23.13.58.35.76s.21-.12.39-.17c-.17.19.05.38-.19.4a2.05,2.05,0,0,0,.8.45c0-.11,0-.18.12-.22s0,.2-.05.28h0c.61.09.25,1.33.9,1.24h0l.48.1c.1.17-.22.06-.23.26.61,0,.43.54.89.6-.35.73.72.68.64,1.28l.11-.14c.19-.05,0,.16,0,.24.09-.1,0-.19.15-.21.73.44,1,1.4,1.48,2.12.18.25.78-.52.75,0l-.31.16c.72.16.88.92,1.55,1.12-.08,0-.15.09-.19.05-.08.26.33.35.47.21.06.08-.11.14-.13.25s.44,0,.32.23c0,0-.08,0-.11,0,.15,0,.26.3.4,0,.07.25.4.22.41.46.31-.13.18.39.51.1-.33.31,0,.55.29.5-.14.06,0,.19-.19.28a.26.26,0,0,0,.43,0c-.15.6.75.11.4.73a6.33,6.33,0,0,1,1.36.59c-.32.32-.39-.31-.7,0,.44.16.88,0,1.11.41,0,.12-.18.1-.26.13.43.15.56.6,1,.66a.22.22,0,0,1-.15,0c.07,0,.09.16.22,0h-.09c.11-.3.64-.26.75-.37-.49.35.18.36-.47.77a.31.31,0,0,0,.26-.13c0,.07,0,.15-.17.22.27.09.35-.13.52,0-.06.07-.13.07-.22.14.22-.06.44-.13.53.07,0,0-.08.11-.13.07.28.21.79,0,1,.41-.37.24,0,.19-.23.48l.23.06,0-.2c.13.13.43,0,.47.23l-.2,0a2.14,2.14,0,0,0,.3.17l-.06-.23c.27,0,.3-.37.41-.14-.06,0,.14.12.07.35h0c.15,0,.3-.07.34.08s-.28.3-.32.37c.27-.18.38.21.68,0a.67.67,0,0,0-.22.23l.22-.15c0,.11,0,.15-.12.26.17.2.25-.41.34-.07,0,0,0,0-.11,0,.17.27.55.24.68.51-.17.35-.24-.08-.37.23.35.2.91.17,1.16.48l0-.07c.37-.39.06.37.37.29-.06,0-.23.2-.18.16.16.22.51.22.93.32l-.13.08c.05.19.29.3.38.45.13-.07.19,0,.26-.19,0,.93,1,.25,1,1,0,0-.18,0-.14.05l.39.12c.11-.21,0-.15.08-.34a.36.36,0,0,1,.35-.06c-.23,0-.21.31-.22.46a1.18,1.18,0,0,1,.13-.18c-.07.45.29-.37.36,0l-.08.09c.12,0,.29-.08.37,0-.11.25-.16,0-.29.22.14.08.54-.24.51,0-.1,0-.18,0-.28,0,0,.35,0,.29.09.4h0l.14.26v-.11c.55-.47.41.12.88-.12-.45.22-.17.19-.35.43,0,.11,0,.25,0,.3.24-.13.08.28.42.08,0,.09.1.08,0,.27.18,0,.06-.16.13-.26.38-.14.29.67.85.45.37,0,.59-.26.92-.26,0,.18-.25.27-.25.27.06.2.18.24.37.21-.07.06-.08.14-.1.26s.25-.27.31-.07a1.54,1.54,0,0,1-.29.28c.17,0,.38-.09.54-.1,0,.17-.2.18-.3.25.18,0,.45.08.62-.13l0-.14c.05,0-.09.22-.15.24-.22.12-.13-.18-.09-.27h.12c.18-.56-.4-.13-.57-.26l.28-.32-.36.2c0-.12.11-.34.23-.34,0-.25-.19.06-.19-.2,0,0,0,0,0-.06l-.18,0c.07-.06.12-.27.17-.17-.1-.34-.52.06-.44-.26h0c-.38-.06-.19.25-.61.42l.24-.74-.19.25a.12.12,0,0,1,0-.18c-.23.11,0,.12-.22.25,0-.33-.48-.16-.25-.59-.18.16,0,.24-.2.27.23-.47-.23,0-.24-.34.19-.2.24,0,.23-.28-.33.33-.21-.26-.37-.26-.2.3-.33,0-.59-.07.08-.09-.25-.4-.35-.63l0,0c-.24.28-.39.1-.56.07.13-.18.2-.23.33-.26l-.13-.08a.31.31,0,0,1-.27.08l.19-.21c-.18-.09-.52,0-.62-.27-.16.2-.25.71-.57.68.07-.12.2-.32.29-.32s-.13,0-.13,0l.22-.13c0-.15-.16.12-.23.05.12-.16,0-.16.13-.28s0,.12.1.08a.48.48,0,0,1-.05-.41c-.06.09-.15.21-.23.19s.08-.24,0-.39c-.12.08-.14-.11-.31.13,0,0,0-.16.05-.23-.16,0-.41-.26-.5.06v0h0c-.45,0-.47-.56-.82-.66l.06-.08c-.23,0-.4-.21-.64-.14-.05,0,0-.23.1-.3-.17,0-.25,0-.32-.24.22,0,.05-.15.2,0-.1-.19,0-.34-.37-.27.21-.15.08-.34,0-.34v.23a.5.5,0,0,1-.23-.2l.25-.22c-.05-.57-1,.06-.81-.66-.23.11.07.26-.18.41-.12-.15,0-.64,0-.68-.07-.3-.5.22-.62-.05-.05.11-.23.37-.46.33s.15-.53.3-.52,0,.06,0,.09.17,0,.2-.13l-.1.08c0-.15-.19-.32,0-.42-.18,0-.17.1-.13.22-.07-.29-.28-.26-.39-.51,0,.08-.08.21-.11.18-.17-.36-.27.06-.49-.07,0-.23.33-.29,0-.34,0-.19.19-.26.3-.29-.32,0-.22-.39-.29-.51h.16a.28.28,0,0,1-.18-.09l-.11.22c0-.07-.07-.11,0-.19-.16.07-.22.34-.47.4,0-.15-.3-.1-.11-.35.14.27.19-.26.4-.13q-.09,0-.12-.12s.05,0,.07,0c0-.4-.33.17-.54,0,.14-.1.17-.29.11-.29.09.08-.15.25-.33.28,0-.23-.22-.06-.28-.14l0,.13c-.15.1-.2,0-.34,0,.09-.1.15,0,.16-.06-.32.13,0-.46-.31-.45,0-.15.22-.25.22-.36-.32,0,0-.35-.32-.38-.11.23-.06.19-.34.25l.4.14-.42.08c.08.09.28.07.31.14-.22.06-.18,0-.27.21.13-.37-.38-.07-.35-.37l.41-.43c0-.38-.57-.12-.73-.48l0,.15c-.2.14-.19-.13-.34-.14a.79.79,0,0,0,.19-.36c-.1.11-.19-.2-.48.06l.06-.3c-.14-.28-.64.18-.8-.07.22-.09.22-.28.46-.26-.06-.07-.1-.15-.2-.06.05-.12-.37,0-.3-.19-.09,0-.24.18-.31.09a.21.21,0,0,1,.07-.07c-.07.07-.21,0-.3.2.23-.65-.61-.55-.42-1.1a3.24,3.24,0,0,1-.55-.35c.05,0,.07-.07.08,0-.06-.32-.52.28-.58-.07.12-.33.23,0,.25-.16.43-.49-.32-.19-.19-.6h.06c.05-.26-.43-.09-.57-.3a.4.4,0,0,0,.07-.07,1.18,1.18,0,0,1-.89-.15c.23-.12.17,0,.32-.23-.1,0-.27.32-.48.21.06-.14,0-.34.22-.55l.15.14c.18-.33-.19-.18-.22-.3l.12-.1c-.26-.18-.54.09-.75-.17l-.06.11c-.41.14.05-.26-.29-.19l.25-.32a2.88,2.88,0,0,1-.77-.13,2.08,2.08,0,0,1,.81-.05c-.08-.09-.3-.27-.49-.18.06,0,.18,0,.17.06a.65.65,0,0,1-.73-.09c.57-.51-.29-.58,0-1.12-.49-.1-.49-.68-.86-1-.31.54-.11-.09-.53.36-.11-.06-.13-.1-.11-.13l0-.5c.07-.19.17,0,.27-.12-.14-.21.11-.26.11-.49-.13.18-.28.16-.32,0l-.07.34c-.47,0,.16-.58-.31-.6l.21-.06c-.2-.05-.46-.48-.93-.26,0-.08.11-.22.2-.2-.25-.36-1-.32-1.06-.77l.13-.08c-.09,0-.3.09-.26-.08s.13-.09.11-.12-.34,0-.35-.11l.18,0c-.15-.44-.74-.17-1.06-.36a.66.66,0,0,0,.12-.81l0,0c-.31-.38-.85-.33-1.29-.53.14-.54-.53-.82-.66-1.34,0,.11-.25.24-.34.21s-.42,0-.12-.26l0,0c.22-.34,0-.42-.13-.55l-.39.36c.22-.86-1-.62-.73-1.28-.17,0-.26-.08-.43-.06l.2-.2a1.58,1.58,0,0,0-.56-.6l.2-.09c-.14-.16-.76.4-.91.28l.25-.34c-.26-.25-.28-.77-.81-.74,0,0,.14-.12.19-.09-.11-.13-.29-.67-.64-.2.26-.28-.25-.28-.51-.29l.21-.19c-.36.15-.43.22-.67.13,0-.06.12-.19.13-.09,0-.23-.29.1-.35-.16l.18-.08c-.12-.14-.18-.06-.39,0s-.22-.29-.07-.5c-.12.1-.33.18-.37.05a.22.22,0,0,1,.16-.1c-.1-.36-.57-.07-.55-.42a.36.36,0,0,0,.09-.15,1.74,1.74,0,0,1,.3.32c.17-.19,0-.36.4-.52-.25,0-.74.17-.81-.05l0-.08h0s-.06-.06-.12,0a.44.44,0,0,0-.07-.17c.12-.17-.1-.24-.17-.31-.18.22-.25.1-.31.35,0,0,0,0,.09,0s0,0,.06,0l0,0,.2.15c-.16,0-.3.09-.28-.1l-.41.25c.16-.39.1-.72.22-.93-.33-.08-.61-.4-1.1-.12-.11,0,0-.19,0-.27s.11,0,.18,0c-.22,0-.43-.3-.69,0-.06-.27.31-.18,0-.33l.1-.06c-.09-.83-1.35.13-1.39-.87a.26.26,0,0,1,0,.15c-.39-.73-1.4-.73-1.68-1.59-.11-.21-.27,0-.48,0l.14-.27-.39.16c-.4,0,0-.92-.61-.76l-.08.2c-.09-.12-.43-.17-.28-.34,0,0-.16.14-.14,0l.09-.13-.44,0c-.16-.25.39-.49.08-.75-.16,0-.6.14-.61.26a.27.27,0,0,1,0,.3h-.16c-.28.37-.62.71-.54,1.17l.34-.11-.07.23-.16-.1c0,.24.13.12.26.06a.5.5,0,0,0-.06.26l.43-.24c-.08.17-.29.24-.22.41.2-.11.15-.39.37-.4,0,.23-.16.36,0,.28a.26.26,0,0,1-.19.17c.18,0,.28.12.47,0-.06.27.35.16.08.51a.78.78,0,0,1,.46-.12c-.46.32.29.25-.08.68.39-.3.53.12.89.05,0,0-.1.07-.1,0s0,.25.05.37c.25-.3.47-.23.71-.35-.1.41-.36.3-.54.62.19-.26.43-.07.54-.31a.81.81,0,0,1-.13.46c.32-.38.15,0,.42-.16,0,.3-.25.39,0,.4C167.7,135.71,167.45,135.73,167.45,135.73Zm4.34,2.51h0l-.09-.06Zm.31.27-.13-.13c.06-.08.14-.14.16-.11S172.11,138.41,172.1,138.51Zm.62-2c.08,0,.06.07,0,.12l-.12-.06,0,0A.44.44,0,0,1,172.72,136.47Z" style="fill:#e7e6e5"/><path d="M172.38,136.67h0v.08l.08-.05Z" style="fill:#e7e6e5"/><path d="M199.69,163.24h0v0Z" style="fill:#e7e6e5"/><polygon points="175.94 142.85 175.99 142.8 175.92 142.82 175.94 142.85" style="fill:#e7e6e5"/><path d="M201,165.39a.19.19,0,0,0,0,.07S201,165.42,201,165.39Z" style="fill:#e7e6e5"/><path d="M201.81,166l.06.16A.53.53,0,0,0,201.81,166Z" style="fill:#e7e6e5"/><path d="M202.38,166.55l.08-.1h0Z" style="fill:#e7e6e5"/><path d="M192.46,159.13h0C192.34,159.11,192.39,159.13,192.46,159.13Z" style="fill:#e7e6e5"/><path d="M195.64,161.08l-.17,0C195.5,161.16,195.54,161.2,195.64,161.08Z" style="fill:#e7e6e5"/><polygon points="189.26 156.55 189.26 156.54 189.25 156.53 189.26 156.55" style="fill:#e7e6e5"/><path d="M195.34,161a.12.12,0,0,0,.13.11S195.41,161,195.34,161Z" style="fill:#e7e6e5"/><path d="M205.23,168.39l0,0a.05.05,0,0,1,0,0Z" style="fill:#e7e6e5"/><path d="M205.28,168.38h.05A.05.05,0,0,0,205.28,168.38Z" style="fill:#e7e6e5"/><path d="M205.44,168.36h-.11S205.39,168.42,205.44,168.36Z" style="fill:#e7e6e5"/><path d="M204.39,167.77l-.06.08Z" style="fill:#e7e6e5"/><path d="M204.1,167.64c.05.05.06.28.18.27l.05-.06C204.21,168,204.25,167.52,204.1,167.64Z" style="fill:#e7e6e5"/><path d="M203.64,165.9l.17.21c0-.12.05-.27.16-.23C203.87,165.43,203.89,166.12,203.64,165.9Z" style="fill:#e7e6e5"/><path d="M203.06,165.33c.14,0,.08-.14.12-.18C203.06,165.18,203,165.19,203.06,165.33Z" style="fill:#e7e6e5"/><path d="M198.39,162l.17-.19C198.46,161.74,198.5,161.86,198.39,162Z" style="fill:#e7e6e5"/><polygon points="196.71 162.29 196.69 162.48 196.87 162.33 196.71 162.29" style="fill:#e7e6e5"/><polygon points="197.36 160.47 197.42 160.47 197.23 160.43 197.36 160.47" style="fill:#e7e6e5"/><path d="M190.19,154l-.2.25C190.08,154.25,190.34,154,190.19,154Z" style="fill:#e7e6e5"/><path d="M187,151.23c.08-.14.07-.29-.09-.24C187,151.07,186.94,151.23,187,151.23Z" style="fill:#e7e6e5"/><polygon points="178.51 141.83 178.65 141.81 178.47 141.76 178.51 141.83" style="fill:#e7e6e5"/><path d="M202.68,149.46c-.08,0-.27.07-.21.12l.33-.06Z" style="fill:#e7e6e5"/><path d="M202.21,150a1.34,1.34,0,0,0,.75-.11c-.33,0-.21,0-.59,0-.05,0,.07-.13.19-.16-.09,0,.05-.11-.16-.08s-.21.25,0,.29A.54.54,0,0,1,202.21,150Z" style="fill:#e7e6e5"/><path d="M203.27,155.74l0,0A.05.05,0,0,0,203.27,155.74Z" style="fill:#e7e6e5"/><path d="M203.87,159.26a.07.07,0,0,0-.08,0A.08.08,0,0,0,203.87,159.26Z" style="fill:#e7e6e5"/><path d="M203.62,159.92l0,0S203.6,159.92,203.62,159.92Z" style="fill:#e7e6e5"/><path d="M203.27,155.74l-.08.12C203.3,155.84,203.26,155.79,203.27,155.74Z" style="fill:#e7e6e5"/><path d="M203.2,150.56l-.09,0,0,0Z" style="fill:#e7e6e5"/><path d="M202.62,154.29v0h-.14Z" style="fill:#e7e6e5"/><path d="M202.25,153.13s.27,0,.39-.06a.41.41,0,0,1-.2,0Z" style="fill:#e7e6e5"/><path d="M202.19,151.15l-.05,0Z" style="fill:#e7e6e5"/><path d="M202.78,155.14l-.09,0Z" style="fill:#e7e6e5"/><path d="M184.82,164.37v-.05S184.81,164.37,184.82,164.37Z" style="fill:#e7e6e5"/><polygon points="183.85 162.66 183.88 162.66 183.92 162.5 183.85 162.66" style="fill:#e7e6e5"/><path d="M203.44,161.05Z" style="fill:#e7e6e5"/><path d="M201.67,168.09c.1.25-.16.31,0,.6C201.65,168.58,201.79,168.25,201.67,168.09Z" style="fill:#e7e6e5"/><path d="M203.18,150.61a.06.06,0,0,1,0,0S203.19,150.61,203.18,150.61Z" style="fill:#e7e6e5"/><path d="M201.66,168.69h0l0,0Z" style="fill:#e7e6e5"/><path d="M203.86,163.49l.12,0Z" style="fill:#e7e6e5"/><path d="M204.1,161.61l0,0S204.09,161.62,204.1,161.61Z" style="fill:#e7e6e5"/><path d="M204.29,164.42s-.06,0,0,.07h0S204.25,164.45,204.29,164.42Z" style="fill:#e7e6e5"/><path d="M204.24,165.39h.06v0Z" style="fill:#e7e6e5"/><path d="M187.74,165.27a1.23,1.23,0,0,1,0-.25C187.73,165.21,187.56,165.22,187.74,165.27Z" style="fill:#e7e6e5"/><path d="M203.05,150.61c.07,0,.11,0,.13,0l0,0Z" style="fill:#e7e6e5"/><path d="M206.51,164.49l0,.18A.53.53,0,0,0,206.51,164.49Z" style="fill:#e7e6e5"/><path d="M194.54,168.27l0,0S194.52,168.3,194.54,168.27Z" style="fill:#e7e6e5"/><path d="M206.47,165.22a.63.63,0,0,0-.2.09l.07,0Z" style="fill:#e7e6e5"/><path d="M187.79,165Z" style="fill:#e7e6e5"/><path d="M186.56,165.26c.14.05.19-.32.3-.51.21,0,0,.29,0,.49.14-.05.35-.34.42-.29a.53.53,0,0,1-.05.15c.22-.23.34.12.6-.17a.28.28,0,0,1,0,.09,2.92,2.92,0,0,1,.17-.48c.06,0,.21-.17.14.07,0,0-.08.06-.13.12l.11-.07c-.07.35-.14.08-.23.32.17,0,.44-.26.5-.13-.11.33-.28,0-.26.35L188,165c-.08.55-.08-.07-.18.51.16.17.29-.07.45.11.12-.16.1-.27.22-.42.42-.19-.11.88.28.55.14-.18.33-.57.4-.29l-.21.33c.18.12.34-.46.44-.13-.1.12-.21,0-.19.1,0,.34.18-.16.28-.11l-.11.32c.23,0,.56-.08.82,0a.41.41,0,0,0-.13.28c.36,0,.61.32.81.63l.23-.21s0,.14-.06.18.08-.17.18-.25,0,.19-.06.25c.3-.13.78-.23.85.15l-.07.06c.11.19.43-.46.46-.14l0,0c.3.28.8.21.88.74.23-.36.27.33.54-.2.07.36,0,.43.18.74.06.06.26-.29.38-.3l-.12.28.26-.24-.09.37.12,0a.36.36,0,0,1,0-.24c.19-.07.24.34.18.49l.44-.09c-.06.11-.13.12-.21.17.31-.21-.09.32.18.12a.94.94,0,0,1,.12-.22.3.3,0,0,0,.35.28l-.11.18c.23.16.56.13.85.24-.07-.13.09-.46.19-.46l-.09.31c.13-.16,0-.14.16-.33.09.08-.07.37-.17.45l.17-.06c0,.1-.07.13-.13.24.13-.16.11.4.31.1l0,.09a4,4,0,0,0,.7.13c.1-.26.17-.17.32-.36.14.14.26.43.48.47s.12-.21.24-.35c-.07.25.15.29,0,.43a1.26,1.26,0,0,0,.73,0c0-.11,0-.16,0-.24s.1.14.06.25l0,0c.46-.29.72,1,1.16.47l0,0,.37-.23c.15.07-.11.18,0,.35.4-.36.61.11.93-.16.13.38.36.37.62.28s.49-.18.74,0l-.07-.16c.05-.2.14.06.23.07s-.15-.12-.12-.23a9.63,9.63,0,0,0,2.5-1.26c.21-.27-.68-.66-.13-.77l.23.26a3,3,0,0,1,.22-.92,1.13,1.13,0,0,0,.11-.84c.07,0,.16.07.15.12.26-.06.09-.41-.11-.44,0-.08.18,0,.29,0s-.26-.32,0-.35c0,0,.07.05.08.07s.09-.33-.2-.3c.17-.18-.1-.36.08-.5-.3-.11.17-.31-.27-.36.45,0,.38-.31.17-.43.14,0,.15-.1.34-.05,0-.14-.1-.25-.33-.23.54-.25-.45-.47.24-.62a7.05,7.05,0,0,1-.58-1c.45,0,.09.36.56.31-.22-.31-.63-.45-.55-.78.05-.08.2,0,.28,0-.22-.3,0-.62-.3-.87a.17.17,0,0,1,.13,0c0-.05,0-.14-.15-.11l.06.05c-.28.13-.65-.13-.81-.12.6,0,.11-.29.86-.25a.37.37,0,0,0-.28,0c0-.06.11-.09.27-.06-.14-.18-.34-.08-.37-.25a1.17,1.17,0,0,1,.26,0c-.2-.06-.41-.12-.35-.28.06,0,.14,0,.14,0-.07-.25-.58-.35-.44-.66.44,0,.13-.12.49-.2l-.13-.13-.17.09c0-.13-.31-.19-.21-.33l.17.07-.12-.23-.11.16c-.22-.09-.46.11-.4-.09.05,0,0-.13.18-.24h0c-.13,0-.26-.08-.19-.19s.41-.06.48-.1c-.32,0-.14-.28-.49-.3a1,1,0,0,0,.32,0h-.26c.06-.08.1-.1.26-.12,0-.19-.46.16-.3-.1,0,0,.06,0,.1,0,.06-.23-.24-.38-.16-.6.36-.14.13.15.42,0-.13-.27-.58-.48-.55-.78l0,.06c-.53.09.2-.26-.07-.34a.86.86,0,0,0,.23,0c0-.21-.21-.36-.44-.6h.14c.09-.14,0-.31,0-.44-.14,0-.14-.08-.32,0,.66-.56-.59-.59-.05-1.08,0,0,.14.07.13,0l-.19-.25c-.22.08-.13.07-.29.18s-.26,0-.28-.12c.18.08.36-.1.47-.18a1.74,1.74,0,0,0-.22,0c.36-.25-.45.1-.24-.17l.12,0c-.08-.06-.25-.09-.24-.17.25-.11.14,0,.36,0-.05-.11-.55-.09-.32-.26.08,0,.1.1.19.12.27-.19.19-.18.22-.28h0l.09-.22-.07.07c-.71.05-.2-.25-.69-.32.46.07.25,0,.54-.1.07-.07.14-.17.23-.17-.26,0,.14-.2-.24-.23.09,0,0-.1.22-.15-.11-.09-.15.08-.27.1-.38-.08.26-.53-.25-.65-.25-.17-.58-.12-.79-.27a.4.4,0,0,1,.35,0c.11-.15.06-.23-.08-.3a.42.42,0,0,0,.25-.11c-.05-.07-.36.05-.25-.1a2.6,2.6,0,0,1,.4,0c-.12-.07-.32-.12-.44-.2a.65.65,0,0,1,.39,0,.56.56,0,0,0-.51-.22l-.07.11s.22-.09.27-.08c.23,0,0,.17-.14.21l-.08-.06c-.52.24.18.27.19.42l-.42.06.38.05c-.1.07-.31.15-.4.1-.16.16.17,0,0,.2,0,0,0,0-.07,0l.15.07c-.09,0-.28.1-.24,0-.17.25.39.21.11.36h0c.21.22.3-.06.7,0l-.69.34.3-.06s0,.09-.13.11c.23,0,.13,0,.33,0-.23.21.23.32-.23.48.24,0,.14-.17.33-.08-.49.18.14.13-.06.31s-.17-.11-.37.07c.46-.05,0,.25.08.33.35-.1.2.17.36.3-.12,0-.11.36-.19.55h-.06c.36-.07.34.11.44.2a.59.59,0,0,1-.41,0l0,.11a.28.28,0,0,1,.25.07l-.28,0c.06.14.39.21.27.44.25-.06.65-.33.87-.18a1,1,0,0,1-.43.08s.12,0,.08.07h-.25c-.08.11.2,0,.2.06-.19,0-.13.09-.28.12s.06-.08,0-.09a.42.42,0,0,1-.24.28c.11,0,.26-.07.3,0s-.22.11-.29.21c.14,0,0,.13.31.06,0,0-.12.09-.2.12.15,0,.12.34.41.18v0h0c.34.18,0,.55.14.76l-.1,0c.15.11.14.3.38.36,0,0-.16.14-.27.15.09.09.21.08.08.28-.19-.08-.13.07-.15-.09,0,.16-.19.23.11.32-.26,0-.28.18-.2.23l.16-.14a.28.28,0,0,1,0,.22l-.33,0c-.33.38.78.39.17.75.24,0,.12-.19.4-.18,0,.15-.45.38-.44.42-.15.22.51.08.42.3.12-.05.42-.13.56,0,0,.15-.45.26-.56.2s0-.06,0-.06a.16.16,0,0,0-.23,0h.12c-.1.09-.05.27-.25.26.13.08.2,0,.24-.08-.13.21.06.27,0,.47.06,0,.19-.09.2-.06-.11.29.24.08.32.25-.17.13-.44,0-.26.19-.1.13-.31.07-.41,0,.25.13-.1.33-.12.43l-.11-.07a.13.13,0,0,1,.07.12l.23-.08c0,.05,0,.1-.13.11.17,0,.39-.1.62,0-.11.09.16.19-.15.26.07-.23-.31.07-.39-.1a.07.07,0,0,1,0,.12.06.06,0,0,1-.08,0c-.25.24.37,0,.39.25-.18,0-.32.1-.28.13s.29-.08.43,0c-.11.16.12.14.12.21l.05-.09c.18,0,.17.08.23.16-.14,0-.1-.07-.16,0,.32.07-.3.27-.07.39-.11.08-.33.05-.41.11.25.14-.22.2,0,.35.23-.07.17-.07.41,0l-.19-.26.36.15c0-.09-.17-.17-.13-.22.2.06.14.06.33,0-.34.15.24.21,0,.37l-.59.05c-.25.22.35.33.21.6l.1-.09c.23,0,0,.16.13.24a.86.86,0,0,0-.39.1c.15,0,0,.18.39.19l-.25.12c-.1.21.57.23.51.44-.22-.06-.35,0-.51-.1,0,.06,0,.12.1.12-.12,0,.27.19.08.25.09,0,.29,0,.27.11h-.1c.1,0,.13.12.35.06-.62.19,0,.59-.52.73a.94.94,0,0,1,.08.45s-.09,0-.07,0c-.21.14.54.2.31.37s-.16-.14-.28-.1c-.65-.1,0,.26-.35.31l0,0c-.23,0,.17.27.08.42l-.1,0a.8.8,0,0,1,.34.64c-.21-.14-.09-.11-.34-.19,0,.07.39.15.38.31a1.24,1.24,0,0,1-.55-.12l0-.1c-.35-.12-.06.13-.15.15l-.13-.08c0,.16.31.41.14.53l.1.06c.22.34-.22-.07-.09.21l-.3-.26a.92.92,0,0,1,0,.59c-.1-.28-.08-.46-.16-.66a.29.29,0,0,0,0,.32s0-.13,0-.1c.13.28.11.48,0,.56-.18-.35-.26-.32-.37-.32s-.21,0-.34-.23c-.05.18-.17.18-.3.12s-.24-.11-.37-.07c.13.59-.08,0,0,.62-.07,0-.1,0-.11,0a3.47,3.47,0,0,1-.21-.37c0-.18.07-.13.06-.27s0-.26-.13-.42c0,.21-.06.31-.14.22l.1.29c-.24.32-.14-.53-.38-.24l.09-.18c-.13.09-.39-.06-.6.4,0-.07,0-.24.06-.27-.25-.14-.74.37-.89,0l.06-.14c-.06,0-.17.25-.19.08s.06-.14,0-.15-.21.21-.26.1l.11-.14c-.22-.28-.55.27-.82.28a.71.71,0,0,0-.11-.74l0-.06c-.3-.16-.67.15-1,.19,0-.53-.55-.44-.75-.82a.5.5,0,0,1-.21.33c0-.11-.32.2-.15-.17l0,0c.1-.39-.09-.35-.2-.41l-.22.48c0-.83-.9-.09-.78-.79-.12.09-.21.05-.33.14l.12-.26a.91.91,0,0,0-.53-.28l.14-.17c-.13-.08-.52.67-.65.62l.14-.4c-.25-.1-.34-.55-.74-.31,0-.06.09-.17.14-.16-.11-.07-.32-.47-.53.08.16-.35-.23-.15-.43-.06l.14-.24c-.26.27-.31.36-.5.37,0-.05.06-.21.08-.13-.06-.18-.21.2-.29,0L192,165c-.12-.08-.15,0-.31.17s-.21-.17-.12-.41c-.08.13-.24.29-.28.19a.27.27,0,0,1,.11-.15c-.14-.27-.45.15-.48-.17a.5.5,0,0,0,0-.16c.17.08.3.16.27.17.11-.23,0-.34.25-.61-.19.13-.55.43-.64.26s0-.05,0-.09l0,0s-.06,0-.1,0,0-.1-.08-.12c.07-.2-.11-.17-.18-.21-.1.26-.17.17-.18.42,0,0,0,0,.07,0s0,0,0,0v0l.17.05c-.11.11-.21.19-.22,0l-.28.37c.06-.4,0-.67,0-.9-.27.05-.54-.12-.87.31-.09,0,0-.17,0-.26s.09,0,.14-.07c-.17.08-.38-.1-.55.23-.08-.22.22-.28,0-.31l.07-.09c-.19-.72-1,.6-1.19-.28a.22.22,0,0,1,0,.14c-.4-.52-1.18-.1-1.53-.79-.11-.15-.2.07-.35.21l.06-.3-.26.29c-.3.17-.17-.84-.6-.46l0,.2c-.09-.06-.35,0-.27-.19,0,0-.09.2-.1.08l0-.15-.32.2c-.17-.17.19-.6-.09-.71-.13,0-.42.37-.4.48s.08.13.05.28l-.11.05a2.18,2.18,0,0,0-.16,1.28l.22-.24v.23l-.13,0c0,.23.11.06.19-.05a.62.62,0,0,0,0,.25l.26-.39c0,.18-.16.34-.08.46.12-.18,0-.41.19-.51,0,.22,0,.38.08.23a.41.41,0,0,1-.1.23c.11-.12.22,0,.33-.23,0,.27.28,0,.14.43.06-.09.24-.29.31-.28-.28.46.26.11.05.64.24-.42.41-.09.66-.28,0,0-.06.09-.07.07s.06.21.1.32c.14-.37.31-.4.48-.6,0,.4-.23.41-.31.77.1-.31.3-.23.35-.49a1,1,0,0,1,0,.45c.18-.45.11,0,.28-.3.05.27-.12.44.07.35A.38.38,0,0,1,186.56,165.26Zm3.65.6h0l-.07,0Zm.29.12-.12-.06c0-.1.08-.18.11-.16S190.49,165.89,190.5,166Zm.19-2c.06,0,.06,0,0,.09h-.09l0,0A.63.63,0,0,1,190.69,163.94Z" style="fill:#e7e6e5"/><path d="M190.46,164.24h0v.07l.05-.07Z" style="fill:#e7e6e5"/><path d="M203.31,155.69h0l0,0Z" style="fill:#e7e6e5"/><polygon points="194.17 168.25 194.2 168.19 194.15 168.24 194.17 168.25" style="fill:#e7e6e5"/><path d="M203.81,153.8l.06,0S203.83,153.78,203.81,153.8Z" style="fill:#e7e6e5"/><path d="M203.68,153.06l.06-.12A.22.22,0,0,0,203.68,153.06Z" style="fill:#e7e6e5"/><path d="M203.66,152.48l-.12,0h0Z" style="fill:#e7e6e5"/><path d="M206,161.33v0C206,161.4,206,161.36,206,161.33Z" style="fill:#e7e6e5"/><path d="M204.85,158.74l.15.06C205,158.75,205,158.71,204.85,158.74Z" style="fill:#e7e6e5"/><polygon points="206.51 164.47 206.51 164.47 206.51 164.49 206.51 164.47" style="fill:#e7e6e5"/><path d="M205,158.93c0-.06,0-.1,0-.13S205,158.9,205,158.93Z" style="fill:#e7e6e5"/><path d="M203.08,150.07v0H203Z" style="fill:#e7e6e5"/><path d="M203,150.05l0,0S203,150.05,203,150.05Z" style="fill:#e7e6e5"/><path d="M202.92,150l.08,0S203,150,202.92,150Z" style="fill:#e7e6e5"/><path d="M203.17,150.83l.1,0Z" style="fill:#e7e6e5"/><path d="M203.27,151c0-.06.17-.19.08-.25l-.08,0C203.43,150.8,203.09,151,203.27,151Z" style="fill:#e7e6e5"/><path d="M202.33,152.31l0-.21c-.09.06-.22.15-.27.07C201.84,152.49,202.3,152.06,202.33,152.31Z" style="fill:#e7e6e5"/><path d="M202.34,152.92c-.08-.09-.15,0-.21.05C202.24,153,202.27,153,202.34,152.92Z" style="fill:#e7e6e5"/><path d="M203.4,157l-.25.05C203.2,157.15,203.24,157.06,203.4,157Z" style="fill:#e7e6e5"/><polygon points="204.87 157.54 205.01 157.43 204.77 157.44 204.87 157.54" style="fill:#e7e6e5"/><polygon points="203.19 158.39 203.14 158.37 203.26 158.47 203.19 158.39" style="fill:#e7e6e5"/><path d="M204,165.2h.32S203.91,165.11,204,165.2Z" style="fill:#e7e6e5"/><path d="M203.56,167.74c-.15-.08-.26-.11-.17,0S203.57,167.78,203.56,167.74Z" style="fill:#e7e6e5"/><polygon points="195.94 166.28 196.04 166.21 195.9 166.24 195.94 166.28" style="fill:#e7e6e5"/><path d="M653.14,47.62C653.3,29.56,684,30.76,685,50.74c-1.38-.28-3.88-4.79-5.36-5.36,2.79,2.41,5.84,11.69,8.77-.49" style="fill:none;stroke:#e7e6e5;stroke-linecap:round;stroke-linejoin:round;stroke-width:3px"/><path d="M685,59.34c-.17,18-30.86,16.86-31.83-3.12,1.37.27,3.87,4.78,5.36,5.36-2.79-2.41-5.85-11.69-8.77.49" style="fill:none;stroke:#e7e6e5;stroke-linecap:round;stroke-linejoin:round;stroke-width:3px"/><path d="M290.44,268.65a8.65,8.65,0,0,0-3.68,1.9,5.28,5.28,0,0,0-1.41,2,8,8,0,0,0-.42,2.43c-.26,3,1.38,5.5,3.7,7.27a4.48,4.48,0,0,0,2.22.76,5.65,5.65,0,0,0,2.39.12,6.49,6.49,0,0,0,3.33-1.57,16.39,16.39,0,0,0,1.92-2,4.67,4.67,0,0,0,.47-2,8.53,8.53,0,0,0-.42-4.07,8,8,0,0,0-7.12-4.87,4.51,4.51,0,0,0-1,.11" style="fill:#fff"/><path d="M290.44,267.79c-4.69.26-7.45,4.82-6.66,9.22a8.84,8.84,0,0,0,9.62,7.25c4.8-.64,7.44-5,6.73-9.53-.69-4.37-5.48-8.49-10-7a1,1,0,0,0,.26,2c3.12.34,6.23,1.51,7.19,4.85a5.8,5.8,0,0,1-5.16,7.46c-3.37.11-6-3-6.27-6.19-.26-3.41,1.94-5.14,4.72-6.44a.87.87,0,0,0-.43-1.6Z" style="fill:#e7e6e5"/><path d="M73.1,178.82a7.27,7.27,0,0,0-2.87,1.37,3.86,3.86,0,0,0-1.11,1.4,5.39,5.39,0,0,0-.36,1.72c-.25,2.1,1,3.87,2.76,5.09a3.64,3.64,0,0,0,1.71.52,4.94,4.94,0,0,0,1.84.06,5.38,5.38,0,0,0,2.6-1.14,12.73,12.73,0,0,0,1.51-1.42,3,3,0,0,0,.39-1.41,5.6,5.6,0,0,0-.27-2.87,6,6,0,0,0-5.44-3.36,4.23,4.23,0,0,0-.79.08" style="fill:#fff"/><path d="M73.1,178c-3.6-.09-6.16,3.51-5.53,6.9a6.86,6.86,0,0,0,7.82,5.26,6.22,6.22,0,0,0,5.41-7c-.46-3.45-4.56-6.6-8-5.19-.8.32-1.09,1.73,0,1.93,2,.36,4.34.63,5.3,2.79s-.56,4.42-2.78,5.08a4.24,4.24,0,0,1-5.19-2.93c-.82-2.81,1.3-4.06,3.4-5.21a.87.87,0,0,0-.43-1.6Z" style="fill:#e7e6e5"/><path d="M568.44,24.22a6.29,6.29,0,0,0-2.65,1.37,3.72,3.72,0,0,0-1,1.42,5.81,5.81,0,0,0-.31,1.76A6,6,0,0,0,567.14,34a3.2,3.2,0,0,0,1.6.55,4,4,0,0,0,1.73.09,4.71,4.71,0,0,0,2.4-1.14,10.5,10.5,0,0,0,1.39-1.44,3.32,3.32,0,0,0,.34-1.44,6.13,6.13,0,0,0-.31-2.94,5.8,5.8,0,0,0-5.13-3.52,3.74,3.74,0,0,0-.75.08" style="fill:#fff"/><path d="M568.44,23.36c-3.62-.07-5.74,3.74-5.14,7a6.71,6.71,0,0,0,7.48,5.45c3.74-.66,5.62-4,4.94-7.58-.63-3.33-4.5-6.24-7.81-4.82a1,1,0,0,0,.24,1.83c1.88.37,3.76.7,4.79,2.56a3.83,3.83,0,0,1-2.6,5.66c-2.29.41-4.17-1.45-4.57-3.61-.46-2.5,1.13-3.77,3.11-4.88a.87.87,0,0,0-.44-1.6Z" style="fill:#e7e6e5"/><path d="M618.65,262.59a3,3,0,0,0-1.25.64,1.91,1.91,0,0,0-.48.67,2.9,2.9,0,0,0,1.11,3.28,1.61,1.61,0,0,0,.75.26,2.06,2.06,0,0,0,.82,0,2.24,2.24,0,0,0,1.12-.53,5.2,5.2,0,0,0,.65-.68,1.5,1.5,0,0,0,.16-.67,2.93,2.93,0,0,0-.14-1.38,2.71,2.71,0,0,0-2.41-1.65,1.39,1.39,0,0,0-.35,0" style="fill:#e7e6e5"/><path d="M618.65,262.18a2.67,2.67,0,0,0-2.42,3.28,3.15,3.15,0,0,0,3.51,2.55,2.88,2.88,0,0,0,2.32-3.55c-.3-1.56-2.11-2.92-3.66-2.26a.47.47,0,0,0,.11.86,2.82,2.82,0,0,1,2.24,1.2,1.79,1.79,0,0,1-1.22,2.65,2,2,0,0,1-2.14-1.69c-.21-1.17.53-1.77,1.46-2.29a.41.41,0,0,0-.2-.75Z" style="fill:#fff"/><path d="M204.44,27.22a6.29,6.29,0,0,0-2.65,1.37,3.72,3.72,0,0,0-1,1.42,5.81,5.81,0,0,0-.31,1.76A6,6,0,0,0,203.14,37a3.2,3.2,0,0,0,1.6.55,4,4,0,0,0,1.73.09,4.71,4.71,0,0,0,2.4-1.14,10.5,10.5,0,0,0,1.39-1.44,3.32,3.32,0,0,0,.34-1.44,6.13,6.13,0,0,0-.31-2.94,5.8,5.8,0,0,0-5.13-3.52,3.74,3.74,0,0,0-.75.08" style="fill:#fff"/><path d="M204.44,26.36c-3.62-.07-5.74,3.74-5.14,7a6.71,6.71,0,0,0,7.48,5.45c3.74-.66,5.62-4,4.94-7.58-.63-3.33-4.5-6.24-7.81-4.82a1,1,0,0,0,.24,1.83c1.88.37,3.76.7,4.79,2.56a3.83,3.83,0,0,1-2.6,5.66c-2.29.41-4.17-1.45-4.57-3.61-.46-2.5,1.13-3.77,3.11-4.88a.87.87,0,0,0-.44-1.6Z" style="fill:#e7e6e5"/></svg>