<?xml version="1.0" encoding="UTF-8"?>
<svg width="40px" height="39px" viewBox="0 0 40 39" version="1.1" xmlns="http://www.w3.org/2000/svg" xmlns:xlink="http://www.w3.org/1999/xlink">
    <!-- Generator: Sketch 48.2 (47327) - http://www.bohemiancoding.com/sketch -->
    <title>Page 1</title>
    <desc>Created with Sketch.</desc>
    <defs>
        <polygon id="path-1" points="0 0.106093317 39.8752381 0.106093317 39.8752381 38.654897 0 38.654897"></polygon>
    </defs>
    <g id="Artboard-11" stroke="none" stroke-width="1" fill="none" fill-rule="evenodd" transform="translate(-255.000000, -38.000000)">
        <g id="Page-1" transform="translate(255.000000, 38.000000)">
            <polygon id="Fill-1" fill="#FFFFFF" points="7.87311111 22.5448457 7.87311111 8.03871711 17.7607302 8.03871711 17.7607302 11.5119075 11.8321587 11.5119075 11.8321587 13.9228869 16.6642222 13.9228869 16.6642222 17.15105 11.8321587 17.15105 11.8321587 22.5448457"></polygon>
            <g id="Group-7" transform="translate(0.000000, 0.213401)">
                <path d="M28.8053333,21.1259874 C27.7767619,21.9977991 26.5923175,22.4335452 25.2523175,22.4335452 C24.3183492,22.4335452 23.4250159,22.266786 22.5723175,21.9329483 C21.719619,21.5991106 20.9751746,21.11257 20.3389841,20.4720488 C19.7027937,19.8321665 19.1951746,19.0488457 18.8164444,18.1227255 C18.4370794,17.1962858 18.247873,16.1407835 18.247873,14.9558991 C18.247873,13.9342598 18.4370794,12.9841799 18.8164444,12.1056595 C19.1951746,11.2271391 19.7164444,10.4645834 20.379619,9.81767297 C21.0427937,9.17044304 21.824381,8.65994283 22.7246984,8.28521396 C23.6246984,7.91080454 24.5958095,7.72328037 25.6380317,7.72328037 C26.287873,7.72328037 26.9100952,7.79483985 27.5059683,7.93763934 C28.1015238,8.0807583 28.6532698,8.29192266 29.1608889,8.57113241 C29.6681905,8.85034216 30.1250159,9.18386045 30.5313651,9.57232619 C30.9370794,9.96047247 31.2688254,10.3997327 31.5259683,10.8901068 L28.5821587,13.1579672 C28.2977143,12.5858108 27.8713651,12.1261051 27.3031111,11.7785305 C26.7345397,11.4312753 26.132,11.2578075 25.496127,11.2578075 C25.0221587,11.2578075 24.5891429,11.3530071 24.1964444,11.5437259 C23.8040635,11.7347642 23.4656508,12.0005565 23.1815238,12.3404641 C22.8973968,12.6810105 22.6739048,13.0864077 22.5113651,13.5563363 C22.3491429,14.0259454 22.267873,14.5405986 22.267873,15.0990181 C22.267873,15.670855 22.3491429,16.1887028 22.5113651,16.6516032 C22.6739048,17.1145036 22.900254,17.5131921 23.1916825,17.8467104 C23.4824762,18.1805481 23.8313651,18.4393123 24.2370794,18.6230029 C24.6434286,18.807013 25.0964444,18.8990181 25.5977143,18.8990181 C26.747873,18.8990181 27.7631111,18.4223808 28.6431111,17.4687869 L26.1456508,17.4687869 L26.1456508,14.608644 L32.0742222,14.608644 L32.0742222,22.3313174 L28.8053333,22.3313174 L28.8053333,21.1259874 Z" id="Fill-2" fill="#FFFFFF"></path>
                <g id="Group-6">
                    <mask id="mask-2" fill="white">
                        <use xlink:href="#path-1"></use>
                    </mask>
                    <g id="Clip-5"></g>
                    <path d="M3.21615873,26.3278504 L22.4755238,26.3278504 L22.4755238,32.6998386 L32.2437778,26.3278504 L36.6593333,26.3278504 L36.6593333,12.9935082 C36.6593333,7.67191089 32.3567937,3.34256242 27.0685397,3.34256242 L3.21615873,3.34256242 L3.21615873,26.3278504 Z M19.2593333,38.654929 L19.2593333,29.5643195 L-3.17460317e-05,29.5643195 L-3.17460317e-05,0.106093317 L27.0685397,0.106093317 C34.1304444,0.106093317 39.8755238,5.88739639 39.8755238,12.9935082 L39.8755238,29.5643195 L33.1948889,29.5643195 L19.2593333,38.654929 Z" id="Fill-4" fill="#FFFFFF" mask="url(#mask-2)"></path>
                </g>
            </g>
        </g>
    </g>
</svg>