<?xml version="1.0" encoding="UTF-8"?>
<svg width="40px" height="39px" viewBox="0 0 40 39" version="1.1" xmlns="http://www.w3.org/2000/svg" xmlns:xlink="http://www.w3.org/1999/xlink">
    <!-- Generator: Sketch 48.2 (47327) - http://www.bohemiancoding.com/sketch -->
    <title>Page 1</title>
    <desc>Created with Sketch.</desc>
    <defs></defs>
    <g id="Artboard-11-Copy" stroke="none" stroke-width="1" fill="none" fill-rule="evenodd" transform="translate(-255.000000, -38.000000)">
        <g id="Page-1" transform="translate(255.000000, 38.000000)" fill="#485465">
            <polygon id="Fill-1" points="7.87311111 22.5448457 7.87311111 8.03871711 17.7607302 8.03871711 17.7607302 11.5119075 11.8321587 11.5119075 11.8321587 13.9228869 16.6642222 13.9228869 16.6642222 17.15105 11.8321587 17.15105 11.8321587 22.5448457"></polygon>
            <path d="M28.8053333,21.339388 C27.7767619,22.2111997 26.5923175,22.6469458 25.2523175,22.6469458 C24.3183492,22.6469458 23.4250159,22.4801866 22.5723175,22.1463489 C21.719619,21.8125111 20.9751746,21.3259706 20.3389841,20.6854493 C19.7027937,20.045567 19.1951746,19.2622463 18.8164444,18.3361261 C18.4370794,17.4096864 18.247873,16.3541841 18.247873,15.1692997 C18.247873,14.1476604 18.4370794,13.1975805 18.8164444,12.3190601 C19.1951746,11.4405397 19.7164444,10.677984 20.379619,10.0310736 C21.0427937,9.38384363 21.824381,8.87334342 22.7246984,8.49861454 C23.6246984,8.12420513 24.5958095,7.93668096 25.6380317,7.93668096 C26.287873,7.93668096 26.9100952,8.00824044 27.5059683,8.15103993 C28.1015238,8.29415889 28.6532698,8.50532325 29.1608889,8.784533 C29.6681905,9.06374275 30.1250159,9.39726103 30.5313651,9.78572678 C30.9370794,10.1738731 31.2688254,10.6131332 31.5259683,11.1035074 L28.5821587,13.3713678 C28.2977143,12.7992114 27.8713651,12.3395057 27.3031111,11.9919311 C26.7345397,11.6446759 26.132,11.4712081 25.496127,11.4712081 C25.0221587,11.4712081 24.5891429,11.5664077 24.1964444,11.7571265 C23.8040635,11.9481648 23.4656508,12.2139571 23.1815238,12.5538646 C22.8973968,12.8944111 22.6739048,13.2998083 22.5113651,13.7697369 C22.3491429,14.2393459 22.267873,14.7539992 22.267873,15.3124187 C22.267873,15.8842556 22.3491429,16.4021034 22.5113651,16.8650038 C22.6739048,17.3279042 22.900254,17.7265927 23.1916825,18.060111 C23.4824762,18.3939487 23.8313651,18.6527129 24.2370794,18.8364035 C24.6434286,19.0204136 25.0964444,19.1124187 25.5977143,19.1124187 C26.747873,19.1124187 27.7631111,18.6357814 28.6431111,17.6821875 L26.1456508,17.6821875 L26.1456508,14.8220446 L32.0742222,14.8220446 L32.0742222,22.5447179 L28.8053333,22.5447179 L28.8053333,21.339388 Z" id="Fill-2"></path>
            <path d="M3.21615873,26.5412509 L22.4755238,26.5412509 L22.4755238,32.9132392 L32.2437778,26.5412509 L36.6593333,26.5412509 L36.6593333,13.2069088 C36.6593333,7.88531148 32.3567937,3.55596301 27.0685397,3.55596301 L3.21615873,3.55596301 L3.21615873,26.5412509 Z M19.2593333,38.8683296 L19.2593333,29.7777201 L-3.17460317e-05,29.7777201 L-3.17460317e-05,0.319493905 L27.0685397,0.319493905 C34.1304444,0.319493905 39.8755238,6.10079697 39.8755238,13.2069088 L39.8755238,29.7777201 L33.1948889,29.7777201 L19.2593333,38.8683296 Z" id="Fill-4"></path>
        </g>
    </g>
</svg>
