<svg xmlns="http://www.w3.org/2000/svg" viewBox="0 0 320 160"><title>ferguevara-ilus</title><g style="isolation:isolate"><path d="M142.51,72.23c15.62-3.64,29.05-6.9,44.63-1.43,6.5,2.29,16.07,5.28,21.39,9.75a15,15,0,0,1,5.22,12.09c-.16,5.14-2.92,5.36-5.27,9.15,3.9,4.44,2.05,10.24-1.6,14.25-3.3,3.61-5.84,5-7,9.2-1.77,6.35-5,8.09-10,12.06-3.69,2.93-6.17,8.09-11.08,10.31-7.61,3.43-13.46-.72-20.4-3.87-9.1-4.14-19.12-5.8-28.49-9.14-5.73-2-12.31-4-14.54-10.47-1.24-3.57-.25-7.39-.1-10.93-1.07,4.08-1.08,9.76,1.93,12.93-3.36-.23-17.42-3.23-20.11-5.18-3.44-2.5-2.44-10.2-2.27-14.67.23-5.93.59-11.77,2.51-17.41,2.06-6,2.18-8.87,9.18-7.87,4.71.67,8.24.38,15-3C131.5,73,137.58,74.81,142.51,72.23Z" style="fill:#edd15d"/><path d="M142.83,73.38c7.87-1.65,15.69-3.65,23.75-4.06a58,58,0,0,1,22.74,3.76c6.06,2.14,13,4.43,17.94,8.73a13.37,13.37,0,0,1,4.67,10.83c-.31,3.58-3.13,5.47-5,8.22a1.78,1.78,0,0,0,0,1.86c5,6.77-1.33,11.64-5.55,16.46-3,3.38-3.25,8-6.15,11.32-2.75,3.18-6.59,5.19-9.41,8.32-4.44,4.93-8.85,9.67-16.2,7.8-5.44-1.39-10.32-4.74-15.58-6.68s-10.69-3.25-16.05-4.79c-5-1.42-10.59-2.83-15.1-5.45-6.74-3.91-6.15-9.67-5.81-16.5.1-2-3.08-2.44-3.49-.47-1,5.09-.82,10.35,2.48,14.56l1.16-2.79a67.38,67.38,0,0,1-9.85-2c-2.78-.7-7.44-1.23-9.48-3.39-2.71-2.85-1.4-9.24-1.23-12.85a69.38,69.38,0,0,1,2.85-18.17c.53-1.64.85-3.76,2.3-4.83,1.84-1.35,4.31-.53,6.43-.38a23.1,23.1,0,0,0,10.6-1.84c5-2,9.52-4.31,14.92-5.22,3.34-.55,6.43-.8,9.39-2.58,1.12-.68.4-2.64-.92-2.19-4.48,1.55-9.4,1.41-14,2.62-6.24,1.64-11.73,6-18.35,5.9-3.5,0-7.49-1.52-10.52,1s-4.21,8.62-5,12.1c-1.29,6-1.51,12.31-1.65,18.43-.08,3.65,0,8.58,3.09,11.12,2.47,2,6.42,2.65,9.42,3.37a82.1,82.1,0,0,0,11.93,2.2c1.57.13,2-1.81,1.16-2.79-2.68-3.32-2.34-7.44-1.37-11.3l-3.49-.48c-.68,7.45-1,14,5.78,18.73s15.9,6.35,23.63,8.52a110.05,110.05,0,0,1,14.77,5c4.08,1.79,8,4.22,12.48,5,8.23,1.45,13.15-3.49,18.16-9.07,4.56-5.07,10.21-7.64,12.85-14.26,1.13-2.85,2-4.77,4.11-6.95a43.12,43.12,0,0,0,3.89-4.22,14.48,14.48,0,0,0,3.26-8.91c0-1.54-1-2.87-1.11-4.27-.16-1.93.67-2.24,1.91-3.74,2.09-2.54,2.59-5.4,2.25-8.66C214.68,82.72,209.35,78,202.7,75c-8.38-3.85-18.17-7.24-27.35-8.15-11.17-1.1-22.41,1.52-33.15,4.27A1.2,1.2,0,0,0,142.83,73.38Z" style="fill:#917916"/><path d="M112.5,81c10.53-1.78,15.13-3.57,15.86-15.25.7-11.28-8-21.6-7.2-32.59C122.27,18,135.77,15.67,145.35,26c7,7.59,8.88,18.66,8.42,28.67-.38,8.2-2.68,17.67-7.17,24.76" style="fill:#edd15d"/><path d="M112.84,82.23c8.73-1.46,15-3.93,16.61-13.39,1-6-.06-11.31-2-17-2.34-6.77-5.73-13.66-4.35-21,1.13-6,5.52-10.58,11.93-9.36,6.91,1.31,11.94,7.87,14.4,14,5.38,13.49,3.33,31-3.73,43.4A1.09,1.09,0,0,0,147.54,80C155.47,67.49,158,50.11,153,36.06c-3.24-9.22-12.69-20.7-23.83-17.42-12,3.55-10.32,19.13-7.18,28.23,2.62,7.6,6.17,15.34,4.28,23.57-1.61,7-8,8.22-14.15,9.33-1.62.29-.92,2.73.68,2.46Z" style="fill:#917916"/><path d="M133.65,35.29c2.56,0,2.56-4,0-4s-2.55,4,0,4Z" style="fill:#917916"/><path d="M141,34.15a1.72,1.72,0,0,0,0-3.43,1.72,1.72,0,0,0,0,3.43Z" style="fill:#917916"/><path d="M131.78,40.13a6.93,6.93,0,0,1,2.33,3.46c.42,1.55-.34,2.4-.81,3.78-.22.67.53,1.52,1.22,1.23,1.93-.82,2.39-3.1,2-5a8.86,8.86,0,0,0-3.46-5.13c-.95-.72-2.2.89-1.28,1.66Z" style="fill:#917916"/><path d="M135.25,44c3.42,1,7.68-.09,9.2-3.57.63-1.44-1.52-2.7-2.13-1.24-1.08,2.53-3.95,3.23-6.44,2.51a1.19,1.19,0,0,0-.63,2.3Z" style="fill:#917916"/><path d="M182.08,81.05c-7-7-16.4-11.8-26.08-7a14.93,14.93,0,0,0-6.68,20.69c4,7.13,12.64,11,20.15,13.08,11,3.11,21.47,1.34,32.57-.3,2.16-.32,1.23-3.57-.9-3.27-15,2.14-30.81,3.9-43.85-5.81-6.27-4.66-9.46-13.14-3.07-19.4,8.12-8,19.29-2.8,26.05,3.86a1.28,1.28,0,0,0,1.81-1.81Z" style="fill:#917916"/><path d="M149.91,95.43c-8.4,7.17-2.3,18.11,4.89,23.63a35.73,35.73,0,0,0,16.64,6.84c6.82.78,13.32-2.1,20.16-1.55,1.87.15,2-2.5.41-3.07-3.35-1.23-7.11-.36-10.52.26-6.3,1.15-11.57,1.21-17.57-1.33-7.93-3.35-21-13.89-12.29-23.06a1.22,1.22,0,0,0-1.72-1.72Z" style="fill:#917916"/><path d="M148.41,112.62c-4.22,6.46-2,14.19,4,18.71,7.75,5.78,19.74,5,28.76,4.24a1.49,1.49,0,0,0,0-3c-3.62-.38-7.2.48-10.84.23a53.79,53.79,0,0,1-11.74-2c-7.18-2.2-12.1-9.87-8.07-16.92a1.22,1.22,0,0,0-2.11-1.23Z" style="fill:#917916"/><path d="M150.47,130.57c-4,4.73-5.32,11.05.27,15,6.31,4.5,19.22,3,26.26.43" style="fill:#edd15d"/><path d="M149.47,129.57c-5.11,6.29-5.67,14.52,2.33,18.73,7.44,3.91,18.12,2.16,25.68-.51,2.19-.77,1.27-4.27-1-3.51a40.41,40.41,0,0,1-17.47,2.16c-3.19-.37-7-1.16-9-3.85-2.89-3.79-.82-8,1.66-11.31,1-1.27-1.2-3-2.22-1.71Z" style="fill:#917916"/><path d="M167.78,83.28c6.3,2.13,17.66,2.5,22.26-3.32a1.49,1.49,0,0,0-2.1-2.1c-4.89,4.33-13.4,4.4-19.43,2.77a1.38,1.38,0,0,0-.73,2.65Z" style="fill:#917916"/><path d="M161.19,34.61c3.61.28,4.9-3.37,7.22-5.18-.94,2.6.25,5.09,2.24,6.83a9.31,9.31,0,0,0-6.35,4.33C164.08,38.39,162.72,36.92,161.19,34.61Z" style="fill:#fff"/><path d="M161.19,35.23c3.83.31,5.27-3.07,7.84-5.18l-1.45-.85c-1,3,.15,5.66,2.35,7.77l.45-1.69a11.06,11.06,0,0,0-7,4.76l2,.26c-.32-2.19-1.71-5.33-3.84-6.23a.63.63,0,0,0-.94.54c0,2.31,2.29,3.93,2.68,6.27.16,1,1.54,1,2,.26a8.85,8.85,0,0,1,5.68-3.91,1,1,0,0,0,.44-1.69c-1.73-1.59-2.73-3.49-2.11-5.88a.87.87,0,0,0-1.45-.84c-2.13,1.81-3.47,5-6.61,5.16A.63.63,0,0,0,161.19,35.23Z" style="fill:#917916"/><path d="M150.33,15.06c2.53.27,3.23-2.25,4.81-3.79.19,1.62.55,3.85,2,5-2,1-3,3.31-4.23,4.79A52.51,52.51,0,0,0,150.33,15.06Z" style="fill:#fff"/><path d="M150.33,15.9c2.8.12,3.76-2.24,5.45-4l-1.53-.63c.24,2.1.59,4.18,2.2,5.69l.2-1.55c-2,1.17-3.08,3.1-4.49,4.89l1.79.47a37.83,37.83,0,0,0-2.89-6.14c-.53-1-1.87-.11-1.46.86.81,1.89,1.6,3.9,2.28,5.85a1.09,1.09,0,0,0,2,.25c1.19-1.57,2.09-3.41,3.81-4.48a1,1,0,0,0,.2-1.54,6.44,6.44,0,0,1-1.81-4.3.91.91,0,0,0-1.53-.63c-1.25,1.32-2.09,3.63-4.18,3.58C149.24,14.19,149.25,15.86,150.33,15.9Z" style="fill:#917916"/><path d="M103.85,33.74c3.52-1.37,3.65-5.51,5.68-8.09.71,4,.94,5.74,4.54,8.08a10.38,10.38,0,0,0-4.32,8.47C107.15,40.22,106.8,36.29,103.85,33.74Z" style="fill:#fff"/><path d="M104.34,34.57c3.64-1.64,4-5.39,6.12-8.38l-2-.25c.69,3.93,1.69,6.39,5,8.75V32.76a12.25,12.25,0,0,0-5.05,9.44l2.2-.91a15.73,15.73,0,0,1-3-4.54,13.19,13.19,0,0,0-3.13-3.69c-.9-.85-2.24.48-1.36,1.36,2.49,2.47,2.93,6.35,5.67,8.69a1.31,1.31,0,0,0,2.2-.91,9.94,9.94,0,0,1,3.82-7.68,1.13,1.13,0,0,0-.22-1.76c-2.91-1.92-3.49-4.16-4.07-7.39-.18-1-1.49-.94-2-.26-1.82,2.59-2.21,6.24-5.24,7.8C102.25,33.48,103.23,35.07,104.34,34.57Z" style="fill:#917916"/><path d="M167.23,90.54c-2.32,3.65-2.4,8.52-1.89,12.7a1.07,1.07,0,0,0,2.13,0c.42-4-.58-8,1.58-11.63a1.06,1.06,0,0,0-1.82-1.07Z" style="fill:#917916"/><path d="M171.83,92.86c-1.44,2.85-2.7,7.42-1,10.4a.9.9,0,0,0,1.64-.22c.32-1.42-.07-2.89-.08-4.34a17,17,0,0,1,.82-5.25.76.76,0,0,0-1.39-.59Z" style="fill:#917916"/><path d="M161.6,109.76c0,3.3-.71,6.15.77,9.27.63,1.33,2.69.16,2-1.17-1.35-2.57-.71-5.33-1-8.1a.9.9,0,0,0-1.79,0Z" style="fill:#917916"/><path d="M166,110.4c-.7,2.84-2,8.6.64,10.81a.86.86,0,0,0,1.44-.59c.12-1.51-.64-3.1-.76-4.63a19.75,19.75,0,0,1,.28-5.15c.18-1-1.34-1.49-1.6-.44Z" style="fill:#917916"/><path d="M159.73,126a14.56,14.56,0,0,0-.34,6.19c.23,1.12,1.83.77,1.9-.26a37,37,0,0,1,.5-5.36c.3-1.34-1.75-1.92-2.06-.57Z" style="fill:#917916"/><path d="M156.51,140.09a7.44,7.44,0,0,0,2.86,8.6c.82.56,2-.57,1.4-1.4-1.47-2-2.68-4-1.85-6.53.5-1.54-1.9-2.18-2.41-.67Z" style="fill:#917916"/><g style="opacity:0.36;mix-blend-mode:darken"><path d="M116.88,113c-.2,3.2-1.57,6.51-.74,9.76,1.15,4.52,4.78,6.65,8.58,8.56,2.83,1.42,20,8.35,20.1,2.84a67.31,67.31,0,0,1-16.27-9c-2.6-1.89-5.41-3.59-7.19-6.28C120.25,117.2,119.88,113.45,116.88,113Z" style="fill:#b2982d"/></g><g style="opacity:0.36;mix-blend-mode:darken"><path d="M150.77,87c-1.75,15,26.65,20.87,37.11,20.85,4.47,0,13.58,2,14.69-3,1.23-5.48-3.7-7.16-8.16-6.82-6.87.51-12.93-.18-19.6-1C167.51,96.15,155.64,93.6,150.77,87Z" style="fill:#b2982d"/></g><g style="opacity:0.36;mix-blend-mode:darken"><path d="M149.46,106.82c2.28,12,16.28,15.44,26.72,15.32,2.53,0,15.47.25,14-3.59-.93-2.51-13.16-3.48-16-3.75C166.07,114,154.89,113.09,149.46,106.82Z" style="fill:#b2982d"/></g><g style="opacity:0.36;mix-blend-mode:darken"><path d="M148.81,121.81c1.75,7.33,4,8.83,10.92,10.58,4.79,1.21,8.61,2.2,13.57,1.73,1.76-.17,7.18.63,7.46-1.72.25-2.17-2.55-2-3.92-2.12-4.61-.44-9.26-.2-13.86-.68-2.33-.24-5.2-.85-7-2.44-1-.89-1.42-2.3-2.46-3.23S151,122.7,148.81,121.81Z" style="fill:#b2982d"/></g><g style="opacity:0.36;mix-blend-mode:darken"><path d="M149.46,134.84c-6.67,10.56,15.49,13.85,21.84,10.67-1.58-1-4.05-.9-5.93-1.62a55.67,55.67,0,0,1-5.47-2.72A102.67,102.67,0,0,1,149.46,134.84Z" style="fill:#b2982d"/></g><g style="opacity:0.36;mix-blend-mode:darken"><path d="M126,45.9c3.65,10.54,14.94,26.52-1.19,33,2.53-4,2.42-10.65,2.94-15.2C128.34,58.53,127.09,54,126,45.9Z" style="fill:#b2982d"/></g></g></svg>