<svg xmlns="http://www.w3.org/2000/svg" viewBox="0 0 320 160"><title>ferguevara-ilus</title><g style="isolation:isolate"><path d="M184.83,92.24c-2.27,2.94-2,3.43-.23,5.86.22.31,4.62,4.41,4.87,4.5,3.86,1.37,6.45-2.94,5.41-6.39,5.13-.83,2.74-5.06-.24-7C189.12,85.61,186.49,88.92,184.83,92.24Z" style="fill:#91ddcb"/><path d="M184.06,91.79c-1.86,2.48-2.3,4.28-.24,6.77a26.42,26.42,0,0,0,4.55,4.29c4.56,3.35,8.43-2.73,7.52-6.91l-.73,1.28c5.38-1,4.15-5.94.62-8.57-2-1.51-4.74-2.67-7.27-1.77-2.29.82-3.34,2.93-4.45,4.91-.56,1,1,1.91,1.53.9,1.38-2.92,3.75-4.77,7-3.34,2.22,1,6.53,4.79,2,5.85a1.07,1.07,0,0,0-.73,1.29c.56,2.13-.19,5.67-3.09,5.48-1.25-.08-2.06-1.18-2.92-2s-1.66-1.46-2.38-2.27c-1.68-1.88-1.32-3.11.11-5C186.27,91.77,184.74,90.9,184.06,91.79Z" style="fill:#2f7762"/><path d="M141.39,47.89c-7.62,5.39-14.6,13.77-15.21,23.46-.82,13.17,10.94,29.5,23.39,33.45,11.62,3.69,24.3,1.45,33.07-7.9,4.33-4.6,8.68-13.07,8.7-19.47,0-9.29-1.9-14.6-7.64-21.77-4.9-6.12-10.2-12.2-18.33-13.44C157.71,41.06,148.06,42,141.39,47.89Z" style="fill:#91ddcb"/><path d="M141.12,47.43c-12,7.57-19.29,20.78-14.35,34.78,4.55,12.89,15.6,23.5,29.42,25.12C170.83,109.05,184.12,101,190,87.6c6-13.58.47-26.4-8.73-36.79-5.3-6-11.32-9.74-19.42-10.23-6.81-.41-16.93.73-20.94,7-.24.37.16,1,.6.78,3.78-1.46,7-3.74,11.08-4.61A34.8,34.8,0,0,1,164,43.31c8.33,1,13.89,7,18.82,13.23,10.87,13.81,9.14,33.68-6,43.92-14.59,9.86-33.24,4.19-42.9-9.5-4.5-6.36-7.71-14.43-6.21-22.33,1.6-8.44,7.75-15,14.1-20.36C142.22,47.88,141.62,47.11,141.12,47.43Z" style="fill:#2f7762"/><path d="M114.58,55.05c-.92,3.48-2.12,7-2.87,10.49-.42,1.94-.26,3.59,1.4,4.87,3.93,3,9.48.69,13.69,2.64,1.45.67,2.72-1.4,1.27-2.17-3.25-1.72-7.29-.87-10.8-1.55-3-.59-3.78-1.89-3.08-4.93s1.34-5.94,1.78-9c.12-.89-1.15-1.3-1.39-.38Z" style="fill:#2f7762"/><path d="M125.13,119.55a69.83,69.83,0,0,1-2,7.68c-1,3-4,7.86-3.9,11,.15,6.25,14.35,9,19.31,10.06,12.09,2.66,22.45,3.84,34.37,1.54,3.72-.72,7.39-1.39,11-2.43s10.89-5.69,13.71-8c-2.27-4.42-1.94-9-4.15-13.41-1.69-3.37-2.43-5.11-6.41-5.82-3.19-.58-6.55-.32-9.82-.32-9.5,0-18.48,1.19-28,1.63C141,121.89,132.61,119.61,125.13,119.55Z" style="fill:#91ddcb"/><path d="M124.41,119.35c-1.44,5.23-3.78,9.92-5.52,15-.94,2.75-1.36,5.3.57,7.67,4.07,5,12.5,6.24,18.41,7.51,20.71,4.45,43.29,4.36,60.65-9.22a1.27,1.27,0,0,0,.2-1.51c-2.46-5.56-2.14-14.11-7.41-18.23-4.22-3.31-12-2-16.88-1.92-8.42.2-16.78,1.36-25.19,1.6-8.11.24-16-1.94-24.11-1.45a.75.75,0,0,0,0,1.5c8,.93,16,2.7,24.11,2.47,8.72-.25,17.39-1.45,26.13-1.61,3.86-.08,9.08-.88,12.72.58,4.27,1.7,5.28,7.37,6.22,11.33.83,3.47,2.62,5.52-.63,7.7a51.42,51.42,0,0,1-8.47,4.83c-15.34,6.45-33.3,4.41-49,.83-4.5-1-11.8-2.21-14.74-6.16-2.33-3.14.49-7.32,1.74-10.38a47.73,47.73,0,0,0,2.64-10.14C126,118.82,124.67,118.4,124.41,119.35Z" style="fill:#2f7762"/><path d="M172.64,110.83c-10.3-2.74-25.2-.74-35.57,1.67-3.95.91-6.59,1.64-9.33,4.89-3,3.51-5.84,8.54-.48,11.47,7.27,4,20.07,5.26,28,5.37,9.91.13,21.39-2.16,30.88-4.91,5.22-1.52,8-4,4.81-9.42C185.42,110.33,168.74,110,172.64,110.83Z" style="fill:#91ddcb"/><path d="M172.85,110c-6.95-1.76-14.16-1.71-21.25-1-6.33.62-13.44,1.3-19.4,3.6-4.09,1.59-8.25,5.94-9.11,10.36s2.41,6.68,6,8.21c12.25,5.15,27.45,5.21,40.34,3.21,6.76-1,29.16-2.67,23-14.54-2.51-4.84-7.1-7.18-12.1-8.73-1.67-.52-7-2.51-8.74-1.23a.84.84,0,0,0-.17,1.3,1.9,1.9,0,0,0,.95.41.82.82,0,0,0,.43-1.58c-.35-.14-.43-.14-.21,0l-.17,1.3c1.58-1.07,8.23,1.83,9.58,2.52,4,2.07,12.5,8.49,6.83,12.94-2.33,1.82-6.83,2.31-9.65,3-3.45.84-6.94,1.55-10.46,2.09a85.34,85.34,0,0,1-19.16.78,69.16,69.16,0,0,1-17.31-3.09c-4.26-1.43-8-3.86-5.5-8.64a13.6,13.6,0,0,1,6.81-6.19c5.76-2.35,12.67-3.14,18.8-3.79,6.66-.71,13.45-.84,20,.68A.82.82,0,0,0,172.85,110Z" style="fill:#2f7762"/><path d="M110.54,51.41c-.33,6.81,19.36,4.11,12.6-5.22" style="fill:#91ddcb"/><path d="M110.09,51.28c-2,5,7,5.31,9.65,4.63,2.15-.55,4.4-1.71,5.45-3.75s.63-5.66-1.55-6.82c-.59-.3-1.58.06-1.48.85.22,1.79,1.83,3.18.83,5-.74,1.37-2.44,2.08-3.86,2.46-2.9.79-6.88.81-8.13-2.41a.48.48,0,0,0-.91,0Z" style="fill:#2f7762"/><path d="M107.94,17.53c-3-3.9-6.77-7.79-10.23-11.57C94.11,2,92.47,1.12,87.6,4.5c-3.31,2.29-5.31,5.55-6.93,9.14-1.37,3-3.77,8.24-3.81,11.49,0,4.24,4.82,5.87,8.52,7.72,5.4,2.69,16.08,10.75,20.38,6.32C111.19,33.58,116.77,24.37,107.94,17.53Z" style="fill:#91ddcb"/><path d="M108.69,17.09C105.35,12.2,100.6,5.28,95.52,2.14c-4-2.45-8.22.4-11.12,3.3-4,4-6.63,10.23-8.18,15.57-1.5,5.14-.26,8.41,4.41,11.06s9.76,5.44,14.69,7.74c3.17,1.48,7.35,3.11,10.6,1,7.08-4.69,12.25-19.44,2.41-23.91-.64-.29-1.52.35-1.06,1.06,2.54,3.88,5,6.82,3.38,11.72-1.06,3.17-4.33,8.93-8,9.49-5.77.91-12.83-5.62-17.74-8-1.68-.83-3.85-1.57-5.18-2.94-2.37-2.44-1.31-5.11-.42-7.78A41.93,41.93,0,0,1,84.66,9.26c1.45-2,4.29-5,6.94-5.41S96.38,6.47,98,8.15c3.12,3.33,6.27,6.64,9.38,10C108,18.85,109.25,17.91,108.69,17.09Z" style="fill:#2f7762"/><path d="M100.65,14.9A25.92,25.92,0,0,0,89.1,34.47c-.13,1.31,2,1.32,2.06,0,.52-7.68,4.34-13.83,10.33-18.48.62-.48-.18-1.52-.84-1.09Z" style="fill:#2f7762"/><path d="M188.85,71.27c2.77,2.45,6.2,4.9,8.21,8.06,3.1,4.89-1,7-4.4,9.88-1.07.89.3,2.6,1.46,1.9,3.47-2.07,7.78-5.2,6.9-9.8-1-5.11-6.82-9.12-10.88-11.71-1-.64-2.2.87-1.29,1.67Z" style="fill:#2f7762"/><path d="M148.12,97c.22,3.62-1.6,6.71-2.25,10.19a35.33,35.33,0,0,0-.2,9.36,1.24,1.24,0,0,0,2.47,0c.38-3.81-.38-7.47.54-11.24.68-2.82,1.61-5.38,1.35-8.31-.11-1.21-2-1.24-1.91,0Z" style="fill:#2f7762"/><path d="M165.59,95.75c.51,6.48,1.91,12.85,2.56,19.32.17,1.72,2.9,1.7,2.69,0-.81-6.59-2.49-13-3.61-19.55-.16-.92-1.72-.71-1.64.23Z" style="fill:#2f7762"/><path d="M166.42,112.93c-3.75,2-2.67,5.73-.29,8.36s6.12,5.29,10,5c2.88-.23,4.66-2.29,4.1-5.18s-2.81-5.61-5.11-7.4c-2.59-2-6.34-3.35-8.91-.62a.86.86,0,0,0,1,1.33c2.45-1.24,5.1,0,7,1.71,1.47,1.31,3.88,4,3.5,6.23-.43,2.51-4.85,1-6.21.24-2.21-1.19-8.15-5.8-4.27-8.18A.85.85,0,0,0,166.42,112.93Z" style="fill:#2f7762"/><path d="M146,113.34c-3.56,1.54-7.72,4.33-9.9,7.58-2.9,4.34,1.2,6.88,5.44,6.66,5.4-.29,9.51-5.21,10.25-10.31.23-1.53.33-3.59-1-4.73-1.62-1.44-3.69-.22-5,.95-.84.73.23,1.83,1.11,1.43,1.32-.6,2.54-1.31,2.73.5a9.27,9.27,0,0,1-.62,3.86c-1.34,3.87-6.39,7-10.41,5.44-2.63-1,.77-4,1.88-5a23.74,23.74,0,0,1,6.42-4.75C148,114.41,147.07,112.88,146,113.34Z" style="fill:#2f7762"/><path d="M119.23,12.75c-13.17-.63-28.87,19.87-22.69,31.61,3.39,6.45,11.55,8.14,18.35,6.29s12.76-11.94,14.31-18.36C131.26,23.77,126.24,14.8,119.23,12.75Z" style="fill:#91ddcb"/><path d="M119.23,12.15c-17.85-1.12-38,32.79-15.11,39.61,11.63,3.46,20.28-4.69,24.62-14.75,2.23-5.18,2.79-10.71.55-16-1.65-3.89-5.4-8.93-10.06-8.86-.48,0-.84.68-.42,1,3.69,3.06,7.07,4.78,8.79,9.71,1.58,4.53.9,9.12-1,13.42-4,9.24-12.29,17-22.94,12.75-19.16-7.63,1.79-35,15.53-35.7A.6.6,0,0,0,119.23,12.15Z" style="fill:#2f7762"/><path d="M115.76,25.34c-5.54.29-14.81,8.48-8.69,13.71C113.58,44.6,124.46,27.33,115.76,25.34Z" style="fill:#2f7762"/><path d="M141.39,44.89c-7.62,5.39-14.6,13.77-15.21,23.46-.82,13.17,10.94,29.5,23.39,33.45,11.62,3.69,24.3,1.45,33.07-7.9,4.33-4.6,8.68-13.07,8.7-19.47,0-9.29-1.9-14.6-7.64-21.77-4.9-6.12-10.2-12.2-18.33-13.44C157.71,38.06,148.06,39,141.39,44.89Z" style="fill:#91ddcb"/><path d="M141.12,44.43c-12,7.57-19.29,20.78-14.35,34.78,4.55,12.89,15.6,23.5,29.42,25.12C170.83,106.05,184.12,98,190,84.6c6-13.58.47-26.4-8.73-36.79-5.3-6-11.32-9.74-19.42-10.23-6.81-.41-16.93.73-20.94,7-.24.37.16,1,.6.78,3.78-1.46,7-3.74,11.08-4.61A34.8,34.8,0,0,1,164,40.31c8.33,1,13.89,7,18.82,13.23,10.87,13.81,9.14,33.68-6,43.92-14.59,9.86-33.24,4.19-42.9-9.5-4.5-6.36-7.71-14.43-6.21-22.33,1.6-8.44,7.75-15,14.1-20.36C142.22,44.88,141.62,44.11,141.12,44.43Z" style="fill:#2f7762"/><path d="M165.44,59.59c-3.66-4.57-10.87-7-15.6-2.6-3.3,3.06-3.23,7,.31,9.72,4.19,3.22,10.33,3.28,13.83,7.37,3.1,3.61,4.12,10.45-2.3,10.88-5.1.34-10.68-3.45-13.61-7.39-1.28-1.71-4.13-.18-2.94,1.72,3.32,5.31,10.61,9.76,17,9.14,6.11-.58,9-6.07,7.18-11.64-1.73-5.31-5.71-7.8-10.61-9.65-2.17-.81-6.42-1.87-7.68-4.07-2.08-3.64,4.2-5.89,6.82-5.35,2.44.5,4.47,1.91,6.55,3.19.87.54,1.58-.62,1-1.32Z" style="fill:#2f7762"/><path d="M154.64,50.63c0,7.69-.75,15.34-.82,23-.07,6.84,1,13.75-1,20.42-.59,2,2.57,2.88,3.13.86,1.84-6.48,1-13.08.82-19.72-.27-8.2.48-16.38,0-24.58a1.09,1.09,0,0,0-2.17,0Z" style="fill:#2f7762"/><path d="M159.55,50.37c-2.4,6.68-1.17,13.84-.59,20.73.35,4.13.45,8.35,1.39,12.41.74,3.16,2,6,2,9.25a1.17,1.17,0,0,0,2,.83c1.39-1.44.92-3.21.51-5a85.68,85.68,0,0,1-2.36-12.82c-.58-8-2.45-16.83-1.06-24.85a1,1,0,0,0-1.9-.52Z" style="fill:#2f7762"/><path d="M120.7,49.38c.12-1.82-2-10.24,2.62-8.05,3.09,1.48,1.86,7.21.86,9.57" style="fill:#91ddcb"/><path d="M121.74,49.38c-.09-1.17-.27-2.33-.38-3.5-.08-.84-.56-3.34.35-3.9.53-.33,1.47.33,1.81.72a4.46,4.46,0,0,1,.71,3.09,12.1,12.1,0,0,1-.47,2.73,8.15,8.15,0,0,0-.67,2.38,1.1,1.1,0,0,0,1.86.76c1.52-1.43,1.56-5.39,1.28-7.31-.31-2.12-1.74-4.36-4.15-4.31-4.26.09-2,6.69-2.38,9.06-.22,1.58,2.16,1.7,2,.28Z" style="fill:#2f7762"/><path d="M190.31,94.65c.89,1.28,2.52,2.4,4.14,1.85.55-.18.29-1.07-.24-.86s-1.06-.26-1.54-.57a5.94,5.94,0,0,1-1.37-1.18c-.45-.55-1.4.17-1,.76Z" style="fill:#2f7762"/><path d="M176.74,117.12a4,4,0,0,0-3.54,1.2c-.85.94-1.33,2.16-2.14,3.13a.66.66,0,0,0,.93.93,11.49,11.49,0,0,0,1.82-2.55,2.69,2.69,0,0,1,2.93-1.37c.85.12.85-1.24,0-1.34Z" style="fill:#2f7762"/><path d="M139.22,120.54a6.55,6.55,0,0,1,2.54,1.85c.55.6,1.54,1.73,1.19,2.63-.24.63.72,1,1.06.45.75-1.18-.18-2.59-1-3.49a8.34,8.34,0,0,0-3.49-2.59c-.73-.22-1,.92-.32,1.15Z" style="fill:#2f7762"/><path d="M185.89,16.5c.32,5.73-3.19,9.88-4.87,15.06a1.31,1.31,0,0,0,2.39,1c2.62-5,5.42-10.29,4.83-16.07-.15-1.47-2.43-1.53-2.35,0Z" style="fill:#2f7762"/><path d="M199.47,26.73a48.58,48.58,0,0,1-3,4.81,21.74,21.74,0,0,1-4.16,3.91A1.38,1.38,0,1,0,194,37.63c3.08-2.44,6.4-6.19,7-10.23a.87.87,0,0,0-1.58-.67Z" style="fill:#2f7762"/><path d="M196.63,48.32c2.08,0,4.16.14,6.24.29.95.06,2.14.2,2.92-.5a1.13,1.13,0,0,0-.49-1.87c.46.11-.62-.26-.83-.3a10.48,10.48,0,0,0-2.24-.08,42.63,42.63,0,0,0-5.87.48c-1.13.18-.84,2,.27,2Z" style="fill:#2f7762"/><g style="mix-blend-mode:darken"><path d="M136.24,59.26c-7.9,10.67-2.54,28,8.08,34.83,11.74,7.58,27.57,3.6,36.61-6.23,1.15-1.25-.73-3.14-1.86-1.87-7.86,8.79-21.72,12.47-32.41,6.69s-16.58-22.36-9.61-32.94c.34-.52-.45-1-.81-.48Z" style="fill:#4dad94"/></g><g style="mix-blend-mode:darken"><path d="M187,98c2.11-.3,10.42-10.14,9.36-2.6,0,.15-2.32,3.31-2.44,3.49-.71,1.08.71,2-.83,2.93C191.07,103,188.4,101.37,187,98Z" style="fill:#4dad94"/></g><g style="mix-blend-mode:darken"><path d="M80.52,16.36c-1,5.16-4,9.29,1.93,13.2,2.37,1.57,6.38,4.91,9.37,4.93,3.73,0,3.05-2.28,4.6-5.88A71.76,71.76,0,0,1,80.52,16.36Z" style="fill:#4dad94"/></g><g style="mix-blend-mode:darken"><path d="M161.28,47.4c12.15.47,19.27,11.35,20.49,22.43a1.23,1.23,0,0,0,2.45,0c.91-12.42-10.46-24.88-22.94-24.48a1,1,0,0,0,0,2Z" style="fill:#4dad94"/></g><path d="M181,132.3a21.51,21.51,0,0,1,5.4-1.36l-.46-1.7a11.72,11.72,0,0,0-2.88,2.87,1,1,0,0,0,.68,1.64,8.28,8.28,0,0,0,2.27-.3L184.93,132a6.58,6.58,0,0,1-2.89,2.85c-1.16.58-.28,2.13.83,2,1.51-.24,3-.48,4.55-.59l-.56-2a9.26,9.26,0,0,0-3.68,3.34,1.14,1.14,0,0,0,1,1.71,16.94,16.94,0,0,0,5.43-1.71l-1.18-2a23.65,23.65,0,0,0-5.08,4.15,1.21,1.21,0,0,0,1.16,2c2.58-.53,4.77-1.86,7.21-2.78l-1.19-2c-1.9,1.52-4.1,2.48-5.75,4.32a1.29,1.29,0,0,0,.9,2.18,17.66,17.66,0,0,0,3.33.1l-.89-2.14c-1.28,1.08-2.65,2-3.94,3.1-1.14.94.32,2.73,1.56,2l1.09-.64q.85-.33-.6-.54c.58,1.28,2.84.35,2.3-1-.85-2-2.7-.89-4.09-.06l1.56,2c1.27-1.08,2.62-2.07,3.9-3.14a1.27,1.27,0,0,0-.89-2.14,17.66,17.66,0,0,1-3.33-.15l.91,2.18c1.64-1.77,3.83-2.85,5.67-4.4.9-.76-.06-2.49-1.19-2-2.4,1-4.65,2.27-7.19,2.83l1.16,2a20.81,20.81,0,0,1,4.57-3.84,1.16,1.16,0,0,0-1.18-2,14.72,14.72,0,0,1-4.25,1.44l1,1.71a7,7,0,0,1,2.82-2.6,1.1,1.1,0,0,0-.55-2c-1.73.14-3.42.43-5.12.72l.82,1.95a8.14,8.14,0,0,0,3.51-3.69c.35-.72-.24-1.73-1.11-1.45a5.48,5.48,0,0,1-1.75.28l.68,1.64a10.45,10.45,0,0,1,2.44-2.65c.7-.45.5-1.79-.46-1.7a20.14,20.14,0,0,0-5.82,1.64c-.93.37-.57,1.87.42,1.54Z" style="fill:#2f7762"/><path d="M133.9,133.42a19.64,19.64,0,0,0-2.27-.93c-1-.32-1.72,1.29-.73,1.74a44.89,44.89,0,0,0,5.13,2v-2.32a11.16,11.16,0,0,1-5.13-.36,1.22,1.22,0,0,0-.65,2.35c1.73.71,3.5,1.23,5.16,2.11l.93-2.2a20.7,20.7,0,0,0-4.45-.21,1.19,1.19,0,0,0-.32,2.32c1.07.42,2.05,1,3.13,1.37v-2.34a7.77,7.77,0,0,1-3.36-.07,1.24,1.24,0,0,0-.66,2.39,19.23,19.23,0,0,1,4.2,2.29l1-2.32a57.69,57.69,0,0,0-5.59-1.51,1.27,1.27,0,0,0-1,2.31c1.74,1,3.67,1.65,5.45,2.61l.66-2.42a37.94,37.94,0,0,1-5.33-.3,1.34,1.34,0,0,0-1,2.43c1.2.75,2.42,1.44,3.67,2.09l1.37-2.35a12.72,12.72,0,0,0-3.59-1.07c-1.37-.22-2.54,1.77-1,2.45,1.3.59,2.43,1.44,3.67,2.13l.67-2.48c-.93,0-1.86.09-2.79,0-1.25-.06-1.9,1.94-.67,2.47a7.45,7.45,0,0,0,2.75.62c1.69.08,1.67-2.5,0-2.61a3.88,3.88,0,0,1-1.41-.3l-.67,2.47c.93.05,1.86,0,2.79,0a1.34,1.34,0,0,0,.67-2.48c-1.24-.68-2.37-1.54-3.65-2.14l-1,2.45a9.78,9.78,0,0,1,2.94.83c1.56.78,2.94-1.56,1.37-2.35-1.26-.63-2.48-1.31-3.69-2l-1,2.44a42,42,0,0,0,6,.33,1.31,1.31,0,0,0,.65-2.42c-1.79-.94-3.74-1.52-5.49-2.56l-1,2.32a55,55,0,0,1,5.59,1.52,1.27,1.27,0,0,0,1-2.32,20.71,20.71,0,0,0-4.81-2.49l-.66,2.39a11,11,0,0,0,4.67,0c1.26-.24,1-2,0-2.34s-2.08-.92-3.15-1.31l-.31,2.32a14.23,14.23,0,0,1,3.8.17,1.21,1.21,0,0,0,.93-2.2,51.73,51.73,0,0,0-5.43-2.26l-.94,2.23a12.84,12.84,0,0,0,6.42.33,1.21,1.21,0,0,0,0-2.32,46.46,46.46,0,0,0-5-1.4l-.25,1.87a14.25,14.25,0,0,1,1.93.46c.81.23,1.4-1,.59-1.4Z" style="fill:#2f7762"/><path d="M147.58,136.48a16.78,16.78,0,0,0,4.49.77c1.48,0,1.46-2.21,0-2.28a31.09,31.09,0,0,0-3.61.1,1.16,1.16,0,0,0-.3,2.27c1.34.5,2.63,1.13,4,1.58l.32-2.3c-1.34,0-2.65.22-4,.22-1.14,0-1.75,1.73-.62,2.25a46.19,46.19,0,0,0,7.29,3,1.28,1.28,0,0,0,.67-2.46,10,10,0,0,0-6.37.16,1.23,1.23,0,0,0,.33,2.41c.8,0,1.6,0,2.4,0,1.59.06,1.53-2.27,0-2.42a21,21,0,0,0-3.8.07,1.26,1.26,0,0,0-.63,2.33c1.23.69,2.34,1.56,3.6,2.22L152,142a47.13,47.13,0,0,1-4.9.09v2.6a16.45,16.45,0,0,1,5.51,1.07l.35-2.63a20.54,20.54,0,0,0-4.74.62c-1,.27-1.39,2-.32,2.45,1.67.74,3.4,1.28,5.06,2l.68-2.5c-1.75,0-3.5,0-5.24,0s-1.69,2.51,0,2.69a13,13,0,0,1,3.68,1v-2.6a4.68,4.68,0,0,1-3.45-.43,1.37,1.37,0,0,0-1.38,2.36,10.57,10.57,0,0,0,6.08,2.06c1.44,0,1.84-2.29.35-2.57a18.55,18.55,0,0,1-3.86-1.12c-1.54-.68-2.89,1.61-1.33,2.28a20.52,20.52,0,0,0,4.5,1.36l.34-2.57a6.11,6.11,0,0,1-4.42-1.59l-1.66,2.15a8.58,8.58,0,0,0,5.55.67c1.47-.28,1.09-2.15,0-2.6a15.24,15.24,0,0,0-4.4-1.12v2.69c1.74,0,3.49,0,5.24,0,1.25,0,1.94-1.94.68-2.5-1.67-.73-3.4-1.27-5.06-2l-.32,2.45a16.56,16.56,0,0,1,4-.54,1.34,1.34,0,0,0,.36-2.62,18.59,18.59,0,0,0-6.22-1.09,1.3,1.3,0,0,0,0,2.6,44.56,44.56,0,0,0,4.9-.15c1.15-.1,1.86-1.75.64-2.37s-2.38-1.5-3.62-2.18l-.63,2.33a25.43,25.43,0,0,1,3.8-.15v-2.42h-2.4l.32,2.41a8.86,8.86,0,0,1,5-.07l.67-2.46A44.48,44.48,0,0,1,149.1,137l-.61,2.26c1.33,0,2.64-.25,4-.3a1.18,1.18,0,0,0,.31-2.3c-1.37-.43-2.66-1-4-1.54l-.31,2.26a31.12,31.12,0,0,1,3.61-.13V135a11.72,11.72,0,0,1-3.95-.45,1,1,0,0,0-.54,2Z" style="fill:#2f7762"/><path d="M167.27,134.56h.14v-1.92c-.6,0-1.2.08-1.8.11a1.1,1.1,0,0,0,0,2.19l3.64.14-.6-2.21c-1.13.64-2.24,1.3-3.39,1.9s-.37,2.57,1,2.28,2.74-.52,4.11-.78l-.68-2.47a10.67,10.67,0,0,0-4,2.75,1.3,1.3,0,0,0,.57,2.16c1,.15,1.88.33,2.84.41l-.65-2.42c-.86.55-1.68,1.14-2.56,1.66-1,.62-.67,2.53.66,2.43a21,21,0,0,0,4-.5l-1.64-1.25-.41.7c-.75.9-.08,2.71,1.28,2.2l1.2-.27-.66-2.43c-.93.55-1.83,1.14-2.75,1.7s-.69,2.53.66,2.43c.78,0,1.56,0,2.34-.09l-.66-2.45c-1,.66-1.94,1.42-3,2.06a1.33,1.33,0,0,0,.66,2.46c.72,0,1.44,0,2.16-.07l-1.13-2c-.37.55-.76,1.08-1.16,1.6-.8.94-.08,2.63,1.28,2.21a25.6,25.6,0,0,0,2.58-.94l-1.6-2.06a13.55,13.55,0,0,1-3.62,2.72c-1.48.78-.17,3,1.32,2.24a11.24,11.24,0,0,1,3-.79l-1.45-1.9a5.72,5.72,0,0,0-.53,1.37,1.28,1.28,0,0,0,.89,1.58,12.25,12.25,0,0,0,4.86.1l-1.24-2.13a10,10,0,0,1-2.27,1.43c-1.4.72-.4,2.77,1,2.45l.47-.11c1.34-.3,1.13-2.11,0-2.51a9.29,9.29,0,0,0-3-.33c-1.7-.06-1.7,2.62,0,2.64a7.15,7.15,0,0,1,2,.07l.65-2.43-.48,0,.68,2.49a9.22,9.22,0,0,0,2.72-1.93,1.29,1.29,0,0,0-1.24-2.13,10,10,0,0,1-3.49-.13l.9,1.58.27-.74a1.31,1.31,0,0,0-1.45-1.9,13.88,13.88,0,0,0-3.65,1l1.32,2.24a15.42,15.42,0,0,0,4.16-3.1c1.11-1.15-.28-2.62-1.59-2.07q-1,.38-1.95.66l1.28,2.21a25,25,0,0,0,1.57-2.14,1.33,1.33,0,0,0-1.14-2,19.49,19.49,0,0,1-2.16.07l.66,2.46c1-.65,2-1.41,3-2.07a1.33,1.33,0,0,0-.67-2.45c-.78.05-1.56.05-2.34.11l.66,2.43c.92-.56,1.81-1.16,2.75-1.7a1.31,1.31,0,0,0-.66-2.43,4,4,0,0,0-1.9.34l1.28,2.2a4.42,4.42,0,0,0,1.15-2.56,1.31,1.31,0,0,0-1.65-1.25,17.28,17.28,0,0,1-3.28.39l.66,2.43c.88-.52,1.69-1.12,2.55-1.66a1.31,1.31,0,0,0-.66-2.42l-2.15-.32.57,2.17a8.11,8.11,0,0,1,2.86-2.11,1.28,1.28,0,0,0-.68-2.47c-1.37.28-2.74.52-4.1.84l1,2.28c1.14-.62,2.22-1.33,3.32-2a1.2,1.2,0,0,0-.59-2.21,29.46,29.46,0,0,0-3.64,0l.29,2.15,1.76-.37a1,1,0,0,0-.25-1.89h-.14a1,1,0,0,0,0,1.91Z" style="fill:#2f7762"/></g></svg>